<?xml version="1.0" standalone="no"?>
<!DOCTYPE svg PUBLIC "-//W3C//DTD SVG 1.1//EN" "http://www.w3.org/Graphics/SVG/1.1/DTD/svg11.dtd" >
<svg xmlns="http://www.w3.org/2000/svg" xmlns:xlink="http://www.w3.org/1999/xlink" version="1.1">
<metadata>
Created by FontForge 20230101 at Sun Sep  7 15:01:01 2014
 By Unknown
Copyright (c) 2009 by Gilles Le Corre. All rights reserved.
</metadata>
<defs>
<font id="1741FinanciereW00-Italic" horiz-adv-x="290" >
  <font-face 
    font-family="1741FinanciereW00-Italic"
    font-weight="400"
    font-style="italic"
    font-stretch="normal"
    units-per-em="1000"
    panose-1="3 4 5 2 4 4 5 7 13 3"
    ascent="800"
    descent="-200"
    x-height="339"
    cap-height="813"
    bbox="-653 -559 1907 1098"
    underline-thickness="50"
    underline-position="-175"
    slope="-12"
    unicode-range="U+0020-FB04"
  />
<missing-glyph horiz-adv-x="250" 
 />
    <glyph glyph-name="onequarter" unicode="&#x31;&#x2f;&#x34;" horiz-adv-x="735" 
d="M140 -38q-1 -2 -2 -3q-2 -3 -9 -14.5t-8 -15.5q-1 -3 -2 -5q-5 -5 -12 -10.5t-12 -6.5l-19 1l-10 3v2q-4 15 12 33q5 7 11 12l12 10q2 2 8 9.5t8 9.5q12 14 23 28t21 30l134 158q7 3 13 10q7 8 10.5 15.5t8.5 15.5q5 7 7.5 9.5t8.5 9.5q3 4 9 11.5t12 16t11.5 16
t8.5 11.5l3 3q2 2 5 9t5 9q4 7 4.5 12.5t5.5 10.5q2 2 3.5 2.5t3.5 2.5q4 4 12 9q4 3 9 5l2 1h7q3 0 6.5 0.5t5.5 0.5q3 1 6.5 -0.5t6.5 -2.5l4.5 -4.5t3.5 -7.5q0 -5 -0.5 -11t-5.5 -12l-147 -183l-5 -3q-1 -1 -4.5 -5l-7 -8t-7.5 -8l-5 -5q-11 -11 -22.5 -18.5
t-19.5 -18.5q-7 -6 -8 -10.5t-6 -12.5l-11 -11q0 -2 -4 -8t-6 -8q0 -1 -3.5 -6.5t-4.5 -6.5q-4 -6 -6.5 -11t-5.5 -9q-13 -15 -28 -24.5t-26 -22.5zM25 229q0 15 4 25.5t10 18.5t12.5 16t10.5 18q4 15 7 30t12 30q8 12 15 27.5t7 29.5q0 11 -4.5 17.5t-10 11.5t-10 10
t-4.5 13q0 6 6 11t14 9t16 6.5t13 2.5q12 0 22 -7.5t21 -11.5q14 -6 23 -16.5t9 -24.5q0 -15 -8 -24t-16 -20t-13 -25.5t-13 -28.5q0 -1 -3 -4t-3 -4q-13 -25 -25.5 -51.5t-12.5 -52.5q0 -6 6.5 -14.5t14.5 -12.5q4 -2 10 -2.5t11.5 -2t9.5 -5t4 -9.5q0 -8 -5.5 -13
t-12.5 -7.5t-13.5 -3.5t-7.5 -1h-36q-8 0 -18 4t-19.5 11t-16 15t-6.5 17v18zM426 -239q0 16 8 27.5t10 25.5q2 8 3 16t5 16q5 9 9 17.5t4 19.5q0 13 -5 19.5t-13.5 9.5t-18 4.5t-18.5 4.5q-8 3 -17.5 9t-17.5 6h-42q-16 0 -29.5 -10t-31.5 -10q-7 0 -12 3t-5 11q0 9 9 19.5
t22 22t28 23.5t26 25q14 16 31 27t34 19l68 68q2 1 7 5.5t7 5.5q1 1 6 3.5l10 5l10 5t6 3.5q2 3 8 8t12.5 10t11.5 10t5 8l16 33l17 16q2 3 7 3.5t9 0.5q9 0 15.5 -4.5t6.5 -15.5q0 -10 -3.5 -25.5t-6.5 -23.5q-6 -6 -8.5 -15t-3.5 -18t-3.5 -18.5t-8.5 -16.5l-22 -25
q-8 -9 -9.5 -19.5t-1.5 -21.5q0 -30 6.5 -46t16 -23t20.5 -8t20.5 -1.5t16 -3.5t6.5 -14q0 -6 -4 -8q-15 -18 -35 -21.5t-38.5 -5.5t-32.5 -8.5t-16 -28.5q0 -26 -5 -37.5t-10 -25.5q-3 -8 -3 -24t-1.5 -32.5t-6.5 -28.5t-18 -12q-17 0 -33.5 12t-16.5 29zM403 10
q0 -9 1 -12.5t4 -5t7 -1.5t10 -2q11 -3 19.5 -7t19.5 -4q13 0 21.5 6t13.5 16t7 22t2 23q0 18 -5.5 34t-27.5 16q-9 0 -14.5 -5t-9.5 -12t-8 -14.5t-10 -12.5q-11 -11 -20.5 -17.5t-9.5 -23.5z" />
    <glyph glyph-name="onehalf" unicode="&#x31;&#x2f;&#x32;" horiz-adv-x="715" 
d="M140 -38q-1 -2 -2 -3q-2 -3 -9 -14.5t-8 -15.5q-1 -3 -2 -5q-5 -5 -12 -10.5t-12 -6.5l-19 1l-10 3v2q-4 15 12 33q5 7 11 12l12 10q2 2 8 9.5t8 9.5q12 14 23 28t21 30l134 158q7 3 13 10q7 8 10.5 15.5t8.5 15.5q5 7 7.5 9.5t8.5 9.5q3 4 9 11.5t12 16t11.5 16
t8.5 11.5l3 3q2 2 5 9t5 9q4 7 4.5 12.5t5.5 10.5q2 2 3.5 2.5t3.5 2.5q4 4 12 9q4 3 9 5l2 1h7q3 0 6.5 0.5t5.5 0.5q3 1 6.5 -0.5t6.5 -2.5l4.5 -4.5t3.5 -7.5q0 -5 -0.5 -11t-5.5 -12l-147 -183l-5 -3q-1 -1 -4.5 -5l-7 -8t-7.5 -8l-5 -5q-11 -11 -22.5 -18.5
t-19.5 -18.5q-7 -6 -8 -10.5t-6 -12.5l-11 -11q0 -2 -4 -8t-6 -8q0 -1 -3.5 -6.5t-4.5 -6.5q-4 -6 -6.5 -11t-5.5 -9q-13 -15 -28 -24.5t-26 -22.5zM9 230q0 15 4 25.5t10 18.5t12.5 16t10.5 18q4 15 7 30t12 30q8 12 15 27.5t7 29.5q0 11 -4.5 17.5t-10 11.5t-10 10
t-4.5 13q0 6 6 11t14 9t16 6.5t13 2.5q12 0 22 -7.5t21 -11.5q14 -6 23 -16.5t9 -24.5q0 -15 -8 -24t-16 -20t-13 -25.5t-13 -28.5q0 -1 -3 -4t-3 -4q-13 -25 -25.5 -51.5t-12.5 -52.5q0 -6 6.5 -14.5t14.5 -12.5q4 -2 10 -2.5t11.5 -2t9.5 -5t4 -9.5q0 -8 -5.5 -13
t-12.5 -7.5t-13.5 -3.5t-7.5 -1h-36q-8 0 -18 4t-19.5 11t-16 15t-6.5 17v18zM323 -91q0 9 6.5 15.5t15.5 12t19 10.5t17 10q3 2 23 13t43.5 26t42 31.5t18.5 29.5q6 15 11.5 31t5.5 33q0 6 -0.5 14.5t-3.5 12.5l-12 17q-4 4 -13 4q-2 0 -11.5 -1t-20.5 -5t-19.5 -12
t-8.5 -22q-7 -12 -10.5 -23.5t-17.5 -11.5q-12 0 -18.5 12t-6.5 26q0 25 18 37.5t40 23.5q4 3 14.5 12t24.5 9h62q5 0 12 -3.5t11 -8.5l34 -42q4 -5 6 -13t2 -15q0 -16 -8 -29q-17 -40 -40 -61t-34 -29q-7 -3 -15 -8t-15.5 -11t-12.5 -14t-5 -18q0 -11 10.5 -19t22.5 -8
q13 0 26.5 10.5t30.5 10.5q9 0 17 -6.5t8 -18.5q0 -13 -8 -24t-18.5 -19.5t-21 -13t-16.5 -3.5l-42 6q-11 2 -27 7.5t-27 5.5h-96q-6 0 -9.5 5.5t-3.5 13.5z" />
    <glyph glyph-name="threequarters" unicode="&#x33;&#x2f;&#x34;" horiz-adv-x="843" 
d="M226 -43q-1 -2 -2 -3q-2 -3 -9 -14.5t-8 -15.5q-1 -3 -2 -5q-5 -5 -12 -10.5t-12 -6.5l-19 1l-10 3v2q-4 15 12 33q5 7 11 12l12 10q2 2 8 9.5t8 9.5q12 14 23 28t21 30l134 158q7 3 13 10q7 8 10.5 15.5t8.5 15.5q5 7 7.5 9.5t8.5 9.5q3 4 9 11.5t12 16t11.5 16
t8.5 11.5l3 3q2 2 5 9t5 9q4 7 4.5 12.5t5.5 10.5q2 2 3.5 2.5t3.5 2.5q4 4 12 9q4 3 9 5l2 1h7q3 0 6.5 0.5t5.5 0.5q3 1 6.5 -0.5t6.5 -2.5l4.5 -4.5t3.5 -7.5q0 -5 -0.5 -11t-5.5 -12l-147 -183l-5 -3q-1 -1 -4.5 -5l-7 -8t-7.5 -8l-5 -5q-11 -11 -22.5 -18.5
t-19.5 -18.5q-7 -6 -8 -10.5t-6 -12.5l-11 -11q0 -2 -4 -8t-6 -8q0 -1 -3.5 -6.5t-4.5 -6.5q-4 -6 -6.5 -11t-5.5 -9q-13 -15 -28 -24.5t-26 -22.5zM83 93h-5q-1 0 -2 1h1q-15 3 -28 12t-23.5 22t-16.5 27.5t-6 28.5q0 11 5.5 22t13.5 19.5t18.5 14t20.5 5.5
q13 0 20.5 -11.5t7.5 -19.5q0 -17 -8 -28t-8 -22q0 -16 14 -32t28 -16h60q0 -1 2.5 0.5t6.5 4t8 4.5l6 3v-1l1 1q9 6 17.5 11t14.5 7l-1 -1q4 3 11 10t14 15t12 16t5 14l4 43q1 9 -4 18.5t-14 20t-20 23.5t-22 30v-1q-3 3 -3 12t4.5 13t12 5.5t18 2t21.5 2.5q8 1 22 7.5
t28.5 17t27 24t16.5 29.5q1 8 1 16.5v16.5q0 23 -3 38.5t-20 30.5h1q-5 3 -14 6t-17 3h-58q-9 0 -16 -3t-13 -6.5t-11 -6.5t-11 -3q-12 0 -17.5 9t-5.5 20q0 16 10 24.5t23 13.5l7 3v-1q2 1 11.5 4t21 6t21 5t11.5 2l61 -10q1 0 7.5 -2t15 -5.5t17.5 -8t17 -9.5
q12 -8 24 -22.5t12 -27.5l-1 -46q0 -1 -0.5 -2t-0.5 -2v-2l-12 -26q-5 -11 -18.5 -20t-18.5 -19h1l-7 -13q-2 -5 -4.5 -9t-7.5 -9l-23 -23l-7 -2h2q-11 -5 -19.5 -11t-8.5 -18t5.5 -20t12 -15.5t12 -15t5.5 -18.5v-39q0 -10 -6.5 -19.5t-14.5 -18.5t-16 -16t-12 -12v-3v1
q-2 -2 -2 -3q-7 -14 -17 -23t-19 -14v1l-25 -20h1q-2 -2 -8 -5t-10 -3h-30q-9 -1 -15.5 -4t-12 -6.5t-11.5 -6t-15 -2.5q-13 0 -24 4.5t-23 12.5h-5zM503 -219q0 16 8 27.5t10 25.5q2 8 3 16t5 16q5 9 9 17.5t4 19.5q0 13 -5 19.5t-13.5 9.5t-18 4.5t-18.5 4.5q-8 3 -17.5 9
t-17.5 6h-42q-16 0 -29.5 -10t-31.5 -10q-7 0 -12 3t-5 11q0 9 9 19.5t22 22t28 23.5t26 25q14 16 31 27t34 19l68 68q2 1 7 5.5t7 5.5q1 1 6 3.5l10 5l10 5t6 3.5q2 3 8 8t12.5 10t11.5 10t5 8l16 33l17 16q2 3 7 3.5t9 0.5q9 0 15.5 -4.5t6.5 -15.5q0 -10 -3.5 -25.5
t-6.5 -23.5q-6 -6 -8.5 -15t-3.5 -18t-3.5 -18.5t-8.5 -16.5l-22 -25q-8 -9 -9.5 -19.5t-1.5 -21.5q0 -30 6.5 -46t16 -23t20.5 -8t20.5 -1.5t16 -3.5t6.5 -14q0 -6 -4 -8q-15 -18 -35 -21.5t-38.5 -5.5t-32.5 -8.5t-16 -28.5q0 -26 -5 -37.5t-10 -25.5q-3 -8 -3 -24
t-1.5 -32.5t-6.5 -28.5t-18 -12q-17 0 -33.5 12t-16.5 29zM480 30q0 -9 1 -12.5t4 -5t7 -1.5t10 -2q11 -3 19.5 -7t19.5 -4q13 0 21.5 6t13.5 16t7 22t2 23q0 18 -5.5 34t-27.5 16q-9 0 -14.5 -5t-9.5 -12t-8 -14.5t-10 -12.5q-11 -11 -20.5 -17.5t-9.5 -23.5z" />
    <glyph glyph-name="AE" unicode="AE" horiz-adv-x="1450" 
d="M1065 20q-2 1 -9.5 3.5t-32.5 -4.5q-3 -2 -9 -5t-13 -5.5l-14 -5t-10 -2.5l-61 -1q-15 0 -32.5 8.5t-31.5 17.5l-16 10q-17 11 -31.5 35.5t-15.5 58.5q0 17 1 44t1 44q0 5 2.5 17t6 25.5t8 25.5t7.5 17q1 1 1.5 6t1.5 11t1.5 11.5t0.5 8.5q0 11 -13 22.5t-27 11.5h-46
q-8 0 -18.5 -4t-17.5 -8l-10 -9q-7 -5 -14.5 -10.5t-8.5 -8.5q-7 -17 -16 -29.5t-27 -35.5q-6 -14 -13 -26t-16 -26h-1q-3 -6 -8 -10.5t-11 -9t-11 -9t-7 -11.5q-3 -1 -8 -8.5t-11.5 -17t-13.5 -18t-14 -11.5q-10 -5 -19 -12.5t-19 -15.5q-19 -17 -33 -26t-25.5 -14t-20 -9
t-17.5 -11q-17 -8 -37 -12.5t-39 -11.5l-8 -3q-5 -2 -9.5 -4.5t-6.5 -2.5h-104q-17 0 -40 12.5t-40 22.5h-3v2q-26 20 -41 33t-23 26t-11.5 29t-5.5 43q-1 6 -3 11.5t-4 10.5h-1q-2 5 -4 12.5t-2 18.5q0 12 2 20t5.5 14t7.5 12t8 14l1 -1q2 13 6.5 21.5t9.5 16.5l10 17l8 10
q4 3 9 6.5t7 8.5q3 3 18 9t33.5 12t35 10.5t21.5 4.5q12 0 21 -2.5t18 -7.5t19.5 -11.5t25.5 -13.5h1q2 -1 10 -8.5t16.5 -20.5t15.5 -30t7 -37q0 -19 -3.5 -30.5t-3.5 -22.5q0 -6 -0.5 -18t-4 -24t-10.5 -21t-20 -9q-6 0 -8 3.5t-2 14.5q0 17 6.5 32.5t6.5 32.5
q0 18 -6.5 34t-18 29t-25.5 20.5t-29 7.5v3l-6 -2h-40q-7 0 -15.5 -4.5t-17 -10.5t-16 -12.5t-10.5 -9.5q-6 -5 -17 -16.5t-11 -27.5v-71q0 -2 2.5 -9.5t6 -15.5t7.5 -15t6 -9l24 -23q5 -6 10.5 -8.5t13.5 -4.5l41 -14q20 -7 36 -13t36 -5q16 0 30.5 4.5t28.5 9.5
q27 10 25 10h2q14 4 28 9.5t14 8.5q3 6 12 12t18.5 10.5t17.5 8t9 4.5l18 19l15 15t9 8t8 7l12 12q10 13 15.5 17.5t11 10t12.5 17.5t21 39q6 11 18 18t19 17l12 21q8 13 16.5 27.5t31.5 36.5q8 8 14 17t12 20q17 34 36 51.5t37 32.5h1q5 8 5.5 7.5t1.5 0.5q4 2 7 4.5t3 1.5
h1q11 16 26.5 32t26.5 26v-1q4 4 4 5h1q3 2 12 11.5t19 21.5t19 22.5t11 13.5h1q14 22 28 36.5t24.5 23.5t16.5 14t5 10q10 10 21.5 20t22.5 18.5t20 15.5t15 11q2 1 15.5 13t31.5 25.5t37 24.5t32 11q15 0 16.5 -6.5t-2 -16t-9 -21t-5.5 -20.5q0 -8 -3 -17.5t-7.5 -18.5
t-9 -17t-7.5 -13l-18 -31l-7 -5l-2 1l-11 -19q-8 -13 -15.5 -25.5t-15.5 -22.5l-1 1q-3 -3 -12 -12.5t-19.5 -21.5t-20.5 -25t-15 -23q-8 -15 -16 -25.5t-16 -22t-16 -27.5t-15 -42l-7 -25q-2 -5 -3.5 -8l-2.5 -5l-11 -21q-7 -12 -11 -23t-4 -25q0 -3 -1 -10.5t-3.5 -16.5
t-5 -18.5t-5.5 -16.5q-11 -17 -17 -38.5t-6 -42.5q0 -10 2.5 -23t6.5 -26t9 -24.5t9 -17.5q0 -1 7 -12t20 -23.5t31 -23t40 -10.5q11 0 16.5 10.5t1.5 21.5q-2 1 -6 5t-9.5 9t-10 9t-5.5 6q-2 2 -7 7.5t-6 7.5q0 1 -4.5 9.5t-7.5 12.5l-5.5 11t-7 15t-6.5 15.5t-4 12.5
q-5 37 0 68.5t14 55.5t19 39.5t16 20.5l133 125q7 5 3 6.5t-4 9.5q0 11 -6 18.5t-6 19.5v6.5t2 5.5q2 2 5 9t5 8q1 4 0.5 9.5t-1.5 11.5t-1 11.5t2 9.5q3 6 8 14.5t10.5 17t11 16t10.5 11.5q6 6 9.5 11.5t8 11.5t10.5 11t16 10q9 4 15 8.5t11.5 9t11.5 9.5t14 10
q16 9 33.5 15.5t38.5 6.5q10 0 25 7t25 7q15 0 24 -4t24 -4q13 0 22.5 -5t22.5 -10q5 -3 12 -4.5t14 -3.5t12 -6t6 -11q1 -6 2.5 -9t3.5 -4.5t4.5 -3.5t5.5 -8l-7 -32q-1 -5 -1 -7.5t-2 -4.5q-6 -9 -11 -19t-14 -17q-14 -11 -28.5 -11h-32.5q-11 0 -20 4t-9 15q0 5 0.5 7.5
t4.5 6.5q11 11 22 23t11 29q0 15 -12.5 22.5t-25.5 12.5q-10 5 -17 9.5t-17 4.5h-6q-16 -8 -31.5 -14.5t-30.5 -14.5q-1 0 -2.5 -1.5t-3.5 -2.5q-23 -21 -44 -36t-44 -36q-11 -19 -24.5 -44.5t-13.5 -45.5q0 -15 6.5 -28t14.5 -27q5 -6 13 -10t16 -4q13 0 23.5 4.5t21.5 4.5
q7 0 11.5 -0.5t13.5 -2.5q1 0 2 -1.5t3 -1.5q6 -4 14.5 -10t16 -13.5t12.5 -16t5 -17.5q0 -5 -5 -15.5t-7 -12.5l-18 -18q-11 -4 -22.5 -10.5t-25.5 -6.5q-8 0 -14.5 4t-14.5 6q-10 4 -20 5t-20 3q-17 13 -29.5 23.5t-34.5 10.5q-20 0 -36 -9.5t-29 -24t-22.5 -31.5
t-15.5 -32q-3 -8 -3.5 -16.5t-3.5 -16.5q-5 -11 -11.5 -20.5t-6.5 -22.5v-45q0 -12 5 -21.5t10 -17.5q3 -4 8 -14t11 -21.5t11.5 -21.5t7.5 -13q10 -12 17 -16q3 -2 12 3.5t13 4.5q14 16 19.5 21t16.5 5q17 0 17 -25v-14t-1 -4t-3 -1t-6 -3l6 -21q8 -5 18 -10t21 -5h75l12 1
q20 11 42 21.5t43 18.5l21 20q2 3 6 11l8.5 17t8.5 16.5t6 10.5q4 7 9 14t5 13v29q0 8 -11 12t-16 4q-11 0 -18.5 -3.5t-16.5 -4.5q-8 -1 -14 -1q-5 -1 -10.5 -1h-8.5h-4q-9 0 -20 8.5t-11 17.5v23l1 1q0 1 0.5 1t0.5 1q-6 5 -1 18t16 25.5t26 19t30 -0.5l56 -28
q7 -3 14 -12t12.5 -19.5t9 -21t3.5 -17.5v-54q0 -2 -1 -5q-2 -6 -2 -7t-1 -2v-1q-1 -1 -3.5 -5.5l-5 -9l-5 -9t-2.5 -5.5q-8 -17 -21.5 -30t-28.5 -26q-8 -8 -15.5 -16t-16.5 -14l-20 -9l-5 -3q-2 0 -10.5 -4t-10.5 -5q-6 -3 -15 -8.5l-18 -11t-17.5 -10t-15.5 -4.5l-88 -6
q-2 0 -12.5 3t-22 7t-21.5 8t-12 5zM775 468q0 -13 11.5 -21t25.5 -8q18 0 34.5 10t30 25t23 32t14.5 31q1 7 14.5 26.5t29 42.5t28 43.5t12.5 28.5q0 6 1 9.5t-0.5 5t-7 2t-17.5 0.5q-9 0 -17.5 -6t-16.5 -14.5t-15 -17t-11 -13.5q-4 -2 -12.5 -11.5t-20 -23.5t-23.5 -29.5
t-22.5 -29t-18 -22.5t-8.5 -10l-5.5 -4t-12 -11t-11.5 -16t-5 -19zM1221 458q0 -20 19 -20q9 0 15 5t6 13t-5 15.5t-16 7.5q-9 0 -14 -6.5t-5 -14.5zM1015 13q-2 -1 -4 -1q2 1 4 1z" />
    <glyph glyph-name="ae" unicode="ae" horiz-adv-x="438" 
d="M5 38q2 22 -3 40t-5 41q0 10 2.5 20t7.5 18q6 14 8.5 22t6.5 22q5 11 12.5 19t12.5 16q5 11 7 17t5 14q6 15 20 22.5t25 16.5q8 6 13 16t14 15q5 5 8.5 5t11.5 1q2 0 13 3t14 3q10 3 22 2t21 -1h31q16 -3 27 -10t30 -7q12 0 21 5.5t20 7.5h14q35 0 54.5 -16t19.5 -54
q0 -10 -1.5 -19t-9.5 -17q0 -2 -3 -5t-4 -3q-11 -8 -24.5 -19.5t-26.5 -19.5q-2 -2 -6.5 -3.5t-6.5 -2.5q-10 -5 -19 -11.5t-21 -6.5q-5 0 -8.5 1t-3.5 8q0 8 5 14t11.5 11t13.5 9.5t12 9.5l6 6q2 2 3 4q6 11 11 20.5t5 20.5q0 12 -10 22.5t-21 10.5q-10 0 -19 -4
q-2 -2 -10.5 -9.5t-10.5 -9.5q-5 -2 -10 -5t-9 -7q-6 -8 -9.5 -16.5t-6.5 -18.5l-1 -2q-8 -14 -12.5 -23.5t-4.5 -25.5q0 -9 1.5 -19t1.5 -19q0 -8 -0.5 -16t-0.5 -16v-12q4 -13 13.5 -23.5t18.5 -18.5q7 -4 15 -4h16q14 0 27 7.5t24 12.5q8 7 15 10.5t18 3.5q7 0 13.5 -3.5
t6.5 -11.5q0 -13 -10 -19t-16 -10q-14 -7 -25 -14t-21.5 -13t-23 -9.5t-30.5 -3.5q-34 0 -67 19q-12 7 -18.5 15t-20.5 8q-15 0 -28 -8.5t-25.5 -19t-25 -19t-25.5 -8.5q-41 0 -71 33q-4 6 -4 11zM63 105q5 -14 14 -27.5t23 -13.5q10 0 19 4l18 8q23 6 32 15.5t12.5 22
t5 28.5t10.5 36q1 2 3.5 7.5t4.5 7.5q1 3 3.5 11.5t5.5 18t5.5 18t3.5 11.5q4 6 6.5 11.5t2.5 12.5q0 17 -11 31t-28 14q-8 0 -15.5 -4.5t-14 -10.5t-12.5 -12.5t-11 -10.5q-17 -15 -29 -26t-23 -31q-2 -2 -5.5 -8.5t-7 -13.5t-7.5 -13.5t-5 -8.5q-2 -5 -2.5 -13t-0.5 -14
v-13q0 -2 0.5 -7.5t1 -11.5t1 -11.5t0.5 -6.5z" />
    <glyph glyph-name="ij" unicode="ij" horiz-adv-x="397" 
d="M11 40q0 20 6.5 38.5t15.5 36.5q5 11 8.5 15t7.5 15q0 2 2.5 8.5t2.5 8.5q5 12 10.5 21.5t10.5 18.5t8.5 19t3.5 24v12q-1 4 -5 6t-8 2q-7 0 -12 -3t-10 -7t-11 -7t-13 -3q-6 0 -11.5 4.5t-5.5 10.5q0 18 17 27q2 0 7 2.5t10.5 5t10.5 5l7 3.5q10 6 18.5 13.5t18.5 12.5
q14 8 31 15t34 7q26 0 26 -25q0 -15 -10 -27.5t-15 -26.5t-11.5 -25.5t-11.5 -25.5q-2 -6 -4 -15.5t-6 -15.5q0 -2 -2.5 -6t-5 -9t-4.5 -9.5t-3 -5.5q0 -2 -1.5 -7.5t-1.5 -7.5q-5 -17 -12.5 -33.5t-7.5 -33.5q0 -11 3 -20.5t16 -9.5q12 0 17 3.5t8.5 7t9 7t17.5 3.5
q13 0 13 -14q0 -7 -3 -11.5t-6 -8.5q-3 -2 -7.5 -5.5t-9 -7.5t-8 -7l-3.5 -3q-17 -13 -42.5 -20.5t-48.5 -7.5h-10q-15 11 -22.5 24t-7.5 32zM210 633q0 6 0.5 12t5.5 11q9 10 20 20.5t25 10.5q23 0 42 -16.5t19 -39.5q0 -21 -15 -36t-35 -15h-9q-2 0 -13.5 3.5t-16.5 4.5
q-13 4 -18 19t-5 26zM-138 -447q0 33 11.5 60t27.5 56q5 8 8 15.5t7 14.5q7 10 15.5 19t15.5 20q4 5 5 9.5t4 9.5q22 24 42.5 46.5t46.5 42.5q11 9 23 13.5t23 11.5l6 3q2 4 8 7.5t7 4.5q3 3 10.5 9.5t15.5 14t15 14t9 9.5q12 8 23 15t20 19q5 7 7.5 12t3.5 9.5l2 9t4 11.5
q5 15 12 27t12 26q1 8 1 17.5t2 16.5q0 2 1.5 8.5t1.5 8.5q0 1 3.5 9.5t3.5 9.5q0 2 1 7t2 10.5t2 10t1 5.5q2 9 6 16.5t8 15.5q3 9 6 24t3 25q0 20 -6 27.5t-13.5 8t-13.5 -2.5l-6 -3q-4 0 -10.5 -0.5t-13 0t-11 1.5t-4.5 4q0 14 6 23.5t17 10.5q12 5 17 7.5t19 13.5
q29 21 51.5 30t54.5 9q5 0 7.5 -5.5t3 -13t0 -15t-0.5 -12.5q0 -7 -2 -11.5t-5 -9.5q-2 -6 -4 -13l-4 -14q-5 -7 -9.5 -14t-6.5 -16q-5 -13 -5.5 -25t-3.5 -26q-1 -1 -2.5 -6t-3.5 -10l-4 -10t-2 -6q-1 -1 -2 -6.5t-2 -11.5t-1.5 -12t-0.5 -7l-3 -5q-7 -17 -15 -37.5
t-8 -40.5q0 -12 6.5 -16t14.5 -6.5t14.5 -5t6.5 -11.5q0 -8 -8.5 -15t-19.5 -13.5t-22 -12.5t-16 -13q-11 -14 -17.5 -34.5t-13.5 -37.5q-17 -37 -35.5 -72.5t-36.5 -72.5l-3 -5q-1 -3 -4 -9t-6.5 -12.5t-7 -12.5t-5.5 -8q-2 -3 -7 -9.5t-11.5 -14t-12 -14.5t-6.5 -10
q-8 -9 -13.5 -20t-12.5 -20q-8 -11 -17 -18.5t-17 -16.5l-6 -9q-6 -7 -16.5 -17.5l-12.5 -12.5q-2 -1 -10.5 -7t-11.5 -8q-2 0 -10.5 -5.5t-13.5 -7.5q-4 -4 -10 -6.5t-11 -2.5h-35q-16 0 -31.5 13t-20.5 29v19zM-69 -402q0 -8 2 -17.5t6 -17.5t11 -13.5t17 -5.5q11 0 18 8
t16 16q2 2 7.5 5t7.5 4q2 4 10 11.5t10 9.5l54 69q8 20 17.5 38.5t19.5 38.5q4 7 6.5 15t7.5 16q5 9 12 15t13 12t10.5 13.5t4.5 18.5q0 7 -0.5 15t-2.5 15t-7 11.5t-14 4.5q-11 0 -19 -5.5t-17 -12.5q-1 -1 -8.5 -5t-9.5 -5q-3 -4 -14.5 -14.5t-15.5 -14.5
q-8 -10 -13.5 -19t-13.5 -20q-9 -10 -21 -19t-21 -20l-3.5 -4.5t-7.5 -10.5l-8 -12l-6 -9q-6 -8 -9 -17t-6 -17q-8 -16 -20.5 -36.5t-12.5 -40.5zM422 651q0 17 15 31.5t35 14.5q23 0 34.5 -16t11.5 -39v-9t-1 -11q-7 -9 -20 -15t-24 -6q-18 0 -34.5 16t-16.5 34z" />
    <glyph glyph-name="OE" unicode="OE" horiz-adv-x="939" 
d="M540 21q-2 2 -11.5 10t-13.5 10q-2 0 -7.5 2.5t-11.5 5.5t-11.5 5.5t-6.5 3.5q-2 1 -8.5 5t-8.5 7q-2 1 -7 4.5t-10 8.5l-12 -13q-9 -8 -24.5 -16.5t-26.5 -12.5q-14 0 -27 -6.5t-25 -14t-23 -14t-23 -6.5h-93q-9 0 -18 5.5t-17 10.5q-29 5 -57 20t-45 44q-8 14 -11.5 26
t-10.5 27q-6 13 -10.5 36t-7.5 46t-4.5 40.5l-1.5 17.5q0 10 3.5 18t3.5 17v40q2 12 6.5 22.5t8.5 22.5q4 17 8 31t13 32l7.5 20t10 25.5t12.5 27t14 22.5l31 35q0 1 2.5 7t6.5 13.5t8.5 15t9.5 11.5l69 75q2 3 9.5 7t9.5 6q18 10 32.5 20.5t28.5 18.5t30.5 13t39.5 5h52
q3 -2 11 -4t10 -2q23 0 39 -9.5t33 -21.5q11 -5 20.5 -10t18 -12t16.5 -17.5t16 -25.5q1 -2 3 -5.5t5 -8.5q8 12 16 19q32 32 61 59t71 51q17 9 28.5 14t34.5 5q11 0 24 5.5t24 5.5q16 0 27.5 -2.5t27.5 -2.5q14 0 24 -5t24 -10q6 -3 13.5 -4.5t14 -3.5t12 -6t6.5 -11
q1 -6 2.5 -8.5t3 -4t3.5 -3t6 -7.5l-5 -34q-1 -5 -1 -7.5t-2 -4.5q-7 -9 -12 -19t-15 -17q-14 -11 -29.5 -11h-34.5q-12 0 -21.5 4t-9.5 15q0 5 0.5 7.5t4.5 6.5q12 11 23.5 23t11.5 29q0 15 -13 22.5t-27 12.5q-11 5 -18 9.5t-18 4.5h-6q-17 -8 -33 -14.5t-32 -14.5
q-2 0 -3.5 -1.5t-3.5 -2.5q-25 -21 -47 -36t-46 -36q-6 -9 -15.5 -24.5t-19 -32t-16.5 -32t-7 -25.5l7 -28q3 -7 7 -13.5t8 -14.5q12 -14 31 -14q14 0 25 4.5t22 4.5q8 0 12.5 -0.5t14.5 -2.5q1 0 2 -1.5t3 -1.5q7 -4 15.5 -10t16.5 -13.5t13.5 -16t5.5 -17.5
q0 -2 -1.5 -6.5t-4 -9t-4.5 -8t-3 -4.5l-19 -18q-12 -4 -24.5 -10.5t-26.5 -6.5q-8 0 -15 4t-15 6q-5 2 -7.5 5.5t-4.5 7.5t-4.5 7.5t-7.5 4.5q-6 4 -18.5 2t-17.5 1l-8 -20q0 -11 -6 -28t-12 -29q-3 -5 -5.5 -23t-9.5 -30q-13 -20 -21 -40t-25 -43q-8 -10 -12 -23t-14 -24
l-29 -31l13 -21q9 -11 18 -16q19 -10 38.5 -18t39.5 -16q9 -5 19 -10t22 -5h79l13 1q21 11 44 21.5t46 18.5l22 20q2 3 6.5 11t9 17t8.5 16.5t6 10.5l10 14t5 13v28q0 8 -11.5 12t-16.5 4q-11 0 -19.5 -3.5t-17.5 -4.5q-8 -1 -15 -1q-6 -1 -11.5 -1h-8.5h-4q-10 0 -21.5 8.5
t-11.5 17.5v23l1 1q0 1 0.5 1t0.5 1q4 9 10.5 19.5t15.5 20t20.5 15.5t23.5 6h63q11 0 20 -6t9 -15q0 -7 7.5 -14t7.5 -14q0 -15 7.5 -27t3.5 -25l-13 -49q0 -2 -1 -5q-2 -6 -2 -7t-1 -2v-1q-1 -1 -3.5 -5.5t-5.5 -9t-5.5 -9t-2.5 -5.5q-8 -17 -22 -30t-31 -26l-16 -16
t-17 -14l-21 -9l-6 -3q-2 0 -11 -4t-11 -5q-7 -3 -16 -8.5t-18.5 -11t-19 -10t-16.5 -4.5l-92 -6q-3 0 -13.5 3t-23 7t-23 8t-12.5 5zM140 76q14 -9 21.5 -10.5t21.5 -6.5q20 -8 34 -13t39 -5q7 0 25 4.5t38.5 12.5t40 18.5t29.5 21.5l21 24l-4 8t-4 6q-2 4 -6 11t-7.5 15
t-7 15.5t-4.5 12.5q-5 37 0 68t14.5 55t20.5 39.5t17 20.5l103 100l27 65q-3 6 -3 14q0 3 -0.5 5t0.5 4v7q-1 17 -6 37.5t-14 32.5q-2 5 -3 9t-5 9q-11 18 -21 29t-20.5 19.5t-22.5 15t-27 14.5q-1 0 -2 0.5t-3 0.5h-69q-8 0 -16 -6t-16 -8q-9 -4 -14 -3.5t-11.5 -1
t-19.5 -8.5t-38 -26l-22 -24q-12 -23 -26.5 -42t-22.5 -41v-22q0 -5 5 -14t7 -11l25 -27q4 -5 15.5 -18t18.5 -15l36 -3q7 -1 13 5.5t12.5 14.5t12.5 15t13 7q8 0 13.5 -6.5t5.5 -14.5q0 -9 -5 -15t-12.5 -10.5t-15.5 -7.5t-13 -6q-12 -6 -24.5 -14t-26.5 -8q-15 0 -27 6
t-22 13q-9 6 -26.5 13t-25.5 15q-7 6 -11 12.5t-8 12t-9 8.5t-15 3q-13 0 -19.5 -14t-6.5 -28q0 -19 -1.5 -30.5t-3.5 -20.5t-5 -17t-6 -20v-67q0 -16 -2 -27t-3 -22.5t-0.5 -25t6.5 -35.5q2 -10 6.5 -20t8.5 -19q9 -13 14 -23t9.5 -19.5t11 -20t18.5 -23.5zM553 397l-14 19
q-32 -10 -43.5 -29t-21.5 -44q-3 -8 -3.5 -16.5t-3.5 -16.5q-5 -11 -12 -20.5t-7 -22.5v-45q0 -11 5.5 -20.5t10.5 -17.5q0 -1 1 -2q7 9 10 20t10 19q8 8 14.5 17t9.5 20q3 15 6 31t13 27l18 43zM704 458q0 -20 21 -20q9 0 15.5 5t6.5 13t-5.5 15.5t-16.5 7.5
q-10 0 -15.5 -6.5t-5.5 -14.5z" />
    <glyph glyph-name="oe" unicode="oe" horiz-adv-x="512" 
d="M309 5q-13 6 -25 16t-23 21l-14 16t-19 8q-6 0 -14 -5t-15.5 -11.5t-14.5 -12.5t-11 -9q-1 0 -10 -3.5t-20 -7t-20.5 -6.5t-11.5 -3h-34q-8 0 -15 6.5t-13 9.5q-17 12 -26.5 22.5t-14 22.5t-5.5 27t-1 36v27t1 27q2 8 6 14.5t8 11.5q23 43 55 81q7 9 17.5 14t19.5 11
q5 3 8.5 6t8.5 6q14 8 31.5 15t34.5 7q22 0 42.5 -4.5t37.5 -19.5q2 -2 6 -6.5t6 -6.5q5 -6 10 -19t16 -13h4q4 4 14 14.5t15 14.5q3 5 5 8t7 6q5 5 17 7q9 4 15 7.5t16 3.5h4q1 0 5 -1l8 -2t7.5 -2l3.5 -1q2 0 8 -1.5t9 -1.5q20 -4 33.5 -19.5t13.5 -36.5q0 -15 -6 -27.5
t-14 -23.5q-5 -8 -7 -11.5t-7 -9.5q-10 -11 -20.5 -17t-21.5 -14q-2 -1 -7 -4t-6 -5q-14 -10 -30.5 -10.5t-31.5 -2.5h-3q-11 -7 -21 -14t-10 -23v-7q3 -19 9 -30t16 -17t24 -7.5t31 -1.5h13q1 0 8.5 1.5t9.5 1.5h15q6 0 10.5 4t9 8.5t9.5 8t12 3.5q6 0 10.5 -5t4.5 -12
q0 -5 -5 -10l-8 -8q-2 -2 -10.5 -8t-10.5 -8l-5 -2q-2 0 -9.5 -2t-16 -4t-16 -3.5t-8.5 -2.5q-8 -2 -16.5 -6.5t-16.5 -6.5h-13h-14q-5 0 -17.5 1t-16.5 1zM87 79q1 -2 3 -4l4 -4q2 -3 4 -5l31 -16q2 -1 3 -1h3h1q7 0 15 6t15.5 14.5t13.5 17t11 13.5q9 12 19.5 22.5
t17.5 24.5q10 17 17.5 42.5t7.5 44.5q0 24 -8 44.5t-30 33.5q-8 4 -12.5 6t-11.5 2q-5 0 -9 -1t-7 -2q-2 -1 -7.5 -3.5l-11 -5t-10 -4.5t-5.5 -3q-2 -1 -3 -2l-3 -3l-1 -1q-2 -2 -5 -7.5t-5 -6.5q-13 -17 -26 -34.5t-18 -37.5t-6 -41t-1 -41q0 -12 4 -22.5t8 -21.5zM314 186
q0 -3 0.5 -6t2.5 -8h12q9 0 21.5 3t24.5 8.5t21.5 13.5t13.5 18q2 4 4.5 14.5t2.5 13.5v5q0 22 -12.5 33.5t-32.5 11.5t-23 -7.5t-10 -22.5q-7 -18 -13.5 -35t-11.5 -37v-5z" />
    <glyph glyph-name="uni0434" unicode="de" horiz-adv-x="699" 
d="M4 128q1 4 5.5 14.5t5.5 14.5q5 12 10.5 21t10.5 21q7 14 11.5 22.5t17.5 19.5l8 4t7 4q8 6 14.5 13t16.5 7q5 0 8.5 -2.5t3.5 -8.5q0 -14 -10 -24t-16 -21q0 -1 -2.5 -5t-2.5 -6q-3 -8 -7.5 -14.5t-10.5 -14.5q-9 -21 -9 -46q0 -8 2.5 -21.5t8 -27t13 -24t16.5 -13.5
q5 0 17.5 -0.5t17.5 -0.5h3h2h9q3 0 6 1q1 0 3.5 2t4.5 3q36 26 64 63.5t52 75.5q2 2 2.5 5.5t0.5 6.5q0 9 -3.5 14.5t-8.5 9.5t-11 7.5t-12 8.5l-48 44l-3 1q-2 2 -7.5 3t-7.5 3q-14 11 -15.5 21.5t-7.5 25.5q-5 10 -10.5 19t-10.5 17l-2 3q-5 14 -10.5 35t-5.5 37
q0 28 2.5 53t10.5 53q4 10 12 21t15 19l4 4t6.5 7t7 7.5l4.5 4.5q3 2 11 5.5t17 8t17 8t11 5.5q5 2 11 2.5t14 0.5h13q1 0 4 -1.5t4 -3.5q3 -2 11 -7t16.5 -10.5t16.5 -11t11 -7.5q2 -3 10.5 -11.5l10.5 -10.5q5 -7 7.5 -16.5t5.5 -18.5l2 -3q1 -1 4 -6.5t4 -6.5
q1 -3 3.5 -8.5t5.5 -11.5t5.5 -11.5t3.5 -8.5q1 -11 2.5 -21t1.5 -21v-12q-7 -35 -10 -68.5t-12 -68.5q0 -2 -3.5 -11.5t-4.5 -11.5q-4 -8 -4 -15t-2 -16q0 -2 -3 -11t-3 -11v-6q0 -6 5.5 -11t10.5 -5h38q2 0 4.5 1.5t4.5 3.5q3 2 9 9.5t8 9.5q5 7 8.5 16t9.5 16q1 2 5.5 7
t10 10t9.5 10t6 7q12 11 26.5 19t27.5 19q7 6 14.5 14.5t17.5 8.5h41q3 -1 6 -3q2 -2 4.5 -3t4.5 -2q14 -8 17.5 -24t3.5 -31q0 -26 -19 -46q-2 -1 -7 -4.5t-10.5 -7.5t-10.5 -7.5t-6 -4.5q-5 -4 -10 -4.5t-11 -2.5q-11 -4 -20 -12.5t-21 -11.5q-15 -3 -30.5 -5t-30.5 -6
q-8 -5 -11 -13.5t-3 -17.5t1 -19t7 -18q1 -2 4.5 -6.5t6.5 -9.5t6 -9t3 -5q11 -15 26.5 -18t32.5 -3h13t13 1q8 2 15.5 7t13.5 8q2 0 6.5 2.5t5.5 2.5q7 4 13.5 10t13.5 12t14 10.5t14 4.5q12 0 12 -10q0 -5 -1.5 -7t-3.5 -6q-1 -2 -4.5 -5.5t-7.5 -8t-8 -8.5l-5 -5
q-9 -8 -23 -17t-30 -16.5t-32 -13t-28 -6.5h-31q-1 0 -9.5 -1.5t-9.5 -1.5h-5q-26 0 -38.5 14t-23.5 35q-6 11 -9 19t-3 22q0 11 3 20t3 20t-6.5 19.5t-15.5 14t-20 8t-20 2.5h-12q-11 -3 -19 -11.5t-14.5 -20t-12 -23t-11.5 -20.5q-1 0 -4 -4.5t-7.5 -10.5t-9 -11.5
t-7.5 -8.5q-1 -1 -4 -4.5t-5 -4.5q-3 -2 -8 -7t-10.5 -9.5t-10 -8.5t-5.5 -4q-2 -3 -9 -6.5l-9 -4.5l-65 -22l-9 -1h-47q-1 0 -5.5 -1t-6.5 -1h-1q-7 0 -11 5t-9 8q-11 9 -19.5 18t-13.5 22q-2 4 -6 15.5t-6 16.5q0 1 -0.5 1.5t-0.5 2.5v3v35zM487 216q0 -7 5 -12h15h19.5
t19.5 6q7 6 16 12.5t16.5 14t12.5 17t5 20.5q0 21 -9 28.5t-27 13.5h-1q-11 -5 -21 -12.5t-17 -18.5q-4 -5 -5 -10t-4 -10q-1 -1 -3.5 -5t-5.5 -9t-5.5 -9t-2.5 -5l-5 -10t-3 -11zM243 273q12 -8 21 -17t24 -9q10 0 15 2.5t8 7t5 10.5t7 12q3 5 6.5 10t7.5 11q5 6 6 16t3 18
t5.5 15t4.5 15q4 22 3.5 43.5t1.5 43.5v17q0 25 -8 44t-21 39q-9 13 -23 27t-31 14q-13 0 -29 -3t-27 -11q-15 -16 -25 -30t-17 -35q-12 -33 -12 -67q0 -21 2 -45.5t14 -43.5q9 -13 19 -27t16 -30z" />
    <glyph glyph-name="onethird" unicode="&#x31;&#x2f;&#x33;" horiz-adv-x="703" 
d="M65 220q0 15 4 25.5t10 18.5t12.5 16t10.5 18q4 15 7 30t12 30q8 12 15 27.5t7 29.5q0 11 -4.5 17.5t-10 11.5t-10 10t-4.5 13q0 6 6 11t14 9t16 6.5t13 2.5q12 0 22 -7.5t21 -11.5q14 -6 23 -16.5t9 -24.5q0 -15 -8 -24t-16 -20t-13 -25.5t-13 -28.5q0 -1 -3 -4t-3 -4
q-13 -25 -25.5 -51.5t-12.5 -52.5q0 -6 6.5 -14.5t14.5 -12.5q4 -2 10 -2.5t11.5 -2t9.5 -5t4 -9.5q0 -8 -5.5 -13t-12.5 -7.5t-13.5 -3.5t-7.5 -1h-36q-8 0 -18 4t-19.5 11t-16 15t-6.5 17v18zM266 -319h-5q-1 0 -2 1h1q-15 3 -28 12t-23.5 22t-16.5 27.5t-6 28.5
q0 11 5.5 22t13.5 19.5t18.5 14t20.5 5.5q13 0 20.5 -11.5t7.5 -19.5q0 -17 -8 -28t-8 -22q0 -16 14 -32t28 -16h60q0 -1 2.5 0.5t6.5 4t8 4.5l6 3v-1l1 1q9 6 17.5 11t14.5 7l-1 -1q4 3 11 10t14 15t12 16t5 14l4 43q1 9 -4 18.5t-14 20t-20 23.5t-22 30v-1q-3 3 -3 12
t4.5 13t12 5.5t18 2t21.5 2.5q8 1 22 7.5t28.5 17t27 24t16.5 29.5q1 8 1 16.5v16.5q0 23 -3 38.5t-20 30.5h1q-5 3 -14 6t-17 3h-58q-9 0 -16 -3t-13 -6.5t-11 -6.5t-11 -3q-12 0 -17.5 9t-5.5 20q0 16 10 24.5t23 13.5l7 3v-1q2 1 11.5 4t21 6t21 5t11.5 2l61 -10
q1 0 7.5 -2t15 -5.5t17.5 -8t17 -9.5q12 -8 24 -22.5t12 -27.5l-1 -46q0 -1 -0.5 -2t-0.5 -2v-2l-12 -26q-5 -11 -18.5 -20t-18.5 -19h1l-7 -13q-2 -5 -4.5 -9t-7.5 -9l-23 -23l-7 -2h2q-11 -5 -19.5 -11t-8.5 -18t5.5 -20t12 -15.5t12 -15t5.5 -18.5v-39q0 -10 -6.5 -19.5
t-14.5 -18.5t-16 -16t-12 -12v-3v1q-2 -2 -2 -3q-7 -14 -17 -23t-19 -14v1l-25 -20h1q-2 -2 -8 -5t-10 -3h-30q-9 -1 -15.5 -4t-12 -6.5t-11.5 -6t-15 -2.5q-13 0 -24 4.5t-23 12.5h-5zM140 -38q-1 -2 -2 -3q-2 -3 -9 -14.5t-8 -15.5q-1 -3 -2 -5q-5 -5 -12 -10.5t-12 -6.5
l-19 1l-10 3v2q-4 15 12 33q5 7 11 12l12 10q2 2 8 9.5t8 9.5q12 14 23 28t21 30l134 158q7 3 13 10q7 8 10.5 15.5t8.5 15.5q5 7 7.5 9.5t8.5 9.5q3 4 9 11.5t12 16t11.5 16t8.5 11.5l3 3q2 2 5 9t5 9q4 7 4.5 12.5t5.5 10.5q2 2 3.5 2.5t3.5 2.5q4 4 12 9q4 3 9 5l2 1h7
q3 0 6.5 0.5t5.5 0.5q3 1 6.5 -0.5t6.5 -2.5l4.5 -4.5t3.5 -7.5q0 -5 -0.5 -11t-5.5 -12l-147 -183l-5 -3q-1 -1 -4.5 -5l-7 -8t-7.5 -8l-5 -5q-11 -11 -22.5 -18.5t-19.5 -18.5q-7 -6 -8 -10.5t-6 -12.5l-11 -11q0 -2 -4 -8t-6 -8q0 -1 -3.5 -6.5t-4.5 -6.5q-4 -6 -6.5 -11
t-5.5 -9q-13 -15 -28 -24.5t-26 -22.5z" />
    <glyph glyph-name="uniE007" unicode="pp" horiz-adv-x="774" 
d="M-112 -457l4 10q-14 4 -28 9.5t-28 12.5q-1 2 -10 7t-13 7q-2 0 -3 1l-2 2l-34 30q-6 5 -12 9.5t-8 12.5q-4 15 -6 29.5t-2 29.5q0 9 1 24.5t5 23.5q3 6 10 14t15 15.5t16.5 12.5t15.5 5t12 -2.5t10 -3.5q11 -4 24 -12t13 -22q0 -8 -6 -15t-14 -7q-4 0 -8 1t-9 1
q-19 0 -29.5 -15t-18.5 -29q-3 -4 -3.5 -7.5t-0.5 -7.5q0 -13 7 -22.5t17 -16.5t22 -12.5t21 -10.5q8 -4 14.5 -10t12.5 -11q11 -7 24 -10q0 6 1.5 11.5t8.5 19.5l7 15q2 5 3 10.5t1 10.5q0 18 3.5 35t8 33t8.5 30.5t4 28.5q1 4 4 9.5t7 10t7 8.5t3 5q5 21 8 33t8 28l7 29
l4 20t5 18l6 15q2 5 3.5 9.5t2.5 9.5l3 22q2 15 6 32t10 30l11 21q7 10 10 23t4.5 27t3.5 28t8 27l8 16q8 16 15.5 32.5t7.5 33.5q0 10 -7.5 17t-18.5 7h-4l-21 -22q-3 -2 -8.5 -4t-8.5 -2q-8 0 -13.5 3t-5.5 13t7 15t16 7t18 3t14 4v-1l19 18q11 11 27.5 23.5t31.5 12.5
q11 0 17.5 -7t6.5 -18q0 -18 -8.5 -27.5t-8.5 -19.5l-10 -62l-12 -35q0 -5 -1.5 -14t-3 -19t-2.5 -19t-2 -12q-1 -1 -1 -3q-1 -1 -1 -3v-1v-11q0 -16 7 -27.5t16 -23.5l2 -4v1q7 -10 12.5 -15t17.5 -5q28 0 49 19t35 42l8 20q4 9 8.5 24.5l9 31t8 27.5t3.5 15l-2 15v-1
q-4 14 -9.5 30t-19.5 21q-8 0 -17.5 8t-9.5 19q0 14 13 26.5t28 12.5q12 -3 25 -7.5t23.5 -12t18 -18.5t8.5 -26v-16h1q20 5 37.5 13t34.5 21q7 5 11.5 12.5t10.5 13.5q5 5 12 6.5t13 5.5q2 2 11.5 8t12.5 6q2 0 13 0.5t13 0.5t5.5 2t5.5 2h5q8 0 12 -8t4 -16
q0 -14 -8 -28.5t-12 -28.5q-2 -10 -3 -19t-4 -19q-2 -14 -11 -26t-10 -26q-2 -11 -2 -18v-18t2 -23.5t8 -23.5q7 -12 11.5 -22.5t10 -19t14.5 -13.5t26 -5q9 0 20.5 0.5t18.5 8.5l43 45q1 1 8 11.5t9 15.5q0 1 3.5 7.5t4.5 10.5q0 2 1 3q0 1 1 2q4 20 8.5 38.5t4.5 38.5v27
t-8 25q-4 4 -10.5 9.5t-12.5 11t-10.5 11.5t-4.5 13q0 12 8 17l18 14q8 5 18.5 5h20.5q14 0 23.5 -11.5t14.5 -22.5q1 -3 2 -10t2 -15.5t1.5 -16t0.5 -10.5v-17q0 -16 -1 -34t-8 -33q-2 -6 -7 -13t-6 -14q0 -1 -2 -7t-2 -8q-2 -11 -8.5 -18.5t-12.5 -16.5q-14 -18 -29.5 -37
t-33.5 -35t-39.5 -26.5t-45.5 -10.5q-9 0 -17.5 3.5t-16 7.5t-16 7.5t-17.5 3.5q-8 0 -15.5 -5t-9.5 -13l-19 -62q-2 -8 -8 -13t-8 -13q-4 -10 -6 -20.5t-6 -20.5l-3 -6q-11 -14 -18 -29t-16 -29q-1 -3 -4.5 -8.5t-8 -12t-8 -12t-4.5 -7.5q0 -2 -5 -7q-13 -15 -23.5 -31
t-23.5 -31t-28.5 -25.5t-30.5 -23.5q-14 -13 -27 -24t-30 -21q-10 -6 -21.5 -9t-21.5 -9q-11 -7 -19.5 -14t-19.5 -13q-8 -4 -14 -5.5l-14 -3.5q-30 -7 -60.5 -9t-59.5 -2q-2 -15 -10 -26t-26 -11q-4 0 -9 0.5t-8 3.5l-19 20q-3 3 -3 9v3zM348 228q0 -24 -3 -38.5t-7 -24.5
t-8 -18t-6 -18l-9 -25q-1 -2 -2.5 -4t-2.5 -4l-16 -17h1l-13 -15l-18 -22t-21 -21l-17 -8q-17 -8 -37 -11t-41 -2h-17l-16 7q-7 3 -13 5.5t-11 2.5q-13 0 -20 -14t-10.5 -34.5t-6.5 -43t-7 -39.5l-6 -14l-11 -21q-5 -8 -9.5 -22t-3.5 -31l-2 -8q-9 -31 -10.5 -46t-3.5 -31
l-3 -8q-8 -22 -12 -43.5t-11 -39.5v1l-4 -12l-4 -12q0 -2 -0.5 -4t-0.5 -4h6q15 0 31 -1t31 -1q17 0 33 6t32 13q17 11 39 16.5t35 16.5l4.5 4.5t8 7.5t8 7.5l4.5 4.5q13 11 30.5 21t25.5 27q0 2 2.5 8t2.5 7q1 3 6 10.5t7 9.5q1 2 5 7t8.5 10l9 10t6.5 7l6 13q4 7 9.5 12
t10.5 10q14 14 21 32.5t10 38.5q0 2 2.5 9t5.5 14.5t6 14t4 9.5q2 1 7 11l6 12l2 3q0 17 0.5 32t9.5 29q19 32 24 67t13 70q2 11 5.5 16.5t7.5 15.5q0 2 2 5t2 5q0 3 1.5 9.5t3 13.5t3 13.5t2.5 8.5v7q0 8 -5 15.5t-14 7.5q-15 0 -25 -11.5t-22 -19.5q-8 -7 -21 -11t-24 -4
h-6z" />
    <glyph glyph-name="uniEEDA" unicode="tt" horiz-adv-x="466" 
d="M259 -11q-9 6 -13 14.5t-7.5 17.5t-7.5 18t-12 15h-6q-16 0 -27 -7.5t-23 -15.5q-1 0 -1.5 -0.5t-1.5 -0.5h-1h-7q-4 -1 -6 -4.5t-6 -3.5h-17q-16 -2 -30 -6.5t-29 -4.5q-13 0 -22 3.5t-20 8.5q-17 9 -17 34q0 28 5.5 53t20.5 50q7 13 13 24t10 25q1 8 0.5 12.5t1.5 9.5
q8 20 12.5 40t4.5 43q0 8 -1.5 14.5t-1.5 14.5q0 11 6.5 17.5t14.5 12l16 11t10 14.5l11 41q3 5 4 11.5t3 11.5q5 17 17.5 24t26.5 14h5q7 0 11.5 -5t4.5 -13q0 -14 -7.5 -23.5t-12.5 -20.5q-4 -11 -7.5 -23t-3.5 -24q0 -17 10.5 -29t27.5 -12q8 0 14.5 3.5t14.5 3.5t14 -1
t12 -1q10 0 22 1t20 9l32 34l8 18q3 8 6.5 16t5.5 13q7 14 12.5 23t21.5 9q11 0 17.5 -3.5t6.5 -16.5v-8q-6 -14 -10.5 -25t-4.5 -26q0 -10 2.5 -17.5t12.5 -11.5h20q13 0 24.5 1.5t22.5 1.5t24.5 -6t13.5 -20q0 -8 -5 -12t-13 -5q-15 1 -25 -1.5t-24 -2.5t-27 4t-27 4
q-8 0 -17 -11t-16.5 -25t-13 -27.5t-6.5 -18.5q0 -2 -1 -7.5t-1 -7.5q-1 0 -1 -1v-4q-2 -2 -6 -13.5t-5 -13.5t-2.5 -7.5t-3 -11.5t-2.5 -12t-1 -7t-2.5 -5t-4.5 -9t-4.5 -9t-2.5 -5q-5 -11 -5 -27q0 -9 1 -20.5t5 -22t10.5 -17.5t17.5 -7q18 0 38 8t37 16q4 1 7.5 3t8.5 2
q6 0 8.5 -5t2.5 -11q0 -7 -1.5 -10.5t-7.5 -8.5q-8 -7 -18.5 -8t-21.5 -4q-11 -6 -21.5 -12.5t-20.5 -13.5q-8 -5 -15.5 -10.5t-15.5 -8.5h-10q-13 0 -25 1t-23 6zM80 114q0 -24 15 -40.5t38 -16.5q11 0 22 6.5t19 10.5q27 12 43.5 27.5t27.5 33.5t20 39.5t20 46.5
q2 8 2.5 14t0.5 13v25t-2 27q-4 11 -12 21t-20 10h-2q-2 0 -11 -1.5t-10 -1.5q-9 -2 -20 -2h-19h-8q-1 0 -5.5 1t-5.5 1q-12 0 -19.5 -7t-13 -17.5t-9.5 -22t-9 -19.5t-13 -17.5t-10 -20.5v-7.5v-12.5t-0.5 -12.5t-1.5 -7.5q-2 -18 -9.5 -34.5t-7.5 -35.5z" />
    <glyph glyph-name="uniF010" unicode="bd" horiz-adv-x="727" 
d="M365 121q0 39 19 71.5t40 63.5q10 15 17.5 24.5t22.5 20.5q4 2 6.5 4.5t5.5 4.5q5 0 16 2.5t14 2.5q12 2 21.5 8.5t18.5 13.5t18.5 12.5t21.5 5.5q8 0 15.5 -3t7.5 -14t-7 -17.5t-17 -10t-20.5 -5t-17.5 -4.5q-11 -2 -23 -10t-21 -13l-5 -3q-22 -22 -42.5 -50t-20.5 -60
v-12q1 -3 3 -10t4 -15.5t4 -16t2 -10.5q4 -15 13.5 -28.5t26.5 -13.5q16 0 34 11t34 27.5t28.5 34t18.5 31.5q7 16 11 31.5t9 29.5q2 10 9.5 17t7.5 15v20q1 18 4.5 37.5t6.5 34.5v34v33t-1 33q0 2 -1 6t-1 6t-2.5 12t-2.5 11t-0.5 6t-0.5 10t-0.5 10t-0.5 6q-1 11 -6 20
t-7 19q-7 23 -13.5 43.5t-21.5 39.5q-15 18 -27.5 34.5t-27 29t-31.5 22t-41 14.5q-2 0 -11.5 4t-19.5 8q3 -8 3 -14q0 -14 -4 -30.5t-6 -28.5q-5 -21 -16.5 -31.5t-25.5 -27.5q-12 -17 -24.5 -33.5t-27.5 -32.5q-8 -10 -18 -17.5t-18 -17.5q-2 -1 -5.5 -5t-7.5 -9l-8 -10
t-5 -6q-4 -3 -6.5 -5t-5.5 -5q-7 -4 -14 -6t-14 -6q-12 -4 -24 -13t-24 -11l-30 -29l-2 -2q-1 -1 -1 -2v-1q-1 -2 -4 -12.5t-5 -12.5q0 -1 -4.5 -7.5t-4.5 -7.5l-10 -38q-1 -3 -6 -12t-7 -11q-2 -6 -2.5 -14.5t-2.5 -14.5q-3 -10 -7 -18t-6 -18q-1 -3 -3 -12t-4 -18.5
t-4 -18.5t-2 -12q-7 -17 -8 -34t-1 -35v-14q4 -13 13 -27t23 -14q11 0 23 6t22.5 14.5t20 18l16.5 16.5q5 6 7.5 12.5t6.5 12.5q12 14 27 26.5t15 33.5q0 11 -7 21.5t-14 20.5l-5 9q-2 5 -2.5 9t-3.5 8q-5 9 -14.5 14.5t-9.5 16.5q0 12 12 21.5t28 16t32 10t25 3.5
q20 0 32 -17.5t12 -36.5v-15l-9 -53q-7 -27 -26 -49t-34 -42q-14 -17 -25.5 -33.5t-27.5 -31.5q-8 -8 -17 -11.5t-18 -8.5q-13 -7 -24.5 -17.5t-25.5 -15.5q-12 -4 -24 -9t-25 -5q-8 0 -13.5 3t-11.5 8q-14 11 -22 19t-12.5 17t-5.5 20.5t-1 28.5v16.5t2 19.5q5 25 13 47.5
t19 44.5v34q1 5 3 9q4 10 6 13q5 12 8.5 22t8.5 21q3 11 7 18t4 17q0 7 -4.5 12t-12.5 5q-5 0 -8.5 -4.5t-8.5 -6.5q-3 -1 -10 -4.5t-10 -5.5h-2q-6 0 -7.5 2t-1.5 7q0 6 4 9.5t10 6t12 4t11 3.5l9 9t9 8q8 5 16.5 9t13.5 12q5 7 6.5 13t4.5 13q4 9 8 16.5t7 15.5
q9 23 17.5 45t22.5 42l8 33q0 2 2 4l4 4q6 11 13.5 20.5t14.5 19.5q2 3 2 7.5t2 7.5q0 4 1 5q0 1 1 2q0 1 4 5t4 6q13 19 26.5 37.5t29.5 34.5q2 2 8.5 6t9.5 5q8 6 17 13t19 14t21 11.5t22 4.5q6 0 13 -4t14 -9h14h10q13 0 26.5 -4.5t26.5 -10.5l26 -12t27 -9
q18 -9 37.5 -22.5t35.5 -25.5l3 -4q15 -19 32 -36t30 -37l22 -50q5 -11 9.5 -22.5t6.5 -22.5q0 -2 2 -12.5t2 -12.5q0 -1 0.5 -7t0.5 -12.5t0.5 -13t0.5 -7.5q1 -20 5.5 -40t4.5 -40v-6q-8 -25 -12.5 -52.5t-3.5 -53.5l-22 -75q-8 -13 -13 -24.5t-13 -24.5q-5 -8 -8.5 -17.5
t-9.5 -18.5q-14 -16 -30.5 -33t-34.5 -32.5t-37.5 -27.5t-41.5 -16q-3 -1 -14 -3.5t-16 -2.5q-10 0 -19 3t-17 5q-13 5 -22.5 9.5t-16.5 10.5t-11.5 15t-7.5 23q-1 3 -2 8.5l-2 11t-2 10.5t-1 6v11zM185 485q0 -1 3 -3t5 -2h9q12 0 17 2t8 6t6 9t11 11q11 10 22 18t20 20
q7 7 10.5 17t9.5 18q9 13 19 24t18 25q8 15 19.5 35.5t11.5 36.5q0 17 -10 31t-27 14q-14 0 -24 -7.5t-18 -18.5t-14.5 -23.5t-12.5 -22.5q-4 -8 -9 -14.5t-10 -13.5q-14 -23 -27 -48t-22 -51q-4 -9 -8 -15t-6 -17q0 -1 -0.5 -8.5t-0.5 -13.5v-9z" />
    <glyph glyph-name="uniF018" unicode="si" horiz-adv-x="523" 
d="M319 56q0 20 6.5 38.5t15.5 36.5q5 11 8.5 15t7.5 15q0 2 2.5 8.5t2.5 8.5q5 12 9 16l7 7t4.5 8t1.5 19q0 7 -8.5 9.5t-7.5 2.5q-7 0 -13 -9.5t-12.5 -20.5t-14 -20.5t-16.5 -9.5q-2 -2 -4.5 -5t-9 -9t-18.5 -15l-32 -24q-8 -5 -19.5 -19.5t-17.5 -22.5q-2 -3 -6 -8.5
t-9 -11.5t-9.5 -11t-6.5 -8l-12 -9q-3 -4 -14 -14.5t-15 -14.5q-10 -6 -23.5 -6.5t-24.5 -3.5q-5 -1 -21 -4t-21 -5h-3q-21 0 -36.5 18.5t-15.5 38.5q0 9 3 16t6 15q5 12 15 24.5t23 15.5q20 5 39 5q8 0 13 -1.5t11 -3.5l5 2q19 2 29.5 6t16.5 11.5t9 20t6 32.5q2 14 7 28.5
t5 28.5q0 8 -5.5 14t-14.5 6q-5 0 -11 -4t-12.5 -9t-12 -10t-9.5 -7q-2 0 -8 -3.5t-11 -4.5q-8 -4 -18 -8t-19 -4q-3 0 -6.5 1.5t-5.5 5.5v6q0 13 10.5 22t20.5 12q2 0 9 1t9 1q6 1 12.5 5t14.5 4h1q1 -1 3 -1h4h2q1 0 1.5 0.5t1.5 0.5q7 4 21 10t15 8q13 8 24.5 17.5
t22.5 19.5l5.5 5.5l9.5 9.5l9 9l5 5q3 4 7.5 5t9.5 1q14 0 14 -16q0 -13 -8 -27.5t-14 -23.5q-1 -3 -3.5 -9t-4.5 -13.5t-4 -13.5l-3 -9q-2 -2 -2.5 -6.5t-0.5 -6.5v-69q0 -6 7 -2.5t11 3.5q7 0 13.5 5.5t12.5 13t11.5 14.5t11.5 11q2 4 9 7q2 0 11 11t20 24.5t20 25
t11 12.5q5 3 8 10.5t6 15.5t6.5 15t8.5 9q14 8 31 15t34 7q26 0 26 -25q0 -15 -10 -27.5t-15 -26.5t-11.5 -25.5t-11.5 -25.5q-2 -6 -4 -15.5t-6 -15.5q0 -2 -2.5 -6t-5 -9t-4.5 -9.5t-3 -5.5q0 -2 -1.5 -7.5t-1.5 -7.5q-5 -17 -12.5 -33.5t-7.5 -33.5q0 -11 3 -20.5
t16 -9.5q12 0 21.5 7t18.5 15t18.5 15t21.5 7q13 0 13 -14q0 -7 -3 -11.5t-6 -8.5q-3 -2 -7.5 -5.5t-9 -7.5t-8 -7l-3.5 -3q-8 -6 -23.5 -15t-33 -17t-34.5 -13.5t-28 -5.5h-10q-15 11 -22.5 24t-7.5 32zM518 649q0 6 0.5 12t5.5 11q9 10 20 20.5t25 10.5q23 0 42 -16.5
t19 -39.5q0 -21 -15 -36t-35 -15h-9q-2 0 -13.5 3.5t-16.5 4.5q-13 4 -18 19t-5 26zM57 54q0 -22 25 -22q12 0 25.5 4.5t24.5 12.5t18.5 19.5t7.5 25.5q0 7 -10.5 8.5t-15.5 1.5q-15 0 -19.5 -2t-14.5 -9q-11 -6 -26 -14.5t-15 -24.5z" />
    <glyph glyph-name="uniF024" unicode="ssi" horiz-adv-x="676" 
d="M454 50q0 20 6.5 38.5t15.5 36.5q5 11 8.5 15t7.5 15q0 2 2.5 8.5t2.5 8.5q5 12 8.5 15.5t6 5.5t3.5 6t1 18v18t-1 1l-3 -6t-5 -4q-8 0 -14 -4t-13 -9q-2 -8 -8 -8q-2 0 -9 -6t-16 -12.5t-16.5 -12.5t-8.5 -6q-10 -2 -16 -11t-10 -21t-7.5 -24t-7.5 -19
q-11 -20 -29.5 -35.5t-33.5 -31.5q-8 -4 -16 -6.5t-17 -6.5q-11 -4 -24 -8.5t-27 -4.5q-10 0 -16 6.5t-9 15.5t-4 19t-1 17v13l1 4l20 31l2 2l3 3q15 12 25.5 17.5t28.5 8.5q6 1 9.5 8t7.5 10q5 4 11 6t12 6q13 11 17 32.5t4 38.5q0 4 -2.5 10.5t-6.5 12.5t-9.5 10t-10.5 4
q-15 0 -30.5 -14.5t-26.5 -23.5q-5 -5 -11.5 -6t-11.5 -5q-11 -8 -20 -20.5t-11 -24.5l-11 -70q0 -2 -1.5 -8t-4.5 -8l-68 -68q-4 -3 -8.5 -4t-8.5 -2q-1 0 -1.5 -0.5t-1.5 -0.5l-1 -1q-11 -5 -21 -7t-22 -2h-13q-19 5 -30.5 19.5t-11.5 34.5q0 22 14 37t28 29q4 4 9.5 7
t10.5 3t9.5 -3t4.5 -8q0 -6 -4 -11.5t-9 -11t-9 -12t-4 -13.5q0 -6 2.5 -13t7 -13t10.5 -10.5t12 -4.5q9 0 14.5 3.5t14.5 8.5q6 3 7.5 6.5t6.5 10.5q1 1 3.5 4t5.5 7t6 7.5t3 4.5q4 6 4.5 17t0.5 18q0 11 -4 19.5t-4 17.5q0 8 7 13.5t8 13.5q0 3 1 11.5t2 18.5t2 18.5
t1 12.5v27q-3 10 -14 10q-4 0 -8.5 -1t-7.5 -3q-16 -17 -34 -30t-35 -27l-34 -32q-4 -3 -6 -3.5t-6 -0.5q-7 0 -12 3.5t-5 11.5q0 11 11.5 17t17.5 14q3 2 14.5 7.5t14.5 7.5q11 7 17 11t16 12q3 2 6 6.5t7 6.5q19 9 37 19.5t30 29.5q5 7 9 17.5t14 10.5t13.5 -9.5
t3.5 -16.5q0 -8 -1.5 -14.5t-1.5 -14.5q0 -5 0.5 -15.5t2.5 -21.5t6 -19.5t11 -8.5q4 0 8 2.5t6 4.5l22 11q4 2 11.5 10t9.5 11q4 3 12 4t15 7q5 4 12.5 11t14.5 13.5t12.5 11.5t6.5 5l27 33q5 6 12 13t18 7q5 0 9.5 -3.5t4.5 -9.5q0 -2 -1.5 -5.5t-1.5 -4.5q-2 -3 -6 -10
t-9.5 -15.5t-10 -15.5t-5.5 -10q-5 -7 -6 -16.5t-1 -18.5v-8l8 -59q1 -8 4 -7t11 1q2 0 12.5 6.5t20.5 11.5q2 8 13.5 12.5t18.5 7.5q4 1 10 8.5t10 9.5q5 3 11 14t12.5 24t12.5 24t11 13q14 8 31 15t34 7q26 0 26 -25q0 -15 -10 -27.5t-15 -26.5t-11.5 -25.5t-11.5 -25.5
q-2 -6 -4 -15.5t-6 -15.5q0 -2 -2.5 -6t-5 -9t-4.5 -9.5t-3 -5.5q0 -2 -1.5 -7.5t-1.5 -7.5q-5 -17 -12.5 -33.5t-7.5 -33.5q0 -11 3 -20.5t16 -9.5q12 0 21.5 7t18.5 15t18.5 15t21.5 7q13 0 13 -14q0 -7 -3 -11.5t-6 -8.5q-3 -2 -7.5 -5.5t-9 -7.5t-8 -7l-3.5 -3
q-8 -6 -23.5 -15t-33 -17t-34.5 -13.5t-28 -5.5h-10q-15 11 -22.5 24t-7.5 32zM673 643q0 6 0.5 12t5.5 11q9 10 20 20.5t25 10.5q23 0 42 -16.5t19 -39.5q0 -21 -15 -36t-35 -15h-9q-2 0 -13.5 3.5t-16.5 4.5q-13 4 -18 19t-5 26zM245 69q0 -11 5.5 -19.5t16.5 -8.5t21 8.5
t18 13.5q14 9 22 20.5t8 28.5q0 16 -15 21h-10q-11 0 -17.5 -3t-15.5 -8q-17 -10 -25 -21.5t-8 -31.5z" />
    <glyph glyph-name="uniF142" unicode="ss" horiz-adv-x="448" 
d="M204 71l1 4l20 31l2 2l3 3q15 12 25.5 17.5t28.5 8.5q6 1 9.5 8t7.5 10q5 4 11 6t12 6q13 11 17 32.5t4 38.5q0 4 -2.5 10.5t-6.5 12.5t-9.5 10t-10.5 4q-15 0 -30.5 -14.5t-26.5 -23.5q-5 -5 -11.5 -6t-11.5 -5q-11 -8 -20 -20.5t-11 -24.5l-11 -70q0 -2 -1.5 -8
t-4.5 -8l-68 -68q-4 -3 -8.5 -4t-8.5 -2q-1 0 -1.5 -0.5t-1.5 -0.5l-1 -1q-11 -5 -21 -7t-22 -2h-13q-19 5 -30.5 19.5t-11.5 34.5q0 22 14 37t28 29q4 4 9.5 7t10.5 3t9.5 -3t4.5 -8q0 -6 -4 -11.5t-9 -11t-9 -12t-4 -13.5q0 -6 2.5 -13t7 -13t10.5 -10.5t12 -4.5
q9 0 14.5 3.5t14.5 8.5q6 3 7.5 6.5t6.5 10.5q1 1 3.5 4t5.5 7t6 7.5t3 4.5q4 6 4.5 17t0.5 18q0 11 -4 19.5t-4 17.5q0 8 7 13.5t8 13.5q0 3 1 11.5t2 18.5t2 18.5t1 12.5v13v14q-3 10 -14 10q-4 0 -8.5 -1t-7.5 -3q-16 -17 -34 -30t-35 -27q-4 -4 -16.5 -16t-17.5 -16
q-4 -3 -6 -3.5t-6 -0.5q-7 0 -12 3.5t-5 11.5q0 11 11.5 17t17.5 14q3 2 14.5 7.5t14.5 7.5q11 7 17 11t16 12q3 2 6 6.5t7 6.5q19 9 37 19.5t30 29.5q5 7 9 17.5t14 10.5t13.5 -9.5t3.5 -16.5q0 -8 -1.5 -14.5t-1.5 -14.5q0 -5 0.5 -15.5t2.5 -21.5t6 -19.5t11 -8.5
q4 0 8 2.5t6 4.5t11.5 6t10.5 5q4 2 11.5 10t9.5 11q4 3 12 4t15 7q5 4 12.5 11t14.5 13.5t12.5 11.5t6.5 5q1 1 5 6t8.5 10.5t8.5 10.5t5 6q5 6 12 13t18 7q5 0 9.5 -3.5t4.5 -9.5q0 -2 -1.5 -5.5t-1.5 -4.5q-2 -3 -6 -10t-9.5 -15.5t-10 -15.5t-5.5 -10q-5 -7 -6 -16.5
t-1 -18.5v-8l8 -59q2 -17 18 -17q2 0 7.5 1t12 1.5t12.5 1.5t9 1q7 0 14.5 -4t7.5 -12q0 -4 -2 -7.5t-7 -4.5q-2 0 -8.5 -1t-14.5 -2t-15 -2t-8 -1q-10 -2 -16 -11t-10 -21t-7.5 -24t-7.5 -19q-11 -20 -29.5 -35.5t-33.5 -31.5q-8 -4 -16 -6.5t-17 -6.5q-11 -4 -24 -8.5
t-27 -4.5q-10 0 -16 6.5t-9 15.5t-4 19t-1 17v13zM245 69q0 -11 5.5 -19.5t16.5 -8.5t21 8.5t18 13.5q14 9 22 20.5t8 28.5q0 16 -15 21h-10q-11 0 -17.5 -3t-15.5 -8q-17 -10 -25 -21.5t-8 -31.5z" />
    <glyph glyph-name="uniFB00" unicode="ff" horiz-adv-x="418" 
d="M108 -403v3t1 4l2 4q0 1 0.5 7t1.5 13l3 20q1 8 6 16.5t5 10.5l5 7q3 8 2.5 20t2.5 20l6 17q3 6 4 10l8 30q2 22 8.5 33t8.5 27l4 30l11 26q6 14 5.5 33t3.5 27l3 5q4 8 6.5 24.5t16.5 34.5q7 19 5.5 35t4.5 22l6 8h-1l3 9v14q0 2 -0.5 5t-0.5 5v10q-1 5 -1 11v10
q0 8 4.5 14.5t9.5 12.5l13 13h-1q8 13 13 32v-1q0 2 1.5 7.5t2.5 8.5l6 17q5 13 8.5 26t3.5 27q0 11 -5 18h-4q-16 0 -31 -4h-21q-14 0 -28.5 1.5t-28.5 1.5h-14q-2 0 -5.5 -3t-3.5 -4l-26 -29v1l-3 -44q-4 -17 -14 -35t-10 -32v-17q-2 -15 -5 -28t-8 -25q0 -1 -1 -2.5
t-1 -2.5q-5 -14 -9 -28t-4 -27q0 -3 5 -3q9 5 20 12.5t22 15.5l2 -3q3 3 8 9t11.5 11.5t14 10t15.5 4.5q5 0 9 -1.5t4 -11.5q0 -9 -3 -13.5t-8 -7.5l-4 -2h1l-6 -4v1l-13 -10l-88 -55q-6 -4 -10.5 -17.5t-7 -30.5t-4 -34t-1.5 -26v-5q0 -16 -7 -25t-9 -14v1q0 -2 -1.5 -2.5
t-1.5 -8.5l-2 -6q-1 -1 -3.5 -13.5t-3.5 -13.5q0 -16 -7.5 -26t-7.5 -15l-15 -43l-6 -6q-2 -2 -3 -4l-2 -4l-18 -26q-13 -19 -18.5 -25.5t-10.5 -9t-12.5 -6t-23.5 -17.5l1 1h-1q-3 0 -11.5 -8t-17.5 -11l-7 -5q-8 -5 -18 -10t-20 -5q-26 0 -47.5 16.5t-21.5 46.5v6.5t1 7.5
l10 42q4 31 14.5 48t22.5 34l8 11l13 19q2 2 6 6.5t6 8.5l26 27h-1q17 21 34.5 37t34.5 30l6 5q2 2 4.5 3t3.5 3v-1q8 7 16 10.5t14 7.5q3 0 5 2q1 1 2 1q11 6 21 12t15 12q4 6 6 17.5t2.5 24.5t1 24.5t1.5 17.5l6 17q3 9 6 20t5 18q4 14 4 30.5t7 30.5v-1q0 4 3.5 9.5
t4.5 11.5q0 28 6.5 48.5t16.5 37.5l6 9q3 5 5.5 9t2.5 6v6.5t-1 4.5l-30 -1l-3 -2q-2 -1 -5.5 -2t-2.5 -1q-8 0 -16 7.5t-8 18.5q0 8 5 13t11 5q4 0 9 -2.5t9 -5.5q7 0 15.5 1t14.5 1q14 32 20 54.5t15 42.5q0 7 5 13t5 18q0 9 6.5 14t6.5 15v6q0 9 3.5 21t9 24t11.5 22.5
t12 17.5l20 47q1 7 9 21.5t19 23.5h-1q6 8 18.5 20.5t25.5 24.5v1q8 6 12 12l7 6h-1q14 18 27.5 30t29.5 15l12 5h-1q5 3 12.5 5.5t15.5 2.5q7 0 16 -1t16.5 -4.5t12.5 -10.5t5 -18q0 -6 -3 -14.5t-6 -16.5l-3 -8q-3 -9 -6 -17t-3 -13q0 -6 4 -7h-1q6 -2 6 -5
q0 -5 -3.5 -8.5t-8 -7.5t-8 -9t-3.5 -12q-11 -14 -21 -27t-18 -30l-2 1q0 -6 -5 -14l-15 -20l-7 -2q-14 -14 -22.5 -20.5t-14 -9.5t-9.5 -5t-9 -7l-23 -23l-11 -11t-8 -7l-10 -5h-27q-6 0 -8.5 -6t-4 -14.5t-3 -16t-4.5 -10.5l-3 -13q0 -11 -3.5 -21.5t-3.5 -20.5
q0 -8 4.5 -15t12.5 -7h32q8 0 15 0.5t12 0.5h9q3 1 7.5 1h8.5q6 0 12.5 -2.5t18.5 -2.5q14 0 23 17.5t15 33.5l3 7q7 8 13.5 20.5t11.5 22.5l7 16l11 16q0 2 1 4v-1q0 11 5 23.5t12 24t13.5 21.5t8.5 17l6 17q0 -1 2 3l5 10t7 12.5t9 11.5l27 34q11 16 25 33.5t29 35.5
l11 13q10 11 17 13.5t15 4.5l7 2q13 3 27 10.5t34 7.5q21 0 38 -7t24 -33v-35q0 -21 -8.5 -34t-21.5 -28l-9 -11l-10 -18q-1 -1 -1 -3q0 -1 -1 -2q-12 -21 -16 -25.5t-9 -7.5v1l-5 -4q-22 -22 -47.5 -43t-48.5 -32q-9 0 -10.5 -2t-4 -5t-9.5 -5t-26 -2h-9q-6 -2 -16 -6.5
t-14 -6.5q-6 -6 -14.5 -19.5t-16.5 -28.5t-13.5 -29.5t-6.5 -21.5q0 -9 7.5 -15.5t15.5 -6.5q9 0 20.5 7t27.5 7q8 0 19 -3t11 -17q0 -11 -12 -20v1l-6 -6q-4 -4 -11 -4q-13 0 -24 3.5t-21 13.5v-1q-1 1 -3 1h-3q-21 -5 -32 -11t-16.5 -13.5t-7.5 -17t-5 -21.5
q0 -7 -5.5 -17t-5.5 -12l-2 -6q-4 -9 -4 -14v-5q-1 -7 -1.5 -12.5t-2.5 -9.5l-4 2q-3 -9 -3 -10v-1q1 0 3 4l-3 -6q-4 -5 -6 -12v1l-3 -17q-2 -11 -2 -16.5t-2 -7.5q-8 -17 -12.5 -32t-5.5 -36q-8 -16 -15.5 -34.5t-10.5 -35.5l-3 -19l-3.5 -24.5t-2.5 -13.5h1l-3 -12
q-3 -11 -5.5 -19.5t-5.5 -15.5l-10 -27q-1 -1 -1 -5v-6l-20 -59q-7 -15 -10 -25t-5 -18l-3 -12v-19q0 -5 -0.5 -9t-0.5 -7v-6v-3.5t-1 -4.5v1q-1 -5 -4 -22t-10 -27q0 -7 0.5 -11t0.5 -3q-2 -5 -3.5 -7.5t-2 -5t-1 -6t-0.5 -11.5q0 -11 -5.5 -17t-13 -8.5t-16 -3t-13.5 -0.5
q-9 0 -16 6t-7 15v5zM-180 -301v-15t2 -17.5t5.5 -14.5t11.5 -6q18 0 40 12.5t35 23.5h-1l18 19q2 2 3.5 4.5t1.5 4.5l7 10h-1q4 7 6.5 14t4 15.5t4 19.5t7.5 25v-1q2 8 2 13t4 16l6 19q3 10 6.5 19.5t2.5 19.5q0 9 -3.5 17.5t-11.5 8.5q-13 0 -32 -17.5t-38 -39.5l-13 -18
q-5 -7 -11 -12.5t-6 -8.5l-8 -9q-4 -4 -6.5 -8t-7.5 -13v1q-1 -3 -3 -7t-3 -7l-11 -28q-10 -15 -11 -25v-15zM-180 -344h4v2zM209 529q0 -5 5 -17h6q8 0 16.5 5.5t16.5 10.5l7 5l3 -2q1 0 2 2.5t2 4.5l5 4l13 11l-2 2q4 5 7 7l6 4v-1l11 10q7 5 10 8l6 6h-1q6 8 13 18t13 21
l15 30l12 17q2 4 4.5 11t4.5 14.5t3.5 14.5t1.5 11q0 32 -27 32q-8 0 -16 -3t-12 -8l-66 -75q0 -8 -4.5 -16t-8.5 -13l-9 -15q-2 -1 -6.5 -11t-6.5 -15l-6 -13q-7 -14 -12.5 -29.5t-5.5 -30.5zM475 531q0 -9 7 -9q6 0 12.5 3.5t12.5 8.5l5 2h-1q3 2 8.5 4t5.5 4h-1l10 3
q5 2 10 3t8 4l9 8q16 11 32 27.5t24 39.5q1 0 5.5 9t6.5 14l5 8v-1q0 1 1 2t1 2q6 11 11 20t5 18q0 15 -9 30t-21 15q-9 0 -15.5 -4.5t-11.5 -9.5l-8 -8q-5 -5 -12 -11.5t-13 -12.5t-10.5 -10t-5.5 -4l3 -2l-12 -10v1l-3 -4h1l-40 -65q-5 -11 -7 -20t-2 -14l-4 -12
q0 -8 -3.5 -14.5t-3.5 -14.5z" />
    <glyph glyph-name="uniFB01" unicode="fi" horiz-adv-x="500" 
d="M318 54q0 20 6.5 38.5t15.5 36.5q5 11 8.5 15t7.5 15q0 2 2.5 8.5t2.5 8.5q5 12 10.5 21.5t10.5 18.5t8.5 19t3.5 24v12q0 1 -2 8t-4 15t-4.5 14.5t-4.5 8.5q-30 -1 -46.5 0.5t-26 4t-17 4.5t-20.5 2q-18 0 -27.5 -0.5t-14 -4.5t-5 -13t-0.5 -27q0 -10 2 -19t2 -17
q0 -10 -4 -15.5t-8 -15.5q-2 -8 -4 -19t-2 -20t1 -17.5t1 -17.5v-12q0 -3 -1 -14.5t-1 -15.5q-3 -9 -6 -17t-3 -19v-4q0 -2 3 -11.5t3 -11.5q1 -4 0.5 -11t-1 -15t0 -15.5t2.5 -11.5q8 -14 14.5 -27.5t20.5 -24.5q14 -12 27 -35t24 -40q5 -8 13 -13.5t14 -14.5q2 -4 5.5 -10
t4.5 -11q0 -2 3 -13t3 -13l2 -4q7 -18 10.5 -29t10.5 -28q5 -14 10.5 -26t5.5 -27q0 -9 0.5 -29t-1.5 -29q-5 -23 -10 -39.5t-28 -27.5q-2 -2 -9.5 -4t-9.5 -2h-9q-25 0 -46.5 14t-37.5 31q-7 9 -12.5 21t-10.5 25.5t-9 27t-7 23.5l-17 60q-1 3 -3.5 14.5t-2.5 15.5
q0 2 -1.5 14t-1.5 14t-3 12t-3 12q-2 18 -1.5 35.5t-1.5 35.5q-1 11 -4 21t-3 21q0 9 1.5 18t1.5 19v6q-2 18 -5 35.5t-10 33.5q-4 9 -12 17t-14 16q-1 1 -4 6t-7 11t-7 11.5t-4 6.5q-13 18 -27 37.5t-25 40t-18.5 42.5t-7.5 46v23t1 27q3 9 6.5 14t8 7t11 3.5t15.5 3.5
q1 0 10 3t11 3h22q2 0 13.5 -1.5t13.5 -1.5t7 0.5t10 -0.5t8.5 -3t3.5 -6q0 -2 -3 -4.5t-6 -4.5q-2 0 -11.5 -0.5t-11.5 -0.5t-5.5 -1.5t-4.5 -3.5q-4 -2 -14 -9t-12 -9q-8 -5 -17 -12t-11 -16q0 -4 -1.5 -15.5t-1.5 -14.5v-3q0 -9 3 -19.5t7.5 -21t9 -20.5t8.5 -17t8 -17.5
t8.5 -21t10 -20t11.5 -13.5h9q17 0 24 15v10q0 8 -0.5 13t-4.5 13v31q0 1 1 6t2.5 10l3 10t1.5 6q3 12 3.5 26t0.5 28q0 5 -0.5 8t-0.5 7q0 11 5 21t5 22q0 6 -3 10.5t-3 9.5v1q7 11 15.5 30t10.5 32q0 2 1.5 14t1.5 14q1 11 6 19t7 16q6 23 11 44t13 41q4 7 8 13t7 13
q7 12 14 23.5t16 24.5l26 40q10 15 19.5 26t23.5 24q7 5 15.5 9t17.5 9q7 4 18.5 12t24 16t25 14.5t20.5 6.5h39q9 0 18 -5.5t18 -7.5q11 -3 17 -4.5t10.5 -4.5t8 -9l10.5 -18q7 -11 3.5 -29t-3.5 -31q0 -11 -3 -19t-6 -17q0 -2 -1.5 -5.5t-1.5 -5.5l-11 -22q-2 -5 -10 -12
t-18 -13.5t-19 -11.5t-14 -5h-6q-5 2 -5 7q0 8 4 14.5t10 12t12 10.5t9 11q9 16 9 33q0 20 -11 43t-33 31q-11 5 -21.5 5.5t-21.5 0.5h-10.5t-10.5 -2q-4 -1 -14 -6.5t-13 -6.5q-6 -2 -10.5 -1.5t-9.5 -4.5l-52 -50l-2 -2q-1 -1 -1 -2q-1 -1 -3.5 -6l-5.5 -11t-5.5 -12
t-3.5 -9q-2 -5 -3.5 -11.5t-3.5 -11.5t-6 -10t-6 -11q-2 -9 3.5 -13t1.5 -12q-2 -3 -4.5 -6.5t-4.5 -6.5q-3 -9 -3.5 -24.5t-2.5 -25.5q0 -1 -0.5 -1.5t-0.5 -1.5v-2q-2 -1 -5.5 -10t-5.5 -11q-7 -14 -7 -30t-2 -32q4 -8 3 -18t0.5 -18.5t9 -14t29.5 -5.5q8 0 15.5 2.5
t16.5 2.5q11 0 21 -2.5t21 -2.5q7 0 12.5 1.5t12.5 1.5q8 0 19.5 0.5t13.5 -6.5q14 8 23 10.5t26 2.5q12 0 20 -7t6 -18q-3 -20 -11.5 -30t-13.5 -24t-11.5 -25.5t-11.5 -25.5q-2 -6 -4 -15.5t-6 -15.5q0 -2 -2.5 -6t-5 -9t-4.5 -9.5t-3 -5.5q0 -2 -1.5 -7.5t-1.5 -7.5
q-5 -17 -12.5 -33.5t-7.5 -33.5q0 -11 3 -20.5t16 -9.5q12 0 21.5 7t18.5 15t18.5 15t21.5 7q13 0 13 -14q0 -7 -3 -11.5t-6 -8.5q-3 -2 -7.5 -5.5t-9 -7.5t-8 -7l-3.5 -3q-8 -6 -23.5 -15t-33 -17t-34.5 -13.5t-28 -5.5h-10q-15 11 -22.5 24t-7.5 32zM248 -382
q3 -1 13 -5.5t12 -6.5q4 -1 9.5 7t9.5 8q14 0 20.5 3t13.5 12q2 2 4.5 7t2.5 8l6 41q0 13 -7 26t-11 24l-1 6q-4 9 -9.5 16t-8.5 15q-4 8 -6 17.5t-8 17.5q-8 12 -18 22t-18 23q-4 7 -8.5 17t-10.5 19t-13 15.5t-16 6.5t-12 -12v-15q0 -18 3 -35t5 -35v-48q1 -2 3.5 -10
t2.5 -10q0 -1 0.5 -8t0.5 -8l11 -59q7 -14 12 -31t18 -28zM534 536q0 6 0.5 12t5.5 11q9 10 20 20.5t25 10.5q23 0 42 -16.5t19 -39.5q0 -21 -15 -36t-35 -15h-9q-2 0 -13.5 3.5t-16.5 4.5q-13 4 -18 19t-5 26z" />
    <glyph glyph-name="uniFB03" unicode="ffi" horiz-adv-x="646" 
d="M443 52q0 20 6.5 38.5t15.5 36.5q5 11 8.5 15t7.5 15q0 2 2.5 8.5t2.5 8.5q5 12 10.5 21.5t10.5 18.5t8.5 19t3.5 24v12q0 2 1 8.5t2.5 13t2.5 12t-1 5.5q-14 0 -23 4.5t-24 4.5q-6 0 -18 -0.5t-12 5.5q-12 4 -23 15v-1q-1 1 -3 1h-3q-21 -5 -32 -11t-16.5 -13.5
t-7.5 -17t-5 -21.5q0 -7 -5.5 -17t-5.5 -12l-2 -6q-4 -9 -4 -14v-5q-1 -7 -1.5 -12.5t-2.5 -9.5l-4 2q-3 -9 -3 -10v-1l1 1l-1 -3q-4 -5 -6 -12v1l-3 -17q-2 -11 -2 -16.5t-2 -7.5q-8 -17 -12.5 -32t-5.5 -36q-8 -16 -15.5 -34.5t-10.5 -35.5l-3 -19l-6 -38h1l-3 -12
q-3 -11 -5.5 -19.5t-5.5 -15.5l-10 -27q-1 -1 -1 -5v-6l-20 -59q-7 -15 -10 -25t-5 -18l-3 -12v-19q0 -5 -0.5 -9t-0.5 -7v-6v-3.5t-1 -4.5v1q-1 -5 -4 -22t-10 -27q0 -7 0.5 -11t0.5 -3q-2 -5 -3.5 -7.5t-2 -5t-1 -6t-0.5 -11.5q0 -11 -5.5 -17t-13 -8.5t-16 -3t-13.5 -0.5
q-9 0 -16 6t-7 15v5v3t1 4l2 4q0 1 0.5 7t1.5 13l3 20q1 8 6 16.5t5 10.5l5 7q3 8 2.5 20t2.5 20l6 17q3 6 4 10l8 30q2 22 8.5 33t8.5 27l4 30l11 26q6 14 5.5 33t3.5 27l3 5q4 8 6.5 24.5t16.5 34.5q7 19 5.5 35t4.5 22l6 8h-1l3 9v14q0 2 -0.5 5t-0.5 5v10q-1 5 -1 11v10
q0 8 4.5 14.5t9.5 12.5l13 13h-1q8 13 13 32q0 2 1.5 7t2.5 8l6 17q5 13 8.5 26t3.5 27q0 11 -5 18h-4q-16 0 -31 -4h-21q-14 0 -28.5 1.5t-28.5 1.5h-14q-2 0 -5.5 -3t-3.5 -4l-26 -29v1l-3 -44q-4 -17 -14 -35t-10 -32v-17q-2 -15 -5 -28t-8 -25q0 -1 -1 -2.5t-1 -2.5
q-5 -14 -9 -28t-4 -27q0 -3 5 -3q9 5 20 12.5t22 15.5l2 -3q3 3 8 9t11.5 11.5t14 10t15.5 4.5q5 0 9 -1.5t4 -11.5q0 -9 -3 -13.5t-8 -7.5l-4 -2h1l-6 -4v1l-13 -10l-88 -55q-6 -4 -10.5 -17.5t-7 -30.5t-4 -34t-1.5 -26v-5q0 -15 -7 -24t-9 -14q-1 -2 -2 -2.5t-1 -8.5
l-2 -6q-1 -1 -3.5 -13.5t-3.5 -13.5q0 -16 -7.5 -26t-7.5 -15l-15 -43l-6 -6q-2 -2 -3 -4l-2 -4l-18 -26q-13 -19 -18.5 -25.5t-10.5 -9t-12.5 -6t-23.5 -17.5l1 1h-1q-3 0 -11.5 -8t-17.5 -11l-7 -5q-8 -5 -18 -10t-20 -5q-26 0 -47.5 16.5t-21.5 46.5v6.5t1 7.5l10 42
q4 31 14.5 48t22.5 34l8 11l13 19q2 2 6 6.5t6 8.5l26 27h-1q17 21 34.5 37t34.5 30l6 5q2 2 4.5 3t3.5 3v-1q8 7 16 10.5t14 7.5q3 0 5 2q1 1 2 1q11 6 21 12t15 12q4 6 6 17.5t2.5 24.5t1 24.5t1.5 17.5l6 17q3 9 6 20t5 18q4 14 4 30.5t7 30.5v-1q0 4 3.5 9.5t4.5 11.5
q0 28 6.5 48.5t16.5 37.5l6 9q3 5 5.5 9t2.5 6v6.5t-1 4.5l-30 -1l-3 -2q-2 -1 -5.5 -2t-2.5 -1q-8 0 -16 7.5t-8 18.5q0 8 5 13t11 5q4 0 9 -2.5t9 -5.5q7 0 15.5 1t14.5 1q14 32 20 54.5t15 42.5q0 7 5 13t5 18q0 9 6.5 14t6.5 15v6q0 9 3.5 21t9 24t11.5 22.5t12 17.5
l20 47q1 7 9 21.5t19 23.5h-1q6 8 18.5 20.5t25.5 24.5v1q8 6 12 12l7 6h-1q14 18 27.5 30t29.5 15l12 5h-1q5 3 12.5 5.5t15.5 2.5q7 0 16 -1t16.5 -4.5t12.5 -10.5t5 -18q0 -6 -3 -14.5t-6 -16.5l-3 -8q-3 -9 -6 -17t-3 -13q0 -6 4 -7h-1q6 -2 6 -5q0 -5 -3.5 -8.5
t-8 -7.5t-8 -9t-3.5 -12q-11 -14 -21 -27t-18 -30l-2 1q0 -6 -5 -14l-15 -20l-7 -2q-14 -14 -22.5 -20.5t-14 -9.5t-9.5 -5t-9 -7l-23 -23l-11 -11t-8 -7l-10 -5h-27q-6 0 -8.5 -6t-4 -14.5t-3 -16t-4.5 -10.5l-3 -13q0 -11 -3.5 -21.5t-3.5 -20.5q0 -8 4.5 -15t12.5 -7h32
q8 0 15 0.5t12 0.5h9q3 1 7.5 1h8.5q6 0 12.5 -2.5t18.5 -2.5q14 0 23 17.5t15 33.5l3 7q7 8 13.5 20.5t11.5 22.5l7 16l11 16q0 2 1 4v-1q0 11 5 23.5t12 24t13.5 21.5t8.5 17l6 17q0 -1 2 3l5 10t7 12.5t9 11.5l27 34q11 16 25 33.5t29 35.5l11 13q10 11 17 13.5t15 4.5
l7 2q13 3 27 10.5t34 7.5q21 0 38 -7t24 -33v-35q0 -21 -8.5 -34t-21.5 -28l-9 -11l-10 -18q-1 -1 -1 -3q0 -1 -1 -2q-12 -21 -16 -25.5t-9 -7.5v1l-5 -4q-22 -22 -47.5 -43t-48.5 -32q-9 0 -10.5 -2t-4 -5t-9.5 -5t-26 -2h-9q-6 -2 -16 -6.5t-14 -6.5q-6 -6 -14.5 -19.5
t-16.5 -28.5t-13.5 -29.5t-6.5 -21.5q0 -9 7.5 -15.5t15.5 -6.5q9 0 19 3t25 -2t20 -5t10 1.5t15 2t35 -2.5q12 -2 25.5 4.5t27.5 6.5q26 0 26 -25q0 -15 -10 -27.5t-15 -26.5t-11.5 -25.5t-11.5 -25.5q-2 -6 -4 -15.5t-6 -15.5q0 -2 -2.5 -6t-5 -9t-4.5 -9.5t-3 -5.5
q0 -2 -1.5 -7.5t-1.5 -7.5q-5 -17 -12.5 -33.5t-7.5 -33.5q0 -11 3 -20.5t16 -9.5q12 0 21.5 7t18.5 15t18.5 15t21.5 7q13 0 13 -14q0 -7 -3 -11.5t-6 -8.5q-3 -2 -7.5 -5.5t-9 -7.5t-8 -7l-3.5 -3q-8 -6 -23.5 -15t-33 -17t-34.5 -13.5t-28 -5.5h-10q-15 11 -22.5 24
t-7.5 32zM-180 -301v-15t2 -17.5t5.5 -14.5t11.5 -6q18 0 40 12.5t35 23.5h-1l18 19q2 2 3.5 4.5t1.5 4.5l7 10h-1q4 7 6.5 14t4 15.5t4 19.5t7.5 25v-1q2 8 2 13t4 16l6 19q3 10 6.5 19.5t2.5 19.5q0 9 -3.5 17.5t-11.5 8.5q-13 0 -32 -17.5t-38 -39.5l-13 -18
q-5 -7 -11 -12.5t-6 -8.5l-8 -9q-4 -4 -6.5 -8t-7.5 -13v1q-1 -3 -3 -7t-3 -7l-11 -28q-10 -15 -11 -25v-15zM209 529q0 -5 5 -17h6q8 0 16.5 5.5t16.5 10.5l7 5l3 -2q1 0 2 2.5t2 4.5l5 4l13 11l-2 2q4 5 7 7l6 4v-1l11 10q7 5 10 8l6 6h-1q6 8 13 18t13 21l15 30l12 17
q2 4 4.5 11t4.5 14.5t3.5 14.5t1.5 11q0 32 -27 32q-8 0 -16 -3t-12 -8l-66 -75q0 -8 -4.5 -16t-8.5 -13l-9 -15q-2 -1 -6.5 -11t-6.5 -15l-6 -13q-7 -14 -12.5 -29.5t-5.5 -30.5zM475 531q0 -9 7 -9q6 0 12.5 3.5t12.5 8.5l5 2h-1q3 2 8.5 4t5.5 4h-1l10 3q5 2 10 3t8 4
l9 8q16 11 32 27.5t24 39.5q1 0 5.5 9t6.5 14l5 8v-1q0 1 1 2t1 2q6 11 11 20t5 18q0 15 -9 30t-21 15q-9 0 -15.5 -4.5t-11.5 -9.5l-8 -8q-5 -5 -12 -11.5t-13 -12.5t-10.5 -10t-5.5 -4l3 -2l-12 -10v1l-3 -4h1l-40 -65q-5 -11 -7 -20t-2 -14l-4 -12q0 -8 -3.5 -14.5
t-3.5 -14.5zM330 190l2 3zM671 562q0 6 0.5 12t5.5 11q9 10 20 20.5t25 10.5q23 0 42 -16.5t19 -39.5q0 -21 -15 -36t-35 -15h-9q-2 0 -13.5 3.5t-16.5 4.5q-13 4 -18 19t-5 26z" />
    <glyph glyph-name="uniFB04" unicode="ffl" horiz-adv-x="719" 
d="M510 75q0 20 5.5 38t11.5 36l8 41q5 18 9 39.5t10 38.5q2 1 5 9t5 9q2 6 2 8t-0.5 3.5t-1 3.5t1.5 7q1 6 3 8.5t3.5 3.5t2.5 3t1 8q0 9 -8 12.5t-20 4.5t-25.5 0.5t-24.5 -0.5q-19 -11 -35 -16.5t-39 5.5v-1q-1 1 -3 1h-3q-21 -5 -32 -11t-16.5 -13.5t-7.5 -17t-5 -21.5
q0 -7 -5.5 -17t-5.5 -12l-2 -6q-4 -9 -4 -14v-5q-1 -7 -1.5 -12.5t-2.5 -9.5l-4 2q-3 -9 -3 -10v-1l1 1l-1 -3q-4 -5 -6 -12v1l-3 -17q-2 -11 -2 -16.5t-2 -7.5q-8 -17 -12.5 -32t-5.5 -36q-8 -16 -15.5 -34.5t-10.5 -35.5l-3 -19l-6 -38h1l-3 -12q-3 -11 -5.5 -19.5
t-5.5 -15.5l-10 -27q-1 -1 -1 -5v-6l-20 -59q-7 -15 -10 -25t-5 -18l-3 -12v-19q0 -5 -0.5 -9t-0.5 -7v-6v-3.5t-1 -4.5v1q-1 -5 -4 -22t-10 -27q0 -7 0.5 -11t0.5 -3q-2 -5 -3.5 -7.5t-2 -5t-1 -6t-0.5 -11.5q0 -11 -5.5 -17t-13 -8.5t-16 -3t-13.5 -0.5q-9 0 -16 6t-7 15
v5v3t1 4l2 4q0 1 0.5 7t1.5 13l3 20q1 8 6 16.5t5 10.5l5 7q3 8 2.5 20t2.5 20l6 17q3 6 4 10l8 30q2 22 8.5 33t8.5 27l4 30l11 26q6 14 5.5 33t3.5 27l3 5q4 8 6.5 24.5t16.5 34.5q7 19 5.5 35t4.5 22l6 8h-1l3 9v14q0 2 -0.5 5t-0.5 5v10q-1 5 -1 11v10q0 8 4.5 14.5
t9.5 12.5l13 13h-1q8 13 13 32v-1q0 2 1.5 7.5t2.5 8.5l6 17q5 13 8.5 26t3.5 27q0 11 -5 18h-4q-16 0 -31 -4h-21q-14 0 -28.5 1.5t-28.5 1.5h-14q-2 0 -5.5 -3t-3.5 -4l-26 -29l-3 -43q-4 -17 -14 -35t-10 -32v-17q-2 -15 -5 -28t-8 -25q0 -1 -1 -2.5t-1 -2.5
q-5 -14 -9 -28t-4 -27q0 -3 5 -3q9 5 20 12.5t22 15.5l2 -3q3 3 8 9t11.5 11.5t14 10t15.5 4.5q5 0 9 -1.5t4 -11.5q0 -9 -3 -13.5t-8 -7.5l-4 -2h1l-6 -4v1l-13 -10l-88 -55q-6 -4 -10.5 -17.5t-7 -30.5t-4 -34t-1.5 -26v-5q0 -15 -7 -24t-9 -14q-1 -2 -2 -2.5t-1 -8.5
l-2 -6q-1 -1 -3.5 -13.5t-3.5 -13.5q0 -16 -7.5 -26t-7.5 -15l-15 -43l-6 -6q-2 -2 -3 -4l-2 -4l-18 -26q-13 -19 -18.5 -25.5t-10.5 -9t-12.5 -6t-23.5 -17.5l1 1h-1q-3 0 -11.5 -8t-17.5 -11l-7 -5q-8 -5 -18 -10t-20 -5q-26 0 -47.5 16.5t-21.5 46.5v6.5t1 7.5l10 42
q4 31 14.5 48t22.5 34l8 11l13 19q2 2 6 6.5t6 8.5l26 27h-1q17 21 34.5 37t34.5 30l6 5q2 2 4.5 3t3.5 3v-1q8 7 16 10.5t14 7.5q3 0 5 2q1 1 2 1q11 6 21 12t15 12q4 6 6 17.5t2.5 24.5t1 24.5t1.5 17.5l6 17q3 9 6 20t5 18q4 14 4 30.5t7 30.5q1 4 4 9t4 11
q0 28 6.5 48.5t16.5 37.5l6 9q3 5 5.5 9t2.5 6v6.5t-1 4.5l-30 -1l-3 -2q-2 -1 -5.5 -2t-2.5 -1q-8 0 -16 7.5t-8 18.5q0 8 5 13t11 5q4 0 9 -2.5t9 -5.5q7 0 15.5 1t14.5 1q14 32 20 54.5t15 42.5q0 7 5 13t5 18q0 9 6.5 14t6.5 15v6q0 9 3.5 21t9 24t11.5 22.5t12 17.5
l20 47q1 7 9 21.5t19 23.5h-1q6 8 18.5 20.5t25.5 24.5v1q8 6 12 12l7 6h-1q14 18 27.5 30t29.5 15l12 5h-1q5 3 12.5 5.5t15.5 2.5q7 0 16 -1t16.5 -4.5t12.5 -10.5t5 -18q0 -6 -3 -14.5t-6 -16.5l-3 -8q-3 -9 -6 -17t-3 -13q0 -6 4 -7h-1q6 -2 6 -5q0 -5 -3.5 -8.5
t-8 -7.5t-8 -9t-3.5 -12q-11 -14 -21 -27t-18 -30l-2 1q0 -6 -5 -14l-15 -20l-7 -2q-14 -14 -22.5 -20.5t-14 -9.5t-9.5 -5t-9 -7l-23 -23l-11 -11t-8 -7l-10 -5h-27q-6 0 -8.5 -6t-4 -14.5t-3 -16t-4.5 -10.5l-3 -13q0 -11 -3.5 -21.5t-3.5 -20.5q0 -8 4.5 -15t12.5 -7h32
q8 0 15 0.5t12 0.5h9q3 1 7.5 1h8.5q6 0 12.5 -2.5t18.5 -2.5q14 0 23 17.5t15 33.5l3 7q7 8 13.5 20.5t11.5 22.5l7 16l11 16q0 2 1 4q0 11 5 23.5t12 23.5t13.5 21t8.5 17l6 17q0 -1 2 3l5 10t7 12.5t9 11.5l27 34q11 16 25 33.5t29 35.5l11 13q10 11 17 13.5t15 4.5l7 2
q13 3 27 10.5t34 7.5q21 0 38 -7t24 -33v-35q0 -21 -8.5 -34t-21.5 -28l-9 -11l-10 -18q-1 -1 -1 -3q0 -1 -1 -2q-12 -21 -16 -25.5t-9 -7.5v1l-5 -4q-22 -22 -47.5 -43t-48.5 -32q-9 0 -10.5 -2t-4 -5t-9.5 -5t-26 -2h-9q-6 -2 -16 -6.5t-14 -6.5q-6 -6 -14.5 -19.5
t-16.5 -28.5t-13.5 -29.5t-6.5 -21.5q0 -9 7.5 -15.5t15.5 -6.5q9 0 20.5 7t27.5 7h7.5t8.5 -2q10 3 26 7t31.5 9.5t28.5 12.5t17 17t12 26t17 32.5t17 32t12 26.5q4 7 5 16t4 16q8 14 16 25.5t16 23.5q4 5 5 12t5 14q5 10 13.5 17.5t14.5 18.5q5 9 7.5 19.5t6.5 20.5
q3 9 11 13.5t14 9.5q7 5 14 15.5t12 16.5q2 1 6 5.5t5 6.5q1 1 6 5t10.5 8.5l11 9t7.5 6.5q11 8 23.5 8.5t25.5 0.5q8 0 18 -6.5t18.5 -16t14.5 -20.5t6 -21v-15.5t-2 -13.5q-1 -9 -5 -16.5t-7 -14.5q-9 -20 -19 -41.5t-24 -38.5q-12 -14 -26 -24t-27 -23l-21 -21l-21 -18
q-13 -10 -25 -19.5t-28 -17.5q-3 -2 -13.5 -3.5t-14.5 -3.5q-8 -2 -12 -6.5t-10 -10.5q-6 -8 -7.5 -15.5t-5.5 -15.5q-2 -8 -7 -14t-9 -13q-2 -4 -3 -9.5t-3 -8.5q0 -2 -2 -6.5t-4 -9.5t-4 -9.5t-2 -5.5q-1 -1 -2 -7t-1.5 -12.5t-1 -12.5t-0.5 -7q-2 -17 -10 -34t-13 -33
q-8 -20 -12 -39t-7 -39q-4 -21 -7 -37.5t-3 -36.5v-21q4 -12 13.5 -21.5t22.5 -9.5q10 0 19 3.5t17 8.5l76 48q5 4 7 4.5t7 0.5q6 0 6 -8q0 -4 -0.5 -5.5t-2.5 -5.5q-15 -21 -32 -38t-40 -28q-1 -1 -6.5 -3t-11.5 -4.5t-11 -4t-6 -2.5q-3 -1 -13.5 -8t-12.5 -10h-5
q-6 -6 -14.5 -14t-18.5 -8q-4 0 -14.5 2t-14.5 4q-3 4 -3.5 6.5t-2.5 6.5q-11 20 -21 38.5t-10 41.5zM-180 -301v-15t2 -17.5t5.5 -14.5t11.5 -6q18 0 40 12.5t35 23.5h-1l18 19q2 2 3.5 4.5t1.5 4.5l7 10h-1q4 7 6.5 14t4 15.5t4 19.5t7.5 25v-1q2 8 2 13t4 16l6 19
q3 10 6.5 19.5t2.5 19.5q0 9 -3.5 17.5t-11.5 8.5q-13 0 -32 -17.5t-38 -39.5l-13 -18q-5 -7 -11 -12.5t-6 -8.5l-8 -9q-4 -4 -6.5 -8t-7.5 -13v1q-1 -3 -3 -7t-3 -7l-11 -28q-10 -15 -11 -25v-15zM710 522q1 -9 12 -9q8 0 13.5 6.5t13.5 10.5l37 20q4 2 4 4.5t3 4.5
q3 6 7 8.5t10 5.5l2 2l17 21q5 6 6.5 12.5t9.5 10.5q3 16 8.5 27.5t13.5 26.5q5 9 8.5 15.5t3.5 17.5v20.5t-3 22t-9 18t-18 7.5q-14 0 -25.5 -10.5t-21.5 -18.5l-2 -3l-7 -16q-1 -1 -4.5 -5.5l-7 -9l-7 -9t-3.5 -5.5l-3 -5q-8 -16 -16 -32.5t-16 -32.5q0 -4 -2 -18.5
t-4 -18.5q-4 -16 -12 -28.5t-8 -29.5v-10zM209 529q0 -5 5 -17h6q8 0 16.5 5.5t16.5 10.5l7 5l3 -2q1 0 2 2.5t2 4.5l5 4l13 11l-2 2q4 5 7 7l6 4v-1l11 10q7 5 10 8l6 6h-1q6 8 13 18t13 21l15 30l12 17q2 4 4.5 11t4.5 14.5t3.5 14.5t1.5 11q0 32 -27 32q-8 0 -16 -3
t-12 -8l-66 -75q0 -8 -4.5 -16t-8.5 -13l-9 -15q-2 -1 -6.5 -11t-6.5 -15l-6 -13q-7 -14 -12.5 -29.5t-5.5 -30.5zM475 531q0 -9 7 -9q6 0 12.5 3.5t12.5 8.5l5 2h-1q3 2 8.5 4t5.5 4h-1l10 3q5 2 10 3t8 4l9 8q16 11 32 27.5t24 39.5q1 0 5.5 9t6.5 14l5 8v-1q0 1 1 2t1 2
q6 11 11 20t5 18q0 15 -9 30t-21 15q-9 0 -15.5 -4.5t-11.5 -9.5l-8 -8q-5 -5 -12 -11.5t-13 -12.5t-10.5 -10t-5.5 -4l3 -2l-12 -10v1l-3 -4h1l-40 -65q-5 -11 -7 -20t-2 -14l-4 -12q0 -8 -3.5 -14.5t-3.5 -14.5zM330 190l2 3z" />
    <glyph glyph-name="f_u.liga" unicode="fu" horiz-adv-x="614" 
d="M417 53q-17 0 -33 -12.5t-33 -18.5q-11 -4 -21 -6.5t-23 -4.5q-13 -3 -24 -6t-24 -3q-21 0 -33.5 17t-12.5 36q0 28 10.5 49.5t27.5 44.5q10 13 20.5 25t10.5 29q0 5 -0.5 10.5t-0.5 10.5t8 14.5t8 17.5q0 28 -2 47t1 30q-8 2 -15 3.5t-15 2.5q-1 0 -12.5 0.5t-26 0.5
t-28 0.5t-17.5 0.5h-10q-8 0 -15.5 -2t-13.5 -10q-1 -5 -5.5 -15t-6.5 -14q-5 -10 -9.5 -16t-8.5 -17q-3 -12 -2.5 -21.5t-1.5 -20.5q0 -1 -1.5 -5.5l-3 -9l-3 -9t-1.5 -5.5q-2 -9 -3 -18t-6 -17l-1 -4q-8 -14 -13.5 -25t-7.5 -26q1 -26 -1.5 -53.5t-10.5 -51.5
q-7 -20 -15.5 -34.5t-8.5 -37.5q0 -9 0.5 -17.5t0.5 -19.5v-7q0 -1 -2 -10t-2 -10q-4 -22 -4.5 -45t1.5 -45q-2 -5 -4 -17t-4 -15q0 -2 -0.5 -5.5t-0.5 -4.5v-105q0 -10 -7 -19.5t-17.5 -16.5t-21.5 -11.5t-20 -4.5q-8 0 -12 7.5t-4 15.5v9t1 9q2 40 3 80t3 81q0 11 6 20.5
t6 19.5v61q1 6 3 12q2 5 2.5 10t2.5 9q5 17 6.5 31t3.5 33q2 16 7 32t5 34q14 35 21.5 63.5t17.5 64.5q1 2 4 14.5t5 14.5q5 11 4.5 23t1.5 21q1 8 4.5 14.5t7.5 14.5q5 10 7 27t2 31q0 6 -3 10t-7 8t-7 9t-3 12q0 9 6.5 12.5t15.5 6t17.5 5.5t13.5 12q8 11 14 22t9 23
q2 10 3 18.5t3 16.5q5 17 15.5 29t17.5 26q11 29 20 56t26 53q13 20 28 37t28 34q2 2 3 8t3 8q2 8 10.5 16.5l14.5 14.5l16 11q16 12 32 23.5t35 20.5q2 0 3 1l2 2h31q1 -2 3 -3t3 -2t3 -1l21 -10.5t15 -10t9.5 -13.5t3.5 -21q0 -17 0.5 -34.5t-4.5 -31.5
q-6 -15 -13.5 -31.5t-17.5 -31.5q-7 -9 -16 -18t-16 -19q-14 -15 -25 -32t-28 -30l-5 -3q-1 -1 -5 -3.5t-9 -5.5t-9 -5t-5 -3q-13 -8 -26.5 -19.5t-30.5 -11.5h-33l-3 -1q-10 -7 -21 -15t-20 -17.5t-15 -21t-6 -25.5q0 -23 15 -27.5t32 -4.5q6 0 19 1t26.5 2t26 2t18.5 1
t16 0.5t19.5 0t17 -4t9.5 -10.5q12 -2 18.5 -13t6.5 -23q0 -17 -8.5 -31t-15.5 -28q-1 -2 -2.5 -7t-3.5 -11.5t-3.5 -12t-2.5 -6.5q0 -2 -1.5 -4.5t-1.5 -4.5q0 -1 -4.5 -8t-4.5 -9q0 -1 -0.5 -6.5t-0.5 -7.5q-2 -4 -4.5 -7.5t-3.5 -7.5q0 -1 -0.5 -1.5t-0.5 -1.5
q-1 -1 -1 -2q0 -2 -1 -8.5t-2 -9.5l-4 -3l-5 -20q-2 -2 -2 -3.5t-1 -3.5t-1 -4v-35q0 -5 6 -10.5t8 -7.5q6 -5 16.5 -5h18.5h15q21 11 42 23t35 32q2 1 8 12.5t11 17.5q4 5 5 9t4 12q8 21 16 41t15 41q3 12 6.5 27.5t9.5 28.5t15.5 22t25.5 9q14 0 24 -5.5t10 -21.5v-6
q0 -2 -4 -11t-5 -10q-8 -18 -16 -31t-19 -30q-6 -9 -9.5 -19t-8.5 -19q-5 -12 -9 -17.5t-8 -17.5q-1 -2 -2 -8t-2.5 -12.5t-3 -12t-1.5 -6.5t-1.5 -4.5t-3.5 -7.5t-3.5 -7.5t-1.5 -4.5v-5q0 -25 26 -25h4q3 1 12.5 5t11.5 6q8 2 22.5 9t21.5 7q16 0 16 -14v-6.5t-1 -6.5
q-22 -26 -52.5 -39t-62.5 -22q-4 -1 -13 -3t-11 -2h-7q-14 0 -22 6t-13 15t-7.5 20.5t-6.5 22.5zM203 525q0 -8 6.5 -17.5t15.5 -9.5q13 0 23 8t21 16q8 5 16 6.5t13 8.5q9 10 18.5 19.5t20.5 19.5q4 2 6.5 3.5t4.5 5.5q8 10 12 18t11 18q2 1 5.5 5t3.5 5q7 14 10 28.5
t8 26.5q1 1 1 2.5t1 3.5q0 2 1 4v41q0 12 -14 22.5t-23 10.5q-15 0 -25 -10l-51 -55q-2 -3 -4 -7q-2 -3 -4 -5.5t-3 -3.5q-8 -10 -17 -20.5t-14 -21.5q0 -1 -2 -6.5t-4 -11.5t-3.5 -11.5t-2.5 -6.5q0 -1 -2.5 -6l-5 -10t-4.5 -10t-3 -6q-3 -11 -9.5 -27t-6.5 -27z" />
    <glyph glyph-name="f_f_u.liga" unicode="ffu" horiz-adv-x="804" 
d="M-273 -392q0 13 0.5 29.5t11.5 25.5h-1q8 8 13 22.5t10 20.5l7 7l5 11q1 3 1.5 6t1.5 4l27 24q8 21 22 40.5t33 31.5l14 9q5 5 10 10.5t13 11.5l37 29l17 5q9 2 20 8.5t11 14.5l9 26q4 12 10 26t10 22v21q0 21 1.5 28t6.5 15q7 5 8.5 19t2 31t2.5 34.5t10 28.5
q6 8 7.5 13t2.5 9t1.5 8t4.5 12q0 3 3 29t22 64q3 6 -2.5 15.5t-5.5 16.5q-35 2 -47 12t-5 31q2 5 17 10t47 0l15 27q13 24 24 50.5t21 52.5v-1l14 25q2 6 2 11.5t2 9.5l16 27v-2l7 29q3 12 4.5 18.5t3.5 11t5 8t8 9.5l9 10l5 9l8 8h-1l4 10q2 5 4.5 9t5.5 11l21 28h-1
q3 5 8 8v-1l7 5q17 26 34 38.5t51 12.5h10q26 -5 42 -23.5t16 -40.5q0 -17 -2.5 -34t-13.5 -37l-2 -5q9 11 19 22.5t18 22.5q2 2 3 8t3 8q2 8 10.5 16.5l14.5 14.5l16 11q16 12 32 23.5t35 20.5q2 0 3 1l2 2h31q1 -2 3 -3t3 -2t3 -1l21 -10.5t15 -10t9.5 -13.5t3.5 -21
q0 -17 0.5 -34.5t-4.5 -31.5q-6 -15 -13.5 -31.5t-17.5 -31.5q-7 -9 -16 -18t-16 -19q-14 -15 -25 -32t-28 -30l-5 -3q-1 -1 -5 -3.5t-9 -5.5t-9 -5t-5 -3q-13 -8 -26.5 -19.5t-30.5 -11.5h-33l-3 -1q-10 -7 -21 -15t-20 -17.5t-15 -21t-6 -25.5q0 -23 15 -27.5t32 -4.5
q6 0 19 1t26.5 2t26 2t18.5 1t16 0.5t19.5 0t17 -4t9.5 -10.5q12 -2 18.5 -13t6.5 -23q0 -17 -8.5 -31t-15.5 -28q-1 -2 -2.5 -7t-3.5 -11.5t-3.5 -12t-2.5 -6.5q0 -2 -1.5 -4.5t-1.5 -4.5q0 -1 -4.5 -8t-4.5 -9q0 -1 -0.5 -6.5t-0.5 -7.5q-2 -4 -4.5 -7.5t-3.5 -7.5
q0 -1 -0.5 -1.5t-0.5 -1.5q-1 -1 -1 -2q0 -2 -1 -8.5t-2 -9.5l-4 -3l-5 -20q-2 -2 -2 -3.5t-1 -3.5t-1 -4v-35q0 -5 6 -10.5t8 -7.5q6 -5 16.5 -5h18.5h15q21 11 42 23t35 32q2 1 8 12.5t11 17.5q4 5 5 9t4 12q8 21 16 41t15 41q3 12 6.5 27.5t9.5 28.5t15.5 22t25.5 9
q14 0 24 -5.5t10 -21.5v-6q0 -2 -4 -11t-5 -10q-8 -18 -16 -31t-19 -30q-6 -9 -9.5 -19t-8.5 -19q-5 -12 -9 -17.5t-8 -17.5q-1 -2 -2 -8t-2.5 -12.5t-3 -12t-1.5 -6.5t-1.5 -4.5t-3.5 -7.5t-3.5 -7.5t-1.5 -4.5v-5q0 -25 26 -25h4q3 1 12.5 5t11.5 6q8 2 22.5 9t21.5 7
q16 0 16 -14v-6.5t-1 -6.5q-22 -26 -52.5 -39t-62.5 -22q-4 -1 -13 -3t-11 -2h-7q-14 0 -22 6t-13 15t-7.5 20.5t-6.5 22.5q-17 0 -33 -12.5t-33 -18.5q-11 -4 -21 -6.5t-23 -4.5q-13 -3 -24 -6t-24 -3q-21 0 -33.5 17t-12.5 36q0 28 10.5 49.5t27.5 44.5q10 13 20.5 25
t10.5 29q0 5 -0.5 10.5t-0.5 10.5t8 14.5t8 17.5q0 28 -2 47t1 30q-8 2 -15 3.5t-15 2.5q-1 0 -12.5 0.5t-26 0.5t-28 0.5t-17.5 0.5h-10q-8 0 -15.5 -2t-13.5 -10q-1 -5 -5.5 -15t-6.5 -14q-5 -10 -9.5 -16t-8.5 -17q-3 -12 -2.5 -21.5t-1.5 -20.5q0 -1 -1.5 -5.5l-3 -9
l-3 -9t-1.5 -5.5q-2 -9 -3 -18t-6 -17l-1 -4q-8 -14 -13.5 -25t-7.5 -26q1 -26 -1.5 -53.5t-10.5 -51.5q-7 -20 -15.5 -34.5t-8.5 -37.5q0 -9 0.5 -17.5t0.5 -19.5v-7q0 -1 -2 -10t-2 -10q-4 -22 -4.5 -45t1.5 -45q-2 -5 -4 -17t-4 -15q0 -2 -0.5 -5.5t-0.5 -4.5v-105
q0 -10 -7 -19.5t-17.5 -16.5t-21.5 -11.5t-20 -4.5q-8 0 -12 7.5t-4 15.5v9t1 9q2 40 3 80t3 81q0 11 6 20.5t6 19.5v61q1 6 3 12q2 5 2.5 10t2.5 9q5 17 6.5 31t3.5 33q2 16 7 32t5 34q14 35 21.5 63.5t17.5 64.5q1 2 4 14.5t5 14.5q5 11 4.5 23t1.5 21q1 8 4.5 14.5
t7.5 14.5q2 5 4.5 14t4 19t2.5 20t1 17q0 3 -8 3.5t-21.5 0t-31 -1.5t-36.5 -2v-8l-8 -12q-11 -11 -13.5 -25.5t-2.5 -30t-1 -30t-8 -26.5l-11 -26q-2 -5 -3.5 -8.5l-3 -7t-3 -8t-3.5 -11.5v1q-1 -2 -1 -4t-1 -3l-1 -2l-3 -4q0 -11 -2 -24t-2 -18q0 -18 -8.5 -30.5
t-8.5 -26.5q0 -9 2.5 -14t9.5 -10q3 1 9 2.5t9 3.5l-1 -2l6 7h-1q1 1 2.5 2t2.5 3l7 9q13 13 27 24v-1l7 7v-1q2 3 7.5 13t13.5 10q5 0 5.5 -4.5t0.5 -7.5q0 -7 -1 -10l-9 -10q-5 -5 -9 -10t-9 -10v1l-12 -11q-7 -6 -15 -14.5t-16.5 -17t-15 -14t-10.5 -5.5
q-10 -5 -22 -14.5t-15 -20.5q0 -17 -6.5 -29.5t-8.5 -15.5q-10 -15 -10.5 -26.5t-0.5 -14.5q-4 -8 -4 -11l-2 -6l-10 -23q0 -4 -3 -7q-5 -22 -8 -30t-8 -20l-7 -18q-1 -5 -3 -9.5t-10 -17.5l-26 -42q-14 -22 -27.5 -41.5t-35.5 -36.5l-9 -5q-14 -6 -23.5 -14t-18 -15.5
t-18.5 -12.5t-26 -5q-23 0 -37 16.5t-18 33.5v17zM395 525q0 -8 6.5 -17.5t15.5 -9.5q13 0 23 8t21 16q8 5 16 6.5t13 8.5q9 10 18.5 19.5t20.5 19.5q4 2 6.5 3.5t4.5 5.5q8 10 12 18t11 18q2 1 5.5 5t3.5 5q7 14 10 28.5t8 26.5q1 1 1 2.5t1 3.5q0 2 1 4v41q0 12 -14 22.5
t-23 10.5q-15 0 -25 -10l-51 -55q-2 -3 -4 -7q-2 -3 -4 -5.5t-3 -3.5q-8 -10 -17 -20.5t-14 -21.5q0 -1 -2 -6.5t-4 -11.5t-3.5 -11.5t-2.5 -6.5q0 -1 -2.5 -6l-5 -10t-4.5 -10t-3 -6q-3 -11 -9.5 -27t-6.5 -27zM-209 -368q0 -9 3 -23.5t18 -14.5q6 0 15 9.5t17 14.5v-1
l35 32q0 1 2 5q1 2 2 3v-1q2 3 4.5 6.5t7.5 7.5l18 21q3 3 6.5 12.5t14.5 29.5q0 17 4 32t9 28.5t10 25t7 21.5v6q0 8 -3.5 13t-11.5 5h-6t-4 -2l-6 -8h1q-8 -11 -16 -21t-25 -25l-3 -1l-8 -7h1l-23 -26q-2 0 -6 -5t-7 -8l-13 -14q0 -3 -3.5 -10l-4.5 -9l-8 -17
q-7 -12 -7 -15l-4 -7q-6 -14 -11 -27.5t-5 -29.5zM225 549q0 -8 3 -17.5t14 -9.5q5 0 13 7.5t11 12.5l18 16q7 5 10.5 8t11.5 11l8 14l16 19h-1q9 11 14.5 20t10.5 26l3 9q15 33 15 68v20q-2 5 -7.5 10t-11.5 5q-11 0 -22.5 -9t-22.5 -22t-21 -28.5t-17 -27.5l-20 -33
q-5 -7 -10.5 -14.5t-5.5 -19.5v-9q0 -1 -1.5 -7.5t-3 -14.5t-3 -15t-1.5 -10v-9zM347 538q6 15 11 30t10 29q-4 -6 -10.5 -13.5t-14.5 -12.5l-28 -21q-8 -6 -14 -17t-16 -17v1q-4 -4 -8 -5t-9 -2l-9 -4q-2 0 -3 -0.5t-2 -0.5l-1 -1h1q-3 -8 -12 -14.5t-20 -12.5t-21 -12.5
t-14 -13.5v1q-2 -8 -3 -13t-2.5 -9t-3.5 -8t-4 -11l-3 -12l-3 -13q35 -20 65.5 -12.5t51.5 29.5q8 11 14 22t9 23q2 10 3 18.5t3 16.5q5 17 15.5 29t17.5 26z" />
    <glyph glyph-name="t_h.liga" unicode="th" horiz-adv-x="667" 
d="M212 -44q0 11 5 23l23 49q0 1 3.5 4.5t3.5 5.5q2 3 7 14t7 13q0 2 2.5 8.5t5.5 14.5q-17 -15 -33.5 -28.5t-22.5 -15.5q-14 -8 -31 -20t-34 -17q-1 0 -7 -1t-8 -1h-22q-8 0 -14.5 -4t-14.5 -4h-5q-1 0 -8 2t-8 2q-2 0 -12.5 1t-12.5 1q-11 2 -24 12t-13 24v30q0 3 2 9.5
t4 14t3.5 14t2.5 9.5q2 8 1.5 9t1.5 7q1 3 6 15.5t10.5 26.5t10 26t6.5 15q8 21 12.5 45t11.5 45v7q0 15 -9 25.5t-9 24.5q0 15 9 18t20 6q14 4 19.5 16.5t9.5 24.5l14 39q0 1 2 6t2 7q3 8 11 12.5t18 6.5t20 2.5t17 0.5h6q5 -2 5.5 -4t0.5 -6q0 -13 -6 -23t-13 -19t-13 -19
t-6 -22q0 -9 5 -15t12 -9q6 -1 19 0.5t27.5 3.5t27.5 4t20 2q12 0 22.5 3t19.5 3q7 0 10.5 -5t3.5 -11q0 -9 -5 -15t-11.5 -10t-14.5 -6t-14 -4q-5 -2 -8 -2.5t-8 -0.5q-8 0 -22.5 -0.5t-30.5 -0.5t-30 -0.5t-21 -0.5q-5 0 -10.5 -2t-10.5 -8q-3 -4 -7.5 -10.5l-9 -13
t-8 -12t-4.5 -6.5q-7 -11 -12 -26t-11 -27q-4 -8 -3.5 -22.5t-1.5 -23.5q-3 -20 -12.5 -36.5t-9.5 -40.5q0 -20 12.5 -38.5t32.5 -18.5q13 0 35 3.5t45.5 11.5t43.5 20t29 30q1 3 4.5 7.5t7.5 9t8 7.5t7 3q3 8 3.5 10.5t4.5 10.5t8 15.5t5 17.5q0 1 0.5 6t1.5 10.5t2 10.5
t2 7l15 31q0 1 3 10t5 14q0 1 1.5 8.5t1.5 8.5q0 2 2.5 6t2.5 6q7 18 9 37t7 37q1 6 3 10t6 9l10 26q6 17 15.5 31.5t20.5 28.5q4 5 4.5 11t2.5 11q4 9 10.5 17t10.5 16q0 2 2.5 8t2.5 10q0 1 2 7t2 7q2 8 5.5 8.5t5.5 5.5q0 2 3.5 7.5t3.5 7.5q2 1 5.5 5.5t5.5 5.5l4 9l1 3
q2 5 9 13.5t9 13.5q4 21 17.5 36t26.5 30q3 2 12 11t13 12l8 8q20 18 38 34.5t45 16.5q17 0 30 -8t22 -20t13.5 -26.5t4.5 -28.5q0 -20 -4 -33t-13 -28q-3 -4 0.5 -1.5t1.5 -2.5q-5 -5 -9.5 -10.5t-9.5 -12.5q-8 -14 -12 -24.5t-15 -24.5q-9 -11 -19 -20.5t-17 -22.5
q-3 -2 -8.5 -7.5l-12 -12l-12 -12t-7.5 -8.5q-11 -12 -19.5 -21t-17 -16.5t-18 -15t-21.5 -16.5q-5 -2 -9.5 -4t-9.5 -2q-6 0 -7 4v6q0 7 3 11.5t7 7.5t9 5t10 6l4.5 4.5t3.5 4.5l5 5t8 8.5t7.5 8.5t4.5 5q4 5 8.5 7.5t6.5 5.5q2 2 5.5 11t5.5 11l14 18q1 2 7.5 8.5t8.5 7.5
q1 1 4.5 6t7.5 11.5t7.5 12.5t5.5 9l15 26q0 2 1.5 8t1.5 8q3 10 4 15t2 9t1 9.5v16.5q0 18 -9.5 30t-20.5 12q-18 0 -32 -12t-25 -28.5t-22 -33.5t-23 -28q-2 -5 -8 -16t-8 -16q-3 -8 -4 -17t-6 -19t-12 -18.5t-12 -18.5q-2 -12 -2.5 -26t-4.5 -26q-6 -16 -11.5 -25
t-9.5 -17.5t-6.5 -18.5t-1.5 -28q-6 -14 -18 -26q-11 -22 -19 -41.5t-18 -39.5q-5 -12 -11 -24t-6 -26v-9q5 -5 9 -6.5t11 -1.5q8 0 20.5 10t26 23t25.5 25.5t19 16.5q13 8 23.5 11.5l25.5 8.5q10 4 18 7t19 3q7 0 18 -1.5t21 -5t17 -10.5t7 -19q0 -6 -1.5 -16.5t-3.5 -22
t-4 -21.5t-4 -15q-1 -2 -9.5 -14.5t-19 -27.5t-19 -28t-8.5 -14q-2 -2 -4.5 -10.5t-2.5 -9.5v-20q-1 -6 -3 -8.5t-3.5 -4t-3 -4.5t-1.5 -10l-13 -34q0 -8 9 -11.5t14 -3.5q14 0 23.5 6t22.5 14q5 3 10.5 4.5t9.5 4.5q7 5 12.5 9t13.5 4q7 0 13 -2.5t6 -10.5q0 -5 -4 -10
t-8 -7q-35 -25 -64.5 -39.5t-71.5 -21.5h-8q-19 0 -33.5 8t-14.5 30q0 13 6 22.5t11 23.5q2 7 2.5 9.5t0.5 5t0.5 5.5t2.5 10q2 5 4.5 10.5t4.5 9.5q2 6 3.5 16t6.5 17q3 5 6.5 8.5t6.5 8.5q3 6 10 18.5t13.5 27t12 27t5.5 18.5q0 17 -5.5 23t-22.5 13h-1q-8 0 -20 -1
t-19 -6q-1 0 -4 -4.5t-4 -4.5q-3 -2 -13 -10.5t-21.5 -18t-21 -18t-12.5 -11.5q-2 -1 -10 -9l-9 -9t-5 -4.5t-8.5 -7.5t-8.5 -8l-5 -5q-1 0 -3 -2q-1 -1 -2 -1q0 -1 -3.5 -7t-3.5 -7q-8 -13 -18 -27.5t-16 -27.5q-5 -10 -7.5 -19.5t-4.5 -19.5q-3 -8 -8 -18t-8 -15
q-4 -10 -5 -18.5t-3 -17.5q-5 -11 -10.5 -19t-12.5 -17q-2 -5 -10 -16.5t-10 -16.5q-8 -9 -19 -9q-15 0 -19 13.5t-4 27.5z" />
    <glyph glyph-name=".notdef" horiz-adv-x="250" 
 />
    <glyph glyph-name=".null" horiz-adv-x="0" 
 />
    <glyph glyph-name="nonmarkingreturn" horiz-adv-x="333" 
 />
    <glyph glyph-name="space" unicode=" " horiz-adv-x="250" 
 />
    <glyph glyph-name="exclam" unicode="!" horiz-adv-x="267" 
d="M40 68q0 22 18.5 37.5t39.5 15.5q9 0 18.5 -6.5t17.5 -16t13 -20.5t5 -20t-5 -20t-13 -20.5t-17.5 -16t-19.5 -6.5q-14 0 -19.5 7t-14.5 14q-23 21 -23 52zM106 219q0 6 2.5 12t2.5 12v126q0 14 9 29t9 29v35q0 7 3 13t3 13q0 10 -0.5 19.5t-0.5 18.5q0 19 14 38.5
t34 19.5q10 0 23 -1t24 -5.5t18.5 -12.5t7.5 -23q0 -14 -7 -25.5t-14 -22.5q-1 -3 -3.5 -12.5t-4.5 -12.5q-1 -2 -1 -7q0 -2 -1 -4v-36q0 -5 -2.5 -10t-4.5 -8l-14 -48q-1 -2 -2.5 -4.5t-1.5 -3.5q-5 -14 -9 -28t-9 -28q0 -2 -2.5 -9t-4.5 -15t-4.5 -15t-2.5 -9
q-6 -19 -11.5 -28t-21.5 -21q-2 -2 -4 -1.5t-5 0.5q-10 0 -14.5 7.5t-4.5 17.5z" />
    <glyph glyph-name="quotedbl" unicode="&#x22;" horiz-adv-x="459" 
d="M169 363q-1 8 3 16.5t10 17t11.5 16.5t7.5 15q4 14 11 30q9 19 18.5 38t11.5 39q1 4 -1.5 18.5t-2.5 18.5q-2 8 -0.5 17t0.5 17q1 2 1.5 5t2.5 5q1 3 4 9.5t6 14.5t6 14.5t5 9.5q4 11 10 21t19 15q10 4 15 1.5t7 -8.5t3 -13.5t2 -11.5q2 -2 4.5 -8.5t2.5 -8.5v-1
q2 -14 -0.5 -27t-7.5 -26q-2 -10 -2.5 -18.5t-4.5 -18.5q0 -2 -3 -7.5t-6 -12t-6 -12.5t-4 -7q-10 -26 -20 -48q-12 -25 -28.5 -49.5t-33.5 -49.5q-10 -12 -23 -15q-13 -6 -18 4zM305 361q0 7 5.5 15.5t12 17t13.5 16.5t11 15q4 8 7.5 15.5t8.5 14.5q11 20 24 39t18 39
q1 4 1 19t1 20q-1 8 1.5 16.5t3.5 17.5q0 2 1.5 5t3.5 5q1 3 5 10t8.5 14.5t8.5 14.5t6 9q6 11 14 21.5t22 14.5q10 4 14 1t5.5 -9t1.5 -13.5v-12.5q2 0 3.5 -8t1.5 -10l-1 -1q1 -13 -4 -26t-12 -27q-4 -10 -5.5 -18t-6.5 -18q-1 -2 -5 -8t-8.5 -12.5t-8.5 -13t-5 -7.5
q-6 -12 -12.5 -24t-14.5 -23q-16 -26 -36.5 -50.5t-41.5 -48.5q-5 -6 -11.5 -10t-12.5 -7q-7 -2 -12 -1t-5 8z" />
    <glyph glyph-name="numbersign" unicode="#" horiz-adv-x="569" 
d="M181 172q0 17 10.5 43.5t20.5 49.5h-132l-5 5v15q0 35 35 35h5l15 -5q48 -5 97 -6l13 57q-5 -1 -15 -1q-11 0 -20 5t-20 5t-20 -2.5t-20 -2.5t-20.5 9.5t-9.5 20.5t3.5 13.5t11.5 6.5h124q0 2 2 6q2 9 7 30t12.5 42t17 37t18.5 16q11 0 18 -9.5t7 -20.5q0 -20 -15 -35
q0 -8 -2.5 -27.5t-2.5 -27.5q0 -7 -3 -11h58q8 30 13 60t7 61q4 11 14 13t21 2h15q8 -4 9 -8t1 -12v-10l-31 -106q21 1 39.5 5.5t40.5 4.5q35 0 35 -40q0 -4 -1 -12t-9 -8h-121q-11 -15 -14.5 -30.5t-4.5 -30.5q24 1 47.5 1h47.5q8 -4 11.5 -6.5t3.5 -13.5q0 -8 -3.5 -14.5
t-11.5 -10.5h-65h-18t-17 1l-4 -14q-3 -4 -5 -8q-5 -7 -5 -12q-6 -9 -8 -23t-5 -26.5t-10 -21.5t-22 -9q-8 0 -14 9.5t-6 20.5q0 15 8 25t12 25q2 9 4 18.5t4 18.5q-6 1 -12 1h-12h-5l-15 -5h-16q-4 -13 -9 -29.5t-10 -32t-9 -28t-5 -18.5q-4 -11 -8 -13t-12 -2
q-35 0 -35 30zM305 375q-5 0 -9 -0.5t-8 -0.5q-3 -15 -4 -31.5t-4 -33.5h60q4 15 8.5 30t9.5 31h-18q-11 4 -19 4.5t-16 0.5z" />
    <glyph glyph-name="dollar" unicode="$" horiz-adv-x="519" 
d="M461 539q-6 49 -17 68q-18 31 -61 31q-9 0 -13 -1q-4 -12 -9.5 -29.5t-12.5 -40.5q-10 -33 -21 -70.5t-22 -79.5q33 -19 54 -32t30 -21q41 -35 41 -76q0 -14 -5 -32q-8 -29 -19 -41q-29 -107 -193 -142q-25 -79 -47 -79q-5 0 -7 1q-6 3 11 71q-10 -1 -19 -1.5t-18 -0.5
q-44 -1 -116 40l-7 12l1 7q8 36 42 97h4q14 0 15 -37q1 -42 18 -56q16 -13 91 -16q11 41 27.5 98.5t39.5 132.5q-28 16 -46.5 29t-29.5 23q-35 33 -35 69q0 58 63 120q62 59 119 68q5 2 9.5 4t9.5 4q6 21 11.5 38.5t8.5 17.5q2 0 6.5 -4.5t8.5 -4.5q7 0 9 -11q0 -12 -4 -29
h15.5t24.5 1q29 0 58 -15q32 -17 32 -42q0 -29 -34 -70zM330 629q-86 -27 -105 -96q-3 -11 -3 -22q0 -42 54 -76zM352 216q3 9 3 18q0 42 -75 89l-32 -125q-7 -27 -12.5 -48.5t-10.5 -37.5q21 3 41.5 12t37.5 23t29.5 31.5t18.5 37.5z" />
    <glyph glyph-name="percent" unicode="%" horiz-adv-x="633" 
d="M140 -38q-1 -2 -2 -3q-2 -3 -9 -14.5t-8 -15.5q-1 -3 -2 -5q-5 -5 -12 -10.5t-12 -6.5l-19 1l-10 3v2q-4 15 12 33q5 7 11 12l12 10q2 2 8 9.5t8 9.5q12 14 23 28t21 30l134 158q7 3 13 10q7 8 10.5 15.5t8.5 15.5q5 7 7.5 9.5t8.5 9.5q3 4 9 11.5t12 16t11.5 16
t8.5 11.5l3 3q2 2 5 9t5 9q4 7 4.5 12.5t5.5 10.5q2 2 3.5 2.5t3.5 2.5q4 4 12 9q4 3 9 5l2 1h7q3 0 6.5 0.5t5.5 0.5q3 1 6.5 -0.5t6.5 -2.5l4.5 -4.5t3.5 -7.5q0 -5 -0.5 -11t-5.5 -12l-147 -183l-5 -3q-1 -1 -4.5 -5l-7 -8t-7.5 -8l-5 -5q-11 -11 -22.5 -18.5
t-19.5 -18.5q-7 -6 -8 -10.5t-6 -12.5l-11 -11q0 -2 -4 -8t-6 -8q0 -1 -3.5 -6.5t-4.5 -6.5q-4 -6 -6.5 -11t-5.5 -9q-13 -15 -28 -24.5t-26 -22.5zM5 217q-1 8 4 14t8 12q5 12 8.5 27.5t16.5 26.5l48 39q5 5 9 5q16 0 27.5 7t26.5 7q4 0 11 -2t14.5 -5t14.5 -6.5t11 -6.5
q2 -2 8 -7.5t13 -13t12 -16.5t5 -18v-52q0 -10 -10.5 -26t-17.5 -26q-11 -17 -22 -20.5t-26 -13.5q-6 -5 -11.5 -9.5t-13.5 -4.5h-49q-5 0 -12 2.5t-14.5 6t-14 7t-9.5 5.5q-16 8 -18.5 19t-6.5 21q-3 6 -7.5 13.5t-4.5 14.5zM63 228q0 -8 1 -15t9 -13l17 -13
q4 -2 10.5 -4.5t11.5 -2.5q8 0 15 3t9 5l29 21q6 11 14 21t8 23q0 28 -9 39t-34 11q-20 0 -33 -9q-6 -4 -14.5 -10.5t-16 -14t-12.5 -16.5t-5 -18v-7zM321 50q-1 8 4 14t8 12q5 12 8.5 27.5t16.5 26.5l48 39q5 5 9 5q16 0 27.5 7t26.5 7q4 0 11 -2t14.5 -5t14.5 -6.5
t11 -6.5q2 -2 8 -7.5t13 -13t12 -16.5t5 -18v-52q0 -10 -10.5 -26t-17.5 -26q-11 -17 -22 -20.5t-26 -13.5q-6 -5 -11.5 -9.5t-13.5 -4.5h-49q-5 0 -12 2.5t-14.5 6t-14 7t-9.5 5.5q-16 8 -18.5 19t-6.5 21q-3 6 -7.5 13.5t-4.5 14.5zM379 61q0 -8 1 -15t9 -13l17 -13
q4 -2 10.5 -4.5t11.5 -2.5q8 0 15 3t9 5l29 21q6 11 14 21t8 23q0 28 -9 39t-34 11q-20 0 -33 -9q-6 -4 -14.5 -10.5t-16 -14t-12.5 -16.5t-5 -18v-7z" />
    <glyph glyph-name="ampersand" unicode="&#x26;" horiz-adv-x="1254" 
d="M0 271q1 11 6.5 20.5t8.5 20.5q0 2 1.5 8t1.5 7q2 11 11.5 18t14.5 14q5 6 8 12.5t8 12.5q9 14 20.5 26t21.5 24q2 2 5 6.5t5 6.5l1 1q15 11 31.5 22.5t23.5 28.5v10q0 12 -0.5 24.5t-0.5 23.5q0 14 1.5 28t8.5 25q2 2 5 7.5t5 6.5l1 3l8 34q0 2 3 5t3 4q20 29 52 49
q8 6 11 12.5t9 13.5q5 8 15.5 16t19.5 13q3 2 11 6t17 8t17 8l12 6q5 2 9 3t9 3h58q8 0 21.5 2t21.5 2t13.5 -1t12.5 -6q7 -4 12.5 -8.5t8.5 -11.5q3 -5 8.5 -19t7.5 -19v-10q0 -10 -2 -17t-4 -16q-8 -26 -18 -36t-34 -15q-2 0 -7.5 -1.5t-6.5 -1.5h-3q-8 0 -15 5.5t-7 13.5
q0 5 0.5 6.5t4.5 6.5q1 2 4 6t6.5 8t6.5 7.5t4 4.5q8 13 8 29q0 30 -20 37.5t-44 7.5h-22q-14 0 -24 -7t-22 -12q-10 -5 -20 -8t-18 -11q-1 -2 -5 -6.5t-6 -6.5l-1 -1l-52 -64q-5 -6 -7.5 -14t-4.5 -14q-8 -15 -12 -27.5t-4 -29.5q0 -23 3 -39t26 -26q6 -3 13.5 -5.5
t12.5 -2.5q10 0 19 0.5t18 0.5h18q6 -3 12.5 -4t12.5 -5q15 -11 25 -26.5t10 -36.5q0 -15 -10.5 -23t-25 -12t-30.5 -5t-26 -1q-8 0 -22.5 5t-20.5 10q-8 6 -15.5 15t-15.5 17t-17 13.5t-20 5.5q-9 0 -18 -5t-17 -11.5t-15.5 -14t-14.5 -13.5q-3 -2 -5.5 -3t-6.5 -4
q-2 -1 -5.5 -5.5t-5.5 -6.5q-2 -3 -8 -13.5t-8 -13.5v-2q0 -2 0.5 -4.5t0.5 -4.5q0 -8 -4.5 -16.5t-6.5 -14.5q0 -1 -1.5 -5.5t-1.5 -6.5q-2 -8 -7.5 -14.5t-7.5 -16.5v-13q0 -15 -0.5 -30.5t3.5 -29.5q2 -4 4 -7t4 -7q1 -3 5 -14t5 -15q11 -17 23 -32t26 -29q5 -5 10 -7
t10 -5q2 -2 8 -7.5t8 -6.5q10 -9 20 -12.5t22 -9.5q1 0 6 -2.5t10.5 -5t10.5 -4.5t6 -3q9 -3 20.5 -3.5t21.5 -0.5q15 0 36 -0.5t36 4.5q6 2 15.5 5.5t10.5 3.5l62 45l3.5 3.5l8 8t8.5 9.5t7 8q11 13 14.5 31t8.5 35q2 7 4 11.5t2 12.5q0 5 -2 13t-5 13q-8 5 -11.5 8
t-11.5 3q-5 0 -8 -3t-5 -7l-4 -8t-6 -7q-7 -5 -15 -5.5t-16 -0.5q-9 0 -19 1t-18.5 5t-14 10.5t-5.5 17.5v15.5t5 15.5q1 1 4.5 5t7 8.5t7 8l4.5 4.5q8 9 14 13.5t12 7.5t14 4.5t20 3.5q1 0 6.5 1.5t6.5 1.5h4q8 0 13 -4.5t13 -6.5h16q2 0 8.5 -1.5t8.5 -1.5t8 -2.5t8 -2.5
t7.5 -1.5t7.5 -1.5q1 0 9.5 -0.5t10.5 -0.5q18 -4 29.5 -7.5t29.5 -1.5q12 -5 20.5 -12.5t19.5 -12.5q9 -4 19 -2.5t19 -0.5q1 -1 7 -2.5l12 -3t11.5 -3t6.5 -2.5q11 -2 18.5 -1t18.5 0q23 -2 46.5 -6.5t46.5 -4.5q7 0 14 1.5t14 1.5q8 0 15 -3t15 -3q12 0 20.5 4.5
t19.5 6.5q2 0 13 1.5t13 1.5q10 1 21 1.5t21 4.5q2 1 6.5 3.5t8.5 4.5l8 4t7 3q2 0 4 4t4 4q8 5 15.5 9t14.5 9l5 5t5 4l1 3q2 6 8.5 9.5t11.5 9.5q4 3 5 8t3 9q1 1 3.5 5t3.5 5q2 2 6.5 8t6.5 8q0 1 2 6.5t2 6.5q4 11 11 22t13 22t10.5 22.5t4.5 24.5v63q0 12 -6.5 29.5
t-16.5 25.5l-7 3q-11 7 -18.5 19.5t-17.5 21.5q-14 13 -25.5 14.5t-26.5 8.5q-8 4 -18.5 9.5t-21.5 5.5h-45q-1 -1 -2 -1h-4q-1 0 -5 -2q-2 -1 -4 -1q-1 -1 -6 -3.5l-11 -5.5t-11.5 -6t-8.5 -4q-14 -8 -23.5 -22.5t-14.5 -29.5v-21v-16.5t2 -17.5q0 -3 2 -9.5t4 -14.5
t3.5 -15t2.5 -10q7 -14 21.5 -18t27.5 -9q1 -2 7.5 -5t7.5 -5q2 -1 7.5 -3.5t8.5 -3.5h1q2 0 5.5 0.5t5.5 0.5q6 0 6 -4t-6 -8q-9 -1 -23.5 -3t-24.5 -2q-27 0 -48 13.5t-37 35.5q-10 13 -18.5 26t-12.5 30q-2 10 -3.5 21.5t-1.5 22.5q0 19 8 36.5t20.5 32.5t28 27.5
t31.5 21.5q5 3 9.5 3.5t11.5 2.5q17 5 29 9.5t29 4.5q30 0 65 -6.5t61 -22.5q2 -2 7.5 -8t12 -12t12 -12t8.5 -8q0 -1 3 -4.5t6 -7.5t5.5 -8t3.5 -5q11 -15 20 -28t14 -31q1 -15 2.5 -31t1.5 -31v-13q0 -5 -1.5 -21t-2.5 -21l-2 -4q-6 -14 -10 -26t-10 -26
q-13 -34 -37.5 -64t-51.5 -53q-5 -5 -12.5 -6t-13.5 -3q-5 -2 -8 -5t-8 -7q-8 -6 -14 -9t-14 -6l-2 -2q-14 -17 -31.5 -25t-36.5 -11.5t-39 -5.5t-39 -8h-31q-21 0 -38 1t-37 3q-14 2 -32 1.5t-32 4.5q-2 2 -12.5 6t-12.5 5q-5 2 -10 2.5t-10 2.5q-25 13 -50 23q-1 0 -5.5 1
t-10 2.5t-10 2.5t-5.5 1q-20 6 -41 17t-43 11q-6 0 -16 -2.5t-10 -11.5v-20q0 -6 5.5 -11t5.5 -10v-13q0 -2 1 -4t2 -3q3 -8 3.5 -17.5t0.5 -17.5t-3.5 -16t-5.5 -15q0 -2 -1.5 -7t-1.5 -7q-4 -11 -11 -20.5t-15 -17.5q-37 -37 -74.5 -64.5t-90.5 -35.5q-2 0 -10.5 -0.5
t-18.5 -1.5t-18.5 -1.5t-10.5 -0.5t-7 -1t-11 -2t-11.5 -2t-6.5 -1h-7q-14 0 -25 4t-24 8q-2 0 -6.5 1.5t-6.5 1.5q-23 7 -44 20.5t-40 28.5l-23 23q-1 2 -3.5 6.5t-3.5 5.5t-4 5t-6.5 8t-6.5 8t-3 5l-2 3q-3 10 -7 19l-8 18q-6 17 -6 37.5v39.5v29zM266 479q0 -8 4.5 -13
t9.5 -10q11 -11 25.5 -18t31.5 -7q11 0 20.5 5.5t9.5 19.5q0 13 -10.5 24t-21.5 14h-18q-13 0 -21.5 -0.5t-20.5 -2.5q-3 -2 -6 -5.5t-3 -6.5z" />
    <glyph glyph-name="quotesingle" unicode="'" horiz-adv-x="224" 
d="M97 420q0 6 3 8q2 2 6.5 4t5.5 2h13q18 1 36 13q2 1 6.5 6.5t6.5 7.5q2 3 4 13.5t2 14.5q0 11 -4 14t-9 9q-4 4 -6 9.5t-4 10.5v6q0 15 11 26t25 11q10 0 22.5 -6.5t20.5 -11.5q4 -2 8 -3t6 -5q10 -15 10 -29q0 -11 0.5 -23.5t-4.5 -23.5q-2 -5 -4.5 -10.5t-7.5 -10.5
q-2 -2 -3 -2t-3 -2l-2 -2q-4 -8 -10 -13l-12 -10q-3 -3 -9 -11q-2 -1 -5 -1t-5 -2q-10 -7 -24 -14t-26 -7q-8 0 -12.5 2t-11.5 4q-9 5 -16.5 9t-7.5 17z" />
    <glyph glyph-name="parenleft" unicode="(" horiz-adv-x="292" 
d="M226 586q-3 -13 -23 -33q-29 0 -87 -126q-26 -55 -42 -95t-22 -66l-18 -77q-1 -3 -1 -16q0 -20 2.5 -46t7.5 -57q10 -66 22 -78q5 -23 25 -52l35 -49q1 -8 0.5 -13.5t-1.5 -9.5q-8 -30 -32 -29q-28 1 -59 109q1 3 1 11q0 24 -21 54q-20 31 -20 37q-2 101 19 185
q22 100 63 198q56 138 114 172q6 2 11 1q30 -2 26 -20z" />
    <glyph glyph-name="parenright" unicode=")" 
d="M295 407q1 -97 -20 -186q-24 -97 -65 -197q-59 -139 -116 -173q-6 -2 -11 -1q-30 1 -26 20q5 15 23 33q29 0 89 126q53 111 65 161l19 77q1 4 1 19q0 42 -9 102q-10 65 -21 76q-3 23 -25 52l-33 49q-1 8 -0.5 13.5t1.5 9.5q8 30 31 29q28 -1 58 -109q-1 -4 -1 -11
q0 -25 20 -54t20 -36z" />
    <glyph glyph-name="asterisk" unicode="*" horiz-adv-x="569" 
d="M551 377q0 -18 -12 -34.5t-29 -16.5q-8 0 -21.5 5.5t-23.5 5.5q-14 -9 -30 -9q-5 0 -16 1.5t-16 1.5q-21 0 -21 -14q0 -7 6.5 -13t14.5 -10.5t14.5 -6.5l6.5 -2q5 -10 11 -14t13.5 -7.5t17 -9t22.5 -19.5q5 -6 9 -10t6 -7q3 -4 5 -5q0 -9 -9 -17t-19 -8q-1 0 -9 4.5
t-17 10.5t-17.5 10.5t-9.5 4.5q-46 64 -60 64q-17 0 -17 -23q0 -11 4 -29t9.5 -35.5t9.5 -29.5t4 -10q0 -18 -13.5 -31.5t-32.5 -13.5l-9 4q-22 22 -22 49q0 4 2 14.5t4 24t4 27.5t2 26q0 25 -7 29h-7q-36 -36 -47 -70q-58 -55 -72 -55q-16 0 -16 32q0 24 50 60t50 61
q0 14 -12 14q-4 0 -20 -3.5t-35 -7t-36 -7t-23 -3.5q-45 0 -45 30q0 25 65 25q6 0 18 -2t25.5 -4.5t25.5 -4.5t18 -2q37 0 37 18q0 15 -6 23l-71 31q-70 37 -70 70q0 10 8 19t19 9q9 0 66 -59t74 -59q5 0 13 6v1q0 2 -5.5 19t-12.5 39.5t-12.5 45t-5.5 35.5q0 28 22 28
q8 0 16 -8t14 -19.5t10 -25t4 -23.5q0 -8 -1.5 -23.5t-1.5 -23.5q0 -39 29 -39q-1 0 9.5 17.5t24.5 38t28 38t20 17.5q25 0 25 -25q0 -8 -12 -25t-27 -35t-27 -33t-12 -19q0 -8 7 -15.5t16 -7.5q-2 0 52 17q56 17 59 17q18 0 18 -19z" />
    <glyph glyph-name="plus" unicode="+" horiz-adv-x="402" 
d="M66 156q-4 0 -12.5 -4t-14.5 -4q-4 0 -8.5 2t-6.5 6l-7 15v10q6 15 20 15q8 0 14.5 -2.5t17.5 -2.5t21 1t20 3h30l16 13l2 25l-5 86q0 9 9.5 12.5t15.5 4.5q7 0 15 -2t12 -4l2 -1q0 -1 4.5 -8.5t4.5 -8.5q0 -6 -4 -13t-6 -13q0 -7 1 -11t2 -12q1 -11 -2.5 -17.5
t-2.5 -15.5q0 -3 1 -5.5t2 -4.5l4 -15l16 -10q3 -3 9 -3q10 0 17 3t18 3q7 0 11.5 -1t10.5 -1q6 2 13.5 6t13.5 4l8 -4q8 -4 9 -4l1 -2q2 -3 4.5 -11t2.5 -15q0 -6 -3.5 -15.5t-12.5 -9.5l-96 1l-15 -7l-4 -26l-2 -9q-2 -10 -2.5 -19.5t-0.5 -20.5q1 -11 3 -17t3 -14
q0 -15 -14 -21h-10l-15 6q-4 2 -6.5 6.5t-2.5 8.5q0 6 4 14.5t4 12.5q-1 10 -7.5 18.5t-6.5 18.5q-1 7 -1 13t-1 17q0 16 -0.5 21t-19.5 5q-11 0 -19 -4.5t-16 -4.5q-10 0 -19 6t-19 6z" />
    <glyph glyph-name="comma" unicode="," horiz-adv-x="148" 
d="M-41 -89q0 6 3 8q2 2 6.5 4t5.5 2h13q18 1 36 13q2 1 6.5 6.5t6.5 7.5q2 3 4 13.5t2 14.5q0 11 -4 14t-9 9q-4 4 -6 9.5t-4 10.5v6q0 15 11 26t25 11q10 0 22.5 -6.5t20.5 -11.5q4 -2 8 -3t6 -5q10 -15 10 -29q0 -11 0.5 -23.5t-4.5 -23.5q-2 -5 -4.5 -10.5t-7.5 -10.5
q-2 -2 -3 -2t-3 -2l-2 -2q-4 -8 -10 -13l-12 -10q-3 -3 -9 -11q-2 -1 -5 -1t-5 -2q-10 -7 -24 -14t-26 -7q-8 0 -12.5 2t-11.5 4q-9 5 -16.5 9t-7.5 17z" />
    <glyph glyph-name="hyphen" unicode="-" horiz-adv-x="295" 
d="M49 147q-7 0 -10 3q-2 1 -4.5 2.5t-5.5 2.5q-4 1 -7 2l-3 6v7v10l1 2q0 1 1 1l14 16l2 1q2 1 12 4t13 4h3q1 0 2 1h33l18 -5h85q10 0 18.5 -4.5t16.5 -8.5q5 -6 9 -14t4 -14t-5 -16t-13 -10h-101q-20 5 -41 8t-42 2z" />
    <glyph glyph-name="period" unicode="." horiz-adv-x="146" 
d="M16 64q0 6 0.5 12t5.5 11q9 10 20 20.5t25 10.5q23 0 42 -16.5t19 -39.5q0 -21 -15 -36t-35 -15h-9q-2 0 -13.5 3.5t-16.5 4.5q-13 4 -18 19t-5 26z" />
    <glyph glyph-name="slash" unicode="/" horiz-adv-x="500" 
d="M143 80q-1 -1 -3 -5q-1 -2 -3 -4q-1 -2 -3 -8.5t-4 -14t-3.5 -14t-2.5 -9.5q-1 -5 -2 -8l-12.5 -15t-14.5 -11l-25 -1l-13 5l-1 3q-5 10 -3.5 23t9.5 26q5 11 11.5 18t13.5 15q2 4 8 15t7 15q12 22 22.5 43.5t18.5 44.5l130 242q8 5 14 16q7 11 9 23t7 24q5 11 7.5 15
t7.5 14q6 11 12.5 20t11.5 20q0 1 1 2l3 3q1 4 3 14.5t4 13.5q3 10 2.5 18t4.5 16q1 2 3 4l4 4l14 14q4 4 10 8l2 1q5 0 9 1q10 2 15 2q5 1 9.5 -0.5t8.5 -3.5q3 -3 7.5 -6.5t6.5 -9.5q2 -8 3 -17t-4 -18l-126 -236l-6 -4l-4 -8t-7 -12.5t-7.5 -12.5t-4.5 -8
q-11 -16 -24 -28.5t-21 -28.5q-7 -10 -7 -16.5t-4 -18.5q-1 -1 -5.5 -8t-5.5 -9t-4 -12t-5 -12q0 -1 -3 -9.5t-4 -10.5q-2 -9 -4 -16.5t-6 -14.5q-12 -23 -29.5 -38t-27.5 -35z" />
    <glyph glyph-name="zero" unicode="0" horiz-adv-x="395" 
d="M-23 132q-1 11 6 20.5t11 19.5q7 18 12.5 42t23.5 40l66 60q2 2 7 4.5t6 2.5q11 0 20.5 3.5t18.5 7t17.5 7t19.5 3.5q6 0 15.5 -3.5t20 -8t20 -9.5t14.5 -9q3 -3 12 -11.5t18 -20t16.5 -25.5t7.5 -27v-80q0 -7 -4.5 -17.5t-10.5 -21.5t-13 -21.5t-11 -17.5
q-8 -13 -15.5 -20t-15.5 -11.5t-17 -8.5t-19 -12l-16 -14t-20 -7h-68q-6 0 -16.5 4t-21 9t-19.5 10.5t-12 8.5q-11 6 -17 13t-9 15t-5 16t-5 16q-4 9 -10.5 20.5t-6.5 22.5zM41 132q-1 -14 0.5 -28.5t15.5 -26.5l28 -26q6 -5 17 -9t20 -4q12 0 23.5 5t16.5 10l47 43
q11 20 24 40t13 46q0 56 -15 78.5t-57 22.5q-32 0 -54 -19q-10 -9 -24 -21t-26.5 -27t-21 -32.5t-8.5 -36.5q0 -4 0.5 -8t0.5 -7z" />
    <glyph glyph-name="one" unicode="1" horiz-adv-x="244" 
d="M-2 67q0 15 4 25.5t10 18.5t12.5 16t10.5 18q4 15 7 30t12 30q8 12 15 27.5t7 29.5q0 11 -4.5 17.5t-10 11.5t-10 10t-4.5 13q0 6 6 11t14 9t16 6.5t13 2.5q12 0 22 -7.5t21 -11.5q14 -6 23 -16.5t9 -24.5q0 -15 -8 -24t-16 -20t-13 -25.5t-13 -28.5q0 -1 -3 -4t-3 -4
q-13 -25 -25.5 -51.5t-12.5 -52.5q0 -6 6.5 -14.5t14.5 -12.5q4 -2 10 -2.5t11.5 -2t9.5 -5t4 -9.5q0 -8 -5.5 -13t-12.5 -7.5t-13.5 -3.5t-7.5 -1h-36q-8 0 -18 4t-19.5 11t-16 15t-6.5 17v18z" />
    <glyph glyph-name="two" unicode="2" horiz-adv-x="386" 
d="M6 32q0 9 6.5 15.5t15.5 12t19 10.5t17 10q3 2 23 13t43.5 26t42 31.5t18.5 29.5q6 15 11.5 31t5.5 33q0 6 -0.5 14.5t-3.5 12.5l-12 17q-4 4 -13 4q-2 0 -11.5 -1t-20.5 -5t-19.5 -12t-8.5 -22q-7 -12 -10.5 -23.5t-17.5 -11.5q-12 0 -18.5 12t-6.5 26q0 25 18 37.5
t40 23.5q4 3 14.5 12t24.5 9h62q5 0 12 -3.5t11 -8.5l34 -42q4 -5 6 -13t2 -15q0 -16 -8 -29q-17 -40 -40 -61t-34 -29q-7 -3 -15 -8t-15.5 -11t-12.5 -14t-5 -18q0 -11 10.5 -19t22.5 -8q13 0 26.5 10.5t30.5 10.5q9 0 17 -6.5t8 -18.5q0 -13 -8 -24t-18.5 -19.5t-21 -13
t-16.5 -3.5l-42 6q-11 2 -27 7.5t-27 5.5h-96q-6 0 -9.5 5.5t-3.5 13.5z" />
    <glyph glyph-name="three" unicode="3" horiz-adv-x="345" 
d="M-83 -182h-5q-1 0 -2 1h1q-15 3 -28 12t-23.5 22t-16.5 27.5t-6 28.5q0 11 5.5 22t13.5 19.5t18.5 14t20.5 5.5q13 0 20.5 -11.5t7.5 -19.5q0 -17 -8 -28t-8 -22q0 -16 14 -32t28 -16h60q0 -1 2.5 0.5t6.5 4t8 4.5l6 3v-1l1 1q9 6 17.5 11t14.5 7l-1 -1q4 3 11 10t14 15
t12 16t5 14l4 43q1 9 -4 18.5t-14 20t-20 23.5t-22 30v-1q-3 3 -3 12t4.5 13t12 5.5t18 2t21.5 2.5q8 1 22 7.5t28.5 17t27 24t16.5 29.5q1 8 1 16.5v16.5q0 23 -3 38.5t-20 30.5h1q-5 3 -14 6t-17 3h-58q-9 0 -16 -3t-13 -6.5t-11 -6.5t-11 -3q-12 0 -17.5 9t-5.5 20
q0 16 10 24.5t23 13.5l7 3v-1q2 1 11.5 4t21 6t21 5t11.5 2l61 -10q1 0 7.5 -2t15 -5.5t17.5 -8t17 -9.5q12 -8 24 -22.5t12 -27.5l-1 -46q0 -1 -0.5 -2t-0.5 -2v-2l-12 -26q-5 -11 -18.5 -20t-18.5 -19h1l-7 -13q-2 -5 -4.5 -9t-7.5 -9l-23 -23l-7 -2h2q-11 -5 -19.5 -11
t-8.5 -18t5.5 -20t12 -15.5t12 -15t5.5 -18.5v-39q0 -10 -6.5 -19.5t-14.5 -18.5t-16 -16t-12 -12v-3v1q-2 -2 -2 -3q-7 -14 -17 -23t-19 -14v1l-25 -20h1q-2 -2 -8 -5t-10 -3h-30q-9 -1 -15.5 -4t-12 -6.5t-11.5 -6t-15 -2.5q-13 0 -24 4.5t-23 12.5h-5z" />
    <glyph glyph-name="four" unicode="4" horiz-adv-x="413" 
d="M88 -164q0 16 8 27.5t10 25.5q2 8 3 16t5 16q5 9 9 17.5t4 19.5q0 13 -5 19.5t-13.5 9.5t-18 4.5t-18.5 4.5q-8 3 -17.5 9t-17.5 6h-42q-16 0 -29.5 -10t-31.5 -10q-7 0 -12 3t-5 11q0 9 9 19.5t22 22t28 23.5t26 25q14 16 31 27t34 19l68 68q2 1 7 5.5t7 5.5q1 1 6 3.5
l10 5l10 5t6 3.5q2 3 8 8t12.5 10t11.5 10t5 8l16 33l17 16q2 3 7 3.5t9 0.5q9 0 15.5 -4.5t6.5 -15.5q0 -10 -3.5 -25.5t-6.5 -23.5q-6 -6 -8.5 -15t-3.5 -18t-3.5 -18.5t-8.5 -16.5l-22 -25q-8 -9 -9.5 -19.5t-1.5 -21.5q0 -30 6.5 -46t16 -23t20.5 -8t20.5 -1.5t16 -3.5
t6.5 -14q0 -6 -4 -8q-15 -18 -35 -21.5t-38.5 -5.5t-32.5 -8.5t-16 -28.5q0 -26 -5 -37.5t-10 -25.5q-3 -8 -3 -24t-1.5 -32.5t-6.5 -28.5t-18 -12q-17 0 -33.5 12t-16.5 29zM65 85q0 -9 1 -12.5t4 -5t7 -1.5t10 -2q11 -3 19.5 -7t19.5 -4q13 0 21.5 6t13.5 16t7 22t2 23
q0 18 -5.5 34t-27.5 16q-9 0 -14.5 -5t-9.5 -12t-8 -14.5t-10 -12.5q-11 -11 -20.5 -17.5t-9.5 -23.5z" />
    <glyph glyph-name="five" unicode="5" horiz-adv-x="356" 
d="M-96 -198q0 12 14.5 22.5t34 20t39 17.5t28.5 16l57 50q7 6 14.5 17t13.5 23t10 23.5t4 19.5v16v15q0 10 -4.5 22t-11 23.5t-14 21.5t-12.5 15q-16 16 -28.5 27.5t-12.5 34.5q0 12 4.5 21t11 17t13.5 16t13 17q4 8 9.5 20t13 23t17 19t21.5 8h116q11 3 17.5 9t12 12
t10.5 10.5t14 4.5t14 -6.5t5 -14.5q0 -3 -5 -17.5t-15 -31t-25 -30t-35 -13.5h-114q-11 0 -20.5 -9.5t-9.5 -18.5q0 -8 4.5 -18.5t10.5 -20t11.5 -16.5t7.5 -8l35 -34q6 -6 8.5 -13t2.5 -14.5v-15.5t2 -15q9 -12 13.5 -24t4.5 -16q1 -12 -6 -21.5t-12 -18.5
q-11 -19 -19.5 -37.5t-25.5 -33.5l-98 -87q-9 -7 -20 -12q-6 -3 -13 -5q-13 -8 -26.5 -9t-27.5 -5q-10 -3 -16.5 -7t-17.5 -4q-18 0 -18 15z" />
    <glyph glyph-name="six" unicode="6" horiz-adv-x="370" 
d="M-28 126q0 13 5.5 26t12.5 26t13 25.5t8 24.5q3 12 6.5 21t8.5 17t13 16.5t19 20.5q7 7 9.5 16.5t12.5 15.5q5 4 14 7.5t14 8.5l67 62q9 9 17 12.5t15 5t14.5 2.5t16.5 5q3 1 11.5 5t18 8.5t18 8t11.5 5.5q14 5 24.5 5.5t27.5 9.5q4 2 5 2q2 0 3.5 -0.5t4.5 -0.5
q5 0 14 -2.5t17.5 -6.5t15 -9t6.5 -10q0 -9 -7.5 -12.5t-17.5 -5t-20.5 -1t-15.5 -0.5q-29 -13 -50 -22.5t-53 -15.5q-14 -6 -25 -16.5t-22 -19.5t-24.5 -15.5t-23.5 -17.5q-7 -8 -10 -16.5t-8 -16.5q-6 -5 -17 -10t-21.5 -11t-19.5 -13t-10 -14q-2 -8 -2.5 -14.5
t-2.5 -13.5q-5 -11 -11 -20t-6 -21v-82q0 -23 19.5 -38.5t42.5 -15.5q12 0 27 7t30 13q4 0 10.5 7.5t12.5 12.5q2 2 5 8t6 13q4 8 8 17l2 9v72q0 8 -7 14.5t-16 12.5t-17.5 11t-11.5 11v9.5t2 10.5t7 9t16 4h8t8 -1l47 -20l16 -15q7 -7 6 -18t3 -18q4 -8 10 -18t6 -20v-5.5
t-2 -6.5l-23 -41q-2 -3 -11 -12t-11 -12q-11 -17 -21.5 -35.5t-31.5 -28.5l-45 -21q-18 0 -33 -8t-31 -8q-11 0 -17 6t-14 13q-8 6 -19 9t-19 10t-11.5 13t-5 11.5t-2 11.5t-3.5 12q-5 13 -10.5 22.5t-5.5 23.5z" />
    <glyph glyph-name="seven" unicode="7" horiz-adv-x="333" 
d="M-161 -159q0 12 9 24t21.5 23t25 20t19.5 14q11 9 20 20.5t20 20.5q7 6 11.5 8t11 6.5t17.5 15.5t30 34q8 10 19 15.5t22 13.5q22 22 43 49t44 47q10 8 23 13t13 22q0 12 -6 19t-15 10t-18.5 4t-16.5 1q-17 5 -37 9t-28 4h-66q-8 0 -15 -3.5t-14 -3.5q-14 0 -14 17
q0 8 9.5 21t22.5 25t27 20.5t24 8.5q7 0 11.5 -2t9.5 -4.5t10.5 -4.5t13.5 -2q14 0 22.5 -4t21.5 -10q7 -4 16 -4.5t17 -0.5h48q8 0 15 3t13.5 6.5t14 6.5t16.5 3h9q14 0 22.5 7.5t19.5 7.5q17 0 17 -17q0 -14 -12.5 -20.5t-18.5 -14.5q-3 -3 -9 -10.5t-13.5 -15.5
t-14 -15.5t-9.5 -10.5q-11 -11 -15 -26t-16 -26q-8 -7 -18 -11t-18 -14l-132 -152q-9 -11 -20 -16.5t-22 -13.5q-16 -13 -28 -28t-38 -29q-2 -3 -7.5 -9t-11.5 -13t-11.5 -13t-7.5 -9q-11 -11 -22 -19q-9 -7 -20 -12.5t-19 -5.5q-7 0 -11.5 6.5t-4.5 14.5z" />
    <glyph glyph-name="eight" unicode="8" horiz-adv-x="375" 
d="M-24 97q-1 13 6 24t16 20l42 41q10 10 24.5 16t19.5 10l23 23q6 6 6 18q0 9 -4 18.5t-9 18.5t-9 17t-4 15v49q0 8 6 17l-1 -1l7 14q0 5 7.5 18.5t18.5 20.5h-1q2 0 4 2q2 1 3.5 2.5l3.5 3.5l10 8l18 10q6 4 15.5 8.5t19 8.5t17.5 7t12 3h51q5 0 8.5 -2.5t8.5 -4.5v1l8 -4
h-1l10 -5q10 -5 19.5 -10t18.5 -19v-1q5 -11 11 -23.5t6 -26.5q-1 -6 -1.5 -14.5t-8.5 -16.5l-16 -19q-6 -10 -9 -16t-5.5 -10t-5 -7t-6.5 -7l-19 -9q-10 -5 -20 -9.5t-19 -8.5q2 0 -2 -1t-11.5 -3.5t-16 -8.5t-14.5 -16v-9q0 -9 4.5 -15.5t9.5 -11.5l13 -18q0 -1 4 -9l5 -6
q4 -13 9 -19t5 -15v-33q0 -7 -3 -11l-10 -22q-2 -6 -9.5 -12.5t-15.5 -13.5l-14 -15l-3.5 -3.5l-3.5 -3.5q-3 -2 -5 -4h1q-6 -5 -15.5 -9.5t-17.5 -7.5h1l-5 -2q-10 -4 -10 -5h1q-8 -4 -15.5 -8t-14.5 -4h-57q-13 2 -25 11v-1q-35 12 -50.5 34t-15.5 62zM36 78q0 -9 0.5 -18
t3 -16.5t8.5 -12t17 -4.5h60q12 0 21.5 6t17.5 14v-1l18 20q7 8 8 21.5t2 24.5q0 17 -3 27t-12 27q-5 10 -8.5 16t-8 9t-10.5 4t-17 1q-12 0 -23 -1.5t-19 -9.5l-27 -26v1q-1 0 -1 -1v-3l-24 -42v1q-1 -5 -2 -9t-1 -7v-21zM176 433l1 1q-2 -2 -8 -7.5t-12 -13t-11 -17
t-5 -20.5v-50q0 -14 7 -22t16.5 -13t20.5 -6.5t20 -1.5q26 0 35 8.5t19 25.5h-1l8 14v-1q4 10 9.5 12.5t11.5 13.5l22 44q3 2 3 10q0 14 -12 28t-26 14h-59z" />
    <glyph glyph-name="nine" unicode="9" horiz-adv-x="418" 
d="M-140 -182q0 6 5.5 13t14 12t17.5 8.5t15 3.5q19 0 34.5 1t29.5 4t29.5 9.5t35.5 17.5q2 0 12.5 9.5t18.5 14.5q14 7 30 14.5t22 13.5q9 7 19 15.5t19 16.5t15 15.5t6 13.5q0 12 1 19t3 10.5t6.5 6t11.5 5.5q16 7 24.5 18.5t14 25t8.5 27.5t8 25q4 10 8 17.5t6 14.5
t3.5 15.5t1.5 22.5q0 11 -8.5 25t-22 26.5t-30.5 21t-33 8.5q-21 0 -39 -11t-32.5 -27.5t-25.5 -34.5t-17 -33q0 -3 -1 -19t-1 -30q1 -13 11.5 -24.5t23 -22.5t22.5 -20.5t10 -17.5q0 -5 -5 -9.5t-11.5 -8t-14 -5.5t-12.5 -2q-7 0 -22 7.5t-30 19.5t-26 26.5t-11 27.5v38
q-1 1 7 14.5t13 28.5q2 23 11.5 40.5t20.5 37.5q13 14 27 19t32 16q7 7 18.5 15t24.5 15t26 11.5t23 4.5q13 0 25 -6t23 -11q22 -10 41 -18.5t31 -27.5q7 -17 18.5 -32.5t11.5 -33.5q0 -12 -5.5 -19.5t-7.5 -18.5t-1 -18t0 -14t-5 -16t-14 -25q-5 -9 -5 -15t-2 -12t-8 -15
t-22 -25q-10 -13 -15.5 -26t-17.5 -24l-146 -130q-9 -8 -16.5 -11.5t-15 -5t-15 -2.5t-16.5 -4q-22 -8 -45 -21.5t-43 -13.5h-70q-11 0 -19 5t-8 14z" />
    <glyph glyph-name="colon" unicode=":" horiz-adv-x="235" 
d="M59 67q0 6 0.5 12t5.5 11q9 10 20 20.5t25 10.5q23 0 42 -16.5t19 -39.5q0 -21 -15 -36t-35 -15h-9q-2 0 -13.5 3.5t-16.5 4.5q-13 4 -18 19t-5 26zM102 302q0 6 0.5 12t5.5 11q9 10 20 20.5t25 10.5q23 0 42 -16.5t19 -39.5q0 -21 -15 -36t-35 -15h-9q-2 0 -13.5 3.5
t-16.5 4.5q-13 4 -18 19t-5 26z" />
    <glyph glyph-name="semicolon" unicode=";" horiz-adv-x="233" 
d="M-12 -73q0 6 3 8q2 2 6.5 4t5.5 2h13q18 1 36 13q2 1 6.5 6.5t6.5 7.5q2 3 4 13.5t2 14.5q0 11 -4 14t-9 9q-4 4 -6 9.5t-4 10.5v6q0 15 11 26t25 11q10 0 22.5 -6.5t20.5 -11.5q4 -2 8 -3t6 -5q10 -15 10 -29q0 -11 0.5 -23.5t-4.5 -23.5q-2 -5 -4.5 -10.5t-7.5 -10.5
q-2 -2 -3 -2t-3 -2l-2 -2q-4 -8 -10 -13l-12 -10q-3 -3 -9 -11q-2 -1 -5 -1t-5 -2q-10 -7 -24 -14t-26 -7q-8 0 -12.5 2t-11.5 4q-9 5 -16.5 9t-7.5 17zM105 299q0 6 0.5 12t5.5 11q9 10 20 20.5t25 10.5q23 0 42 -16.5t19 -39.5q0 -21 -15 -36t-35 -15h-9q-2 0 -13.5 3.5
t-16.5 4.5q-13 4 -18 19t-5 26z" />
    <glyph glyph-name="equal" unicode="=" horiz-adv-x="598" 
d="M118 185q-5 0 -16 -4.5t-19 -4.5q-5 0 -11 2t-8 7l-9 14v10q7 15 26 15q11 0 19 -2.5t22 -2.5q29 0 52 4h150q2 -1 5.5 -2t6.5 -1q12 0 21 3t23 3q9 0 15 -1t14 -1q8 3 17 7t17 4q1 0 11 -4t11 -5l1 -1q2 -4 5.5 -11.5t3.5 -15.5q0 -5 -4.5 -15t-15.5 -10h-145l-6 2
q-23 0 -36 5.5t-27 5.5q-8 0 -12 -2t-18 -2t-24.5 -5t-19.5 -5q-13 0 -24.5 6.5t-24.5 6.5zM371 77q-13 0 -24.5 -6t-24.5 -6q-7 0 -19 5h-11q-2 0 -7 2t-7 2h-11q-6 1 -9.5 3t-9.5 2q-10 0 -19.5 -4.5t-20.5 -5.5q-2 0 -11.5 -1t-11.5 -1l-6 -1h-145q-5 0 -9.5 4t-7.5 7
q-2 3 -2.5 7t-0.5 7q0 9 3 13q0 2 1 4l2 4q1 3 3 5l1 2q3 1 7 3l6 2t5 2q1 1 4 1q6 0 10 -2t9 -3q2 -1 7.5 -3t7.5 -2h4q7 0 12 1t13 1h19q5 -2 11.5 -4t13.5 -2t12 3h150q23 -4 52 -4h18q5 2 11 3.5t12 1.5q8 0 14.5 -3t10.5 -10l1 -2v-10l-9 -15q-2 -4 -8 -6t-11 -2
q-2 0 -4 1q-3 0 -13 3.5t-12 3.5h-6z" />
    <glyph glyph-name="question" unicode="?" horiz-adv-x="420" 
d="M67 28q-5 11 -8 21.5t-3 23.5q0 17 5.5 32t18.5 15h34l4 -2q4 -2 7 -2l17 -10l14 -28q2 -5 2 -10.5v-10.5q0 -12 -3 -22t-7 -18l-8 -16q-4 -3 -12 -6t-13 -3q-16 0 -22 6q1 2 -7 6.5t-19 23.5zM134 254q4 8 7 22.5t3 20.5q0 21 5 28.5t14.5 9t21.5 -1t25 -0.5l41 5
q7 1 15.5 7.5t16.5 8.5l18 6q20 7 29.5 25t12.5 34v44q0 3 -7 4.5t-15 1.5q-7 0 -15 -4.5t-13 -9.5v-3l-5 -9q-13 -10 -29 -10q-6 0 -15.5 3t-18.5 10.5t-16 19.5t-7 30q0 14 5.5 21t5.5 12v1h2q0 1 1 2l2 2l2 2q1 0 2 1t2 1l2 -1q17 20 32.5 30.5t38.5 10.5h13
q13 -2 28.5 -14.5t29.5 -27.5l1 1q1 0 2 -1t2 -1v-1q0 -1 3 -5.5t3 -10.5l15 -21l1 -5q0 -2 2.5 -7.5t5 -12l5 -13t2.5 -10.5v-71l-2 -12q0 -1 -0.5 -2t-0.5 -2l-6 -12q-2 -4 -4 -9.5t-2 -8.5q-19 -12 -27.5 -24t-14.5 -12l-1 1q-1 -1 -1.5 -1t-1.5 -1l-2 -2h-1
q-5 -4 -15 -8.5t-19 -8.5l-8 -7q-5 -3 -7 -3h-55q-24 0 -38 -13.5t-23.5 -29t-18 -29t-21.5 -13.5q-5 0 -12.5 4.5t-7.5 15.5v28q0 5 3.5 10t6.5 10h-1l3 5h1z" />
    <glyph glyph-name="A" unicode="A" horiz-adv-x="1151" 
d="M-8 221q0 12 2 20t5.5 14t7.5 12t8 14l1 -1q2 13 6.5 21.5t9.5 16.5l10 17l8 10q4 3 9 6.5t7 8.5q3 3 18 9t33.5 12t35 10.5t21.5 4.5q12 0 21 -2.5t18 -7.5t19.5 -11.5t25.5 -13.5h1q2 -1 10 -8.5t16.5 -20.5t15.5 -30t7 -37q0 -19 -3.5 -30.5t-3.5 -22.5q0 -6 -0.5 -18
t-4 -24t-10.5 -21t-20 -9q-6 0 -8 3.5t-2 14.5q0 17 6.5 32.5t6.5 32.5q0 18 -6.5 34t-18 29t-25.5 20.5t-29 7.5v3l-6 -2h-40q-7 0 -15.5 -4.5t-17 -10.5t-16 -12.5t-10.5 -9.5q-6 -5 -17 -16.5t-11 -27.5v-71q0 -2 2.5 -9.5t6 -15.5t7.5 -15t6 -9l24 -23q5 -6 10.5 -8.5
t13.5 -4.5l41 -14q20 -7 36 -13t36 -5q16 0 30.5 4.5t28.5 9.5q27 10 25 10h2q14 4 28 9.5t14 8.5q3 6 12 12t18.5 10.5t17.5 8t9 4.5l18 19l15 15t9 8t8 7l12 12q10 13 15.5 17.5t11 10t12.5 17.5t21 39q6 11 18 18t19 17l12 21q8 13 16.5 27.5t31.5 36.5q8 8 14 17t12 20
q17 34 36 51.5t37 32.5h1q5 8 5.5 7.5t1.5 0.5q4 2 7 4.5t3 1.5h1q11 16 26.5 32t26.5 26v-1q4 4 4 5h1q3 2 12 11.5t19 21.5t19 22.5t11 13.5h1l12 26q10 12 21 21t20.5 15.5t15.5 11.5t6 8q0 2 -1 2q7 0 17.5 6.5t22 16t22 21t17.5 21.5q1 2 14.5 13.5t31.5 25t37.5 24.5
t32.5 11q15 0 16.5 -6.5t-2 -16t-9 -21t-5.5 -20.5q0 -8 -3 -17.5t-7.5 -18.5t-9 -17t-7.5 -13l-18 -31l-7 -5l-2 1l-11 -19q-8 -13 -15.5 -25.5t-15.5 -22.5l-1 1q-3 -3 -12 -12.5t-19.5 -21.5t-20.5 -25t-15 -23q-8 -15 -16 -25.5t-16 -22t-16 -27.5t-15 -42l-7 -25
q-2 -5 -3.5 -8l-2.5 -5l-11 -21q-7 -12 -11 -23t-4 -25q0 -3 -1 -10.5t-3.5 -16.5t-5 -18.5t-5.5 -16.5q-11 -17 -17 -38.5t-6 -42.5q0 -10 2.5 -23t6.5 -26t9 -24.5t9 -17.5q0 -1 7 -12t20 -23.5t31 -23t40 -10.5q28 0 48.5 14.5t36.5 32.5t28.5 32.5t23.5 14.5
q17 0 17 -25q0 -14 -3 -19.5t-7 -9t-9.5 -6.5t-9.5 -12q-10 -10 -21 -15t-20 -8l-16 -6l-17 -11q-3 -2 -9 -5t-13 -5.5l-14 -5t-10 -2.5l-61 -1q-15 0 -32.5 8.5t-31.5 17.5l-16 10q-8 5 -18.5 18t-19.5 30t-15.5 35.5t-6.5 35.5t7.5 31.5t7.5 31.5q0 5 2.5 17t6 25.5
t8 25.5t7.5 17q1 1 1.5 6t1.5 11t1.5 11.5t0.5 8.5q0 11 -13 22.5t-27 11.5h-46q-8 0 -18.5 -4t-17.5 -8l-10 -9q-7 -5 -14.5 -10.5t-8.5 -8.5q-7 -17 -16 -29.5t-27 -35.5q-6 -14 -13 -26t-16 -26h-1q-3 -6 -8 -10.5t-11 -9t-11 -9t-7 -11.5q-3 -1 -8 -8.5t-11.5 -17
t-13.5 -18t-14 -11.5q-10 -5 -19 -12.5t-19 -15.5q-19 -17 -33 -26t-25.5 -14t-20 -9t-17.5 -11q-17 -8 -37 -12.5t-39 -11.5l-8 -3q-5 -2 -9.5 -4.5t-6.5 -2.5h-104q-17 0 -40 12.5t-40 22.5h-3v2q-26 20 -41 33t-23 26t-11.5 29t-5.5 43q-1 6 -3 11.5t-4 10.5h-1
q-2 5 -4 12.5t-2 18.5zM1015 13q-2 -1 -4 -1q2 1 4 1zM775 468q0 -13 11.5 -21t25.5 -8q18 0 34.5 10t30 25t23 32t14.5 31q1 7 14.5 26.5t29 42.5t28 43.5t12.5 28.5q0 6 1 9.5t-0.5 5t-7 2t-17.5 0.5q-9 0 -21.5 -7.5t-25 -17t-23.5 -19.5t-15 -15q-6 -3 -18 -21t-25 -39
t-24 -39t-13 -19l-5.5 -4t-12 -11t-11.5 -16t-5 -19z" />
    <glyph glyph-name="B" unicode="B" horiz-adv-x="1165" 
d="M0 189q0 10 2.5 21.5t9.5 18.5l69 69q10 10 25 11.5t28 1.5q11 0 25.5 -0.5t24.5 -10.5l29 -29q8 -8 9.5 -19t1.5 -19q0 -12 -4 -23.5t-11 -21t-17 -15.5t-22 -6q-4 0 -14 4t-18 9q-6 3 -16 13.5t-16 10.5h-33q-2 0 -5.5 -4t-3.5 -6v-37q0 -7 6 -16.5t13.5 -19t15 -18.5
t10.5 -15q4 -4 7.5 -11t9 -13.5t13 -11t19.5 -4.5h127q6 0 15 2.5t18 6.5t17 8t13 7q13 8 26 14.5t27 14.5q5 0 10.5 5t6.5 5l109 109q6 6 12 18t8 20q0 16 1.5 27t4 19.5t6 15t8.5 15.5q5 5 9 15.5t9 23.5t11 26t15 22l21 45q3 22 10.5 42.5t21.5 38.5q9 18 19 33
q8 13 16 25t13 16l46 48q4 5 12 7.5t14 2.5q8 0 10.5 -6t2.5 -13q0 -20 -7.5 -31t-16.5 -17.5t-17.5 -10.5t-11.5 -10q-10 -17 -18.5 -32.5t-16.5 -35.5q-4 -8 -5 -18t-5 -20q-9 -13 -10 -25.5t0.5 -24t2.5 -22.5t-3 -21q-4 -8 -5 -17.5t-3 -16.5q0 -11 -11.5 -31.5
t-18.5 -36.5l-2 -4.5t-5.5 -11t-8 -12.5t-7.5 -8q-2 -3 -6.5 -8.5t-10 -11.5t-9.5 -12t-4 -10q0 -1 -3 -9t-7.5 -18.5t-11 -21t-12.5 -17.5l-67 -43q-11 -11 -26.5 -17t-26.5 -15q-6 -5 -11 -10t-12 -9q-11 -6 -21.5 -7t-21.5 -6q-9 -4 -21.5 -10.5t-26 -13t-26.5 -11.5
t-22 -5h-100q-23 0 -37 11t-36 19q-24 11 -38 22t-22 22t-13.5 24t-13.5 29q-10 12 -16 28.5t-6 33.5zM762 11q-23 20 -42 50t-19 62q0 11 4.5 29.5t15 36t27.5 30t41 12.5q6 0 16.5 -1t20.5 -3.5t17.5 -8t7.5 -14.5q0 -12 -3.5 -16.5t-8.5 -12.5q-8 -15 -14 -22.5
t-12.5 -12t-15.5 -7t-21 -6.5q-6 -5 -9.5 -13.5t-3.5 -15.5q0 -14 10 -26t24.5 -22t30.5 -15.5t28 -5.5q10 0 22 4.5t22.5 10t18.5 10t11 5.5q17 5 26.5 12t16 15t11.5 16.5t13 17.5q9 10 17 20t14 22l21 45q1 2 1 6v8v8.5t-1 6.5l-21 45q-4 7 -8 12.5t-8 12.5l-48 48
q-25 10 -43 23.5t-30.5 29.5t-21 33.5t-14.5 35.5q0 11 2 18t5.5 12t8 10t9.5 13q7 10 14.5 26.5t16.5 25.5l80 81q10 11 13 24.5t3 27.5q0 6 -1.5 15t-5.5 17t-11 13.5t-17 5.5h-73q-17 0 -32.5 -10.5t-32.5 -10.5h-66q-8 0 -16 3.5t-15.5 7.5t-15 7t-14.5 3l-125 -7
q-6 0 -15.5 -2.5t-19.5 -5.5t-18.5 -6.5t-12.5 -7.5q-11 -10 -23.5 -23t-24.5 -21q-2 -2 -9 -8.5t-14.5 -16t-13.5 -21t-6 -21.5q0 -11 4.5 -22.5t11 -21.5t14.5 -18t15 -11q1 -2 6.5 -4.5t12 -5.5t12.5 -6t9 -4q0 -1 1 -1h2h2h24q5 -1 11 2t13 7.5t14.5 8.5t15.5 4
q7 0 7 -8t-10 -20t-24 -23.5t-29.5 -20t-27.5 -8.5h-55q-8 0 -19 4t-18 9l-56 45q-3 2 -3.5 11t0 19.5t1.5 20.5t2 14l12 44q3 11 8.5 24t11.5 21q6 7 7 14t9 15l41 41q11 11 32 20.5t36 15.5q5 3 15 7t21.5 7.5t22.5 5.5t19 2h87q12 0 23 -5.5t22 -10.5q16 -8 33.5 -11.5
t33.5 -9.5q22 0 39 8t41 8q17 2 33 11.5t33 9.5h71q6 0 21 -5t30 -13.5t26.5 -20.5t11.5 -25q0 -5 -2.5 -19.5t-4.5 -21.5l-16 -50q-2 -6 -7.5 -12t-12.5 -12t-14 -10.5t-11 -6.5l-92 -91q-8 -8 -12.5 -20.5t-4.5 -22.5q0 -14 5 -26t12 -22.5t15.5 -19.5t15.5 -16l35 -16
q8 -7 16 -9t16 -10l72 -47q7 -8 10.5 -18.5t11.5 -18.5l11 -31q2 -17 0 -30t-4 -29q-2 -14 -9 -33t-19 -31l-95 -70q-5 -5 -12.5 -9.5t-15 -8t-13 -6t-6.5 -2.5q-18 -7 -35 -18.5t-39 -11.5h-101q-10 0 -17.5 3t-15.5 8z" />
    <glyph glyph-name="C" unicode="C" horiz-adv-x="646" 
d="M182 26q-5 2 -16.5 9t-22.5 15t-17 16t-16 18q-14 14 -28.5 25.5t-25.5 27.5q-10 14 -17 28.5t-13 28.5q-5 11 -15.5 27t-10.5 39v95q0 15 8 31t12 30q0 23 8.5 55t28.5 52q3 -2 13 12t20 35q2 5 3 11t5 11q5 7 9 13q4 5 7 11t5 11q7 9 20.5 23t30.5 29.5t35.5 30.5
t36.5 26q14 4 21 13.5t21 14.5q24 8 49.5 17t49.5 15q1 1 9 4t17 6t16.5 5t8.5 2h78q12 0 24 -4.5t25 -10t26.5 -11t28.5 -7.5q14 -8 25.5 -16.5t26.5 -20.5q2 -3 7.5 -7.5t11 -9.5t10 -10t5.5 -8q3 -3 8.5 -16.5t10.5 -29.5t8.5 -31.5t3.5 -24.5q0 -14 -3.5 -25.5
t-7.5 -23.5q-1 -5 -5 -7.5t-6 -7.5q-3 -8 -5 -14.5t-6 -13.5q0 -2 -4 -8.5t-8.5 -13.5t-8.5 -12.5t-5 -6.5q-17 -7 -35.5 -20t-37.5 -13h-64q-15 0 -25.5 8.5t-21.5 18.5q-14 6 -22.5 12t-15.5 14.5t-13 20.5t-13 31q0 5 1 13t4 16t9 13.5t17 5.5q9 0 13.5 -4.5t7 -11
t3.5 -13t3 -10.5q11 -20 30.5 -39.5t44.5 -19.5q16 0 30.5 9.5t25.5 24t19.5 30.5t14.5 29q3 7 5 13t3 13t1 16v23q0 16 -4 26t-10 15.5t-13 9t-13 7.5l-47 29q-5 3 -12 3.5t-9 5.5q-3 8 -8.5 13t-12.5 7t-14.5 3t-12.5 1l-68 6q-7 1 -16.5 -1.5t-19.5 -5.5t-18 -6t-12 -3
q-24 -3 -53 -20t-52 -40q-4 -11 -13.5 -22.5t-28.5 -23.5q-7 -5 -12 -11.5t-12 -11.5q-6 -15 -18 -35.5t-24 -27.5l-12 -25l-14 -49q-1 -5 -6.5 -12.5t-11.5 -17t-10.5 -20.5t-4.5 -22v-106q0 -14 7 -29t7 -33t3.5 -27t12.5 -20q2 -3 4.5 -9.5t5.5 -15.5t7.5 -18t11.5 -16
q9 -4 23 -15t30 -16q8 -8 13 -9.5t13.5 -4.5t22.5 -10.5t40 -27.5q7 0 14.5 -6.5t9.5 -2.5h53q12 0 23.5 -0.5t36.5 5.5q21 0 44 15.5t58 36.5q6 2 10 2.5t7 3.5t7.5 10.5t12.5 22.5q6 4 9 6.5t6 4t6.5 2t10.5 0.5q8 2 15 -3.5t7 -15.5q0 -8 -4.5 -14.5t-11 -12.5
t-13.5 -11.5t-11 -11.5q-5 -5 -8 -12.5t-8 -13.5q-6 -7 -24.5 -17t-42 -19.5t-47.5 -16t-42 -6.5q-19 0 -30.5 -7t-28.5 -7q-15 0 -27 7.5t-26 7.5h-84z" />
    <glyph glyph-name="D" unicode="D" horiz-adv-x="1039" 
d="M0 95q0 6 1.5 16t6.5 15q4 6 14.5 13.5t22.5 14t23.5 11t19.5 4.5h121q9 0 17.5 -3.5t16.5 -8t16 -8t15 -3.5q4 0 7 0.5t6 0.5h11q14 0 25 8.5t16 16.5l76 153q2 7 3 7.5t5 7.5q12 25 23.5 44t23 37t22 35.5t20.5 39.5q11 23 30 40.5t36 34.5q9 11 13.5 21t11.5 19.5
t18.5 18.5t32.5 19q11 5 18.5 16t22.5 11q11 0 11 -11t-6.5 -17.5t-14.5 -11.5t-17 -9.5t-14 -10.5q-6 -8 -10.5 -18.5t-9.5 -18.5q-16 -24 -30.5 -37t-25.5 -32l-32 -62q-11 -13 -12 -28t-6 -30q-4 -13 -15 -21.5t-17 -20.5q-5 -9 -5 -13t-2 -15q-4 -18 -11.5 -32.5
t-16.5 -27.5t-18.5 -25t-16.5 -26q-2 -5 -3.5 -9.5t-5.5 -9.5q-7 -9 -16 -17.5t-17.5 -17.5t-14 -17.5t-5.5 -17.5q0 -5 12 -15.5t23 -21.5h3q20 0 29.5 -3.5t18.5 -7.5t22.5 -7.5t41.5 -3.5q16 -2 29.5 -11t30.5 -9h85q3 0 9 0.5t11 2.5q20 7 33 14t23.5 12.5t21.5 9
t28 3.5h11q5 1 13.5 11t19.5 23t23.5 27.5t26.5 25.5q7 10 10.5 20t9.5 18q0 1 2.5 2.5t2.5 3.5q27 31 40.5 62.5t13.5 82.5q3 17 12 32t9 34t-10.5 35.5t-10.5 36.5v14q0 13 -6 24.5t-15 21.5t-18.5 19t-16.5 19q-8 11 -14 24t-15 24q-26 30 -46.5 47t-39 27.5t-36 17
t-38.5 13.5q-15 5 -27.5 11.5t-28.5 6.5h-125q-14 0 -26.5 8.5t-26.5 8.5q-5 -1 -15.5 -4t-20.5 -8q-11 -5 -27.5 -5h-31.5q-20 0 -39 -12t-34 -19q-10 -5 -20.5 -8t-18.5 -11l-35 -15q-7 -5 -14.5 -9t-13.5 -10l-62 -62q-6 -6 -10 -13.5t-9 -15.5l-20 -42q-4 -5 -4 -15
q0 -4 0.5 -7.5t0.5 -5.5q0 -6 3 -21.5t9.5 -32t16.5 -29.5t25 -13h97q5 0 9 -6t4 -10q0 -9 -10.5 -17t-24.5 -15t-29 -11t-24 -4q-15 0 -30.5 6t-30.5 15t-27.5 20t-20.5 22q-3 4 -5.5 12.5t-4.5 18t-3 18.5t-1 14q0 2 3 15.5t3 22.5q0 19 2.5 29.5t6.5 17t9.5 12.5t11.5 16
q20 32 42.5 61t55.5 53q13 9 29 15t30 14q18 11 39 22.5t38 15.5q9 0 18.5 4t19 8.5t20 8.5t20.5 4h67q10 0 17.5 3t18.5 3t21 -3t21 -3h128q3 0 5.5 -0.5t7 -3t12.5 -6t22 -9.5q17 -1 30.5 -7t30.5 -13q8 -4 18 -4t18 -4q17 -7 35.5 -16.5t31.5 -22.5l67 -67q8 -8 16 -20.5
t14.5 -26t12.5 -27.5t11 -24q8 -17 18 -32.5t12 -33.5l13 -102q7 -50 1 -80t-21 -53t-36.5 -44.5t-46.5 -54.5q-8 -11 -21.5 -16.5t-22.5 -14.5l-50 -50l-8 -5h-40q-10 0 -15.5 -5.5t-9.5 -13t-8.5 -14.5t-12.5 -10q2 -3 -15 -5t-36 -2q-14 0 -26 -10t-27 -10h-105
q-2 0 -8.5 1.5t-8.5 3.5q-8 3 -12 6t-10 5.5t-16.5 4t-31.5 1.5q-7 0 -20 4.5t-26 12t-24 16t-13 17.5l-22 8t-15 4h-15q-8 0 -10 -1l-57 -28q-10 -3 -18.5 -8.5t-16.5 -11t-17 -9.5t-19 -4h-111q-11 0 -21 6t-20 11q-11 8 -19 13t-13 10.5t-7.5 12.5t-2.5 20zM66 95
q0 -14 6 -20t15 -9t19 -4.5t19 -5.5q7 -3 16 -7.5t18 -4.5q11 0 19.5 6t19.5 8q24 5 39.5 11.5t15.5 25.5q0 10 -9.5 21.5t-18.5 11.5h-55q-9 0 -21.5 7t-25.5 10q-20 0 -38.5 -13.5t-18.5 -36.5z" />
    <glyph glyph-name="E" unicode="E" horiz-adv-x="523" 
d="M143 9q-2 2 -11 10t-13 10q-1 0 -6.5 2.5t-11.5 5.5l-11 5.5t-6 3.5q-2 1 -8 5t-8 7q-2 1 -6 5t-9.5 9t-10 9t-5.5 6q-2 2 -7 7.5t-6 7.5q0 1 -4.5 9.5t-7.5 12.5l-5.5 11t-7 15t-6.5 15.5t-4 12.5q-5 37 0 68.5t14 55.5t19 39.5t16 20.5l133 125q7 5 3 6.5t-4 9.5
q0 11 -6 18.5t-6 19.5v6.5t2 5.5q2 2 5 9t5 8q1 4 0.5 9.5t-1.5 11.5t-1 11.5t2 9.5q3 6 8 14.5t10.5 17t11 16t10.5 11.5q6 6 9.5 11.5t8 11.5t10.5 11t16 10q17 8 35 15t35 17q8 4 13.5 9t11 9t12 6.5t17.5 2.5q10 0 21 -0.5t21 -0.5q15 0 28 3.5t28 3.5q13 0 22.5 -5
t22.5 -10q5 -3 12 -4.5t14 -3.5t12 -6t6 -11q3 -13 2.5 -27t6.5 -25v-5q0 -9 -3 -12q-6 -9 -11 -19t-14 -17q-14 -11 -28.5 -11h-32.5q-11 0 -20 4t-9 15q0 5 0.5 7.5t4.5 6.5q11 11 22 23t11 29q0 15 -12.5 22.5t-25.5 12.5q-10 5 -17 9.5t-17 4.5h-6q-16 -8 -31.5 -14.5
t-30.5 -14.5q-1 0 -2.5 -1.5t-3.5 -2.5q-23 -21 -44 -36t-44 -36q-11 -19 -24.5 -44.5t-13.5 -45.5q0 -15 6.5 -28t14.5 -27q5 -6 13 -10t16 -4q13 0 23.5 4.5t21.5 4.5q7 0 11.5 -0.5t13.5 -2.5q1 0 2 -1.5t3 -1.5q6 -4 14.5 -10t16 -13.5t12.5 -16t5 -17.5q0 -5 -5 -15.5
t-7 -12.5l-18 -18q-11 -4 -22.5 -10.5t-25.5 -6.5q-8 0 -14.5 4t-14.5 6q-10 4 -20 5t-20 3q-17 13 -29.5 23.5t-34.5 10.5q-20 0 -36 -9.5t-29 -24t-22.5 -31.5t-15.5 -32q-3 -8 -3.5 -16.5t-3.5 -16.5q-5 -11 -11.5 -20.5t-6.5 -22.5v-24v-21q0 -12 5 -21.5t10 -17.5
q3 -4 8 -14t11 -21.5t11.5 -21.5t7.5 -13q10 -12 17 -16q18 -10 36.5 -18t37.5 -16q8 -5 18 -10t21 -5h75l12 1q20 11 42 21.5t43 18.5l21 20q2 3 6 11l8.5 17t8.5 16.5t6 10.5q4 7 9 14t5 13v29q0 8 -11 12t-16 4q-11 0 -18.5 -3.5t-16.5 -4.5q-8 -1 -14 -1q-5 -1 -10.5 -1
h-8.5h-4q-9 0 -20 8.5t-11 17.5v23l1 1q0 1 0.5 1t0.5 1q3 9 9.5 19.5t15 20t19 15.5t22.5 6h60q10 0 18.5 -6t8.5 -15q0 -7 -3 -12.5t-3 -12.5q0 -15 9.5 -26t9.5 -25v-54q0 -2 -1 -5q-2 -6 -2 -7t-1 -2v-1q-1 -1 -3.5 -5.5l-5 -9l-5 -9t-2.5 -5.5q-8 -17 -21.5 -30
t-28.5 -26q-8 -8 -15.5 -16t-16.5 -14q-5 -2 -10 -4.5t-10 -4.5l-5 -3q-2 0 -10.5 -4t-10.5 -5q-6 -3 -15 -8.5l-18 -11t-17.5 -10t-15.5 -4.5l-88 -6q-2 0 -12.5 3t-22 7t-21.5 8t-12 5zM299 447q0 -20 19 -20q9 0 15 5t6 13t-5 15.5t-16 7.5q-9 0 -14 -6.5t-5 -14.5z" />
    <glyph glyph-name="F" unicode="F" horiz-adv-x="697" 
d="M46 29l-6 6l-7 7l-2 3l-23 49v42q0 10 6.5 20t16.5 18.5t21 15t20 8.5h12h10q1 0 5.5 -1.5t6.5 -1.5q8 -1 18 -1.5t18 -7.5q10 -10 14.5 -17t4.5 -23q0 -14 -9.5 -22.5t-22.5 -8.5q-9 0 -17.5 1t-17.5 1q-31 0 -31 -28q0 -16 9 -25.5t19 -20.5q2 -1 8 -5.5t8 -5.5
q2 -2 9.5 -6t9.5 -5l2 -2l1 -1h86l7 3l5 2t11.5 5l13 6t10.5 5q16 8 28 20l75 72l10 12q4 8 8 15q3 6 6.5 12t5.5 10q8 14 15.5 28t12.5 29q4 11 2.5 23.5t3.5 23.5q8 16 17 31t15 32q3 8 3.5 16.5t4.5 15.5q5 11 9.5 20t6.5 21q0 2 0.5 12.5t0.5 12.5t1.5 7t3.5 7
q1 2 5.5 13t5.5 14q0 1 1 8.5t1 8.5q0 3 2 8t3 6l40 79q0 1 2 3t2 4q1 1 4 6.5t6 12t6 12t3 7.5q5 8 8 13.5t3 13.5q0 12 -8 22t-22 10h-40q-13 0 -25 -8.5t-25 -10.5h-19q-13 -1 -22.5 -5t-21.5 -9q-4 -2 -12 -5.5t-16.5 -8t-16.5 -8t-11 -4.5q-14 -11 -26 -17.5t-22 -20.5
q-11 -14 -12.5 -25t-5.5 -28q-3 -8 -7.5 -16t-9.5 -16v-11q0 -26 12 -38.5t33 -24.5q10 -4 18.5 -7.5t19.5 -3.5q16 0 30.5 7.5t26.5 16.5q5 5 9 8t12 3q11 0 11 -11t-6 -18q-2 -2 -6.5 -6t-10 -9.5l-10 -10t-6.5 -5.5q-3 -3 -8 -6.5t-7 -5.5t-14.5 -7.5t-17.5 -7.5
q-4 -2 -5.5 -2.5t-6.5 -0.5q-6 0 -9 0.5t-7 2.5q-20 10 -44 20t-36 32q-5 11 -9 21t-4 21q0 20 12 41q5 10 6.5 21t6.5 22t9.5 20.5t12.5 19.5q4 5 9 9.5t8 11.5q10 16 20 28t28 20l27 21l85 41q2 1 7 2.5t7 1.5h38q14 0 23 3q2 2 10.5 5.5t9.5 4.5q3 2 9 4t7 2h247
q11 0 20.5 5.5t17.5 8.5q9 4 18.5 4.5t18.5 5.5q28 12 47 23.5t39 34.5q4 4 8.5 13.5t10 19t12.5 17t16 7.5q8 0 9 -7t1 -14q0 -40 -29 -72q-3 -4 -8.5 -9.5t-12 -11t-12.5 -10t-10 -6.5q-8 -4 -16.5 -7.5t-16.5 -9.5q-11 -10 -19.5 -16.5t-23.5 -8.5q-1 0 -6 -1t-6 -1
q-13 -2 -22.5 -8.5t-20.5 -8.5h-10.5t-15.5 -0.5t-15 -0.5h-10q-14 -1 -26 -8.5t-25 -10.5h-58q-23 0 -31.5 -9.5t-17.5 -27.5q-10 -20 -12 -36.5t-13 -35.5q-5 -11 -11.5 -25.5t-7.5 -28.5v-16t-5 -15q-2 -2 -6 -11t-5 -10q-1 -2 -2.5 -6.5t-1.5 -5.5v-27q0 -17 9.5 -22.5
t22 -5t25 4t18.5 3.5q13 0 23 5t22 5q9 0 32 -1t47.5 -4t43 -9t18.5 -15q0 -11 -10 -22t-36 -19q-1 0 -6.5 1.5t-13.5 5t-17 8.5t-16 10q-5 3 -13 2.5t-17 -3t-18 -4.5t-14 -2h-28t-29.5 -1.5t-27.5 -5.5t-22 -13q-6 -6 -13.5 -14t-9.5 -19q-3 -7 -3.5 -15t-2.5 -16
q-2 -2 -8 -12t-8 -13q-2 -5 -1.5 -11t-1.5 -11q-2 -1 -2 -2.5t-1 -3.5q-1 -3 -1 -5q-2 -2 -7.5 -8.5t-12 -14t-11.5 -14t-6 -8.5q-2 -3 -9 -10.5t-9 -9.5l-3 -5q-2 -2 -6.5 -10t-5.5 -11q-12 -23 -30.5 -38.5t-37.5 -34.5q-2 -2 -6.5 -5.5t-8.5 -5.5q-23 -11 -46.5 -23
t-46.5 -23q-10 -5 -20.5 -11t-21.5 -6h-39q-11 0 -21 6t-20 11q-4 1 -10.5 1.5t-8.5 2.5q-15 2 -29.5 8.5t-28.5 14.5z" />
    <glyph glyph-name="G" unicode="G" horiz-adv-x="454" 
d="M-64 -49q8 0 17.5 -2.5t16.5 -5.5q25 -11 37.5 -21.5t12.5 -38.5q0 -20 -13.5 -33.5t-36.5 -13.5q-10 0 -15 6t-10 15l-2 5v-1q-5 7 -10 13t-16 6q-16 0 -20 -10.5t-4 -25.5v-12v-11q0 -23 17.5 -43.5t46.5 -28.5l22 -4l15 -8q12 -7 15 -7l6 2q3 1 7 1.5t10 0.5
q3 0 8.5 -2.5t8.5 -2.5l9 -3q9 3 20.5 8.5t23 11.5t21.5 12.5t15 10.5l3 1q8 7 19 14t22 9l24 25h-1l49 83q1 9 3.5 16t5.5 13t6 12.5t4 15.5v11q0 25 10 42.5t10 27.5l2 9q9 10 11.5 21t2.5 19q0 13 -5.5 21t-19.5 8q-6 0 -8 -1l-63 -27q-2 0 -4 -1l-9 -3h-52q-4 0 -16 6
t-27 15t-30 19t-25 18q-4 2 -11 10.5t-15 20t-15 25t-10 25.5l-23 87l7 15q0 10 2.5 24t6 28t7.5 26.5t6 19.5q2 6 10.5 24.5t26.5 53.5q1 2 7 9.5l12 15t11 13l5 5.5l22 24q2 4 4.5 9.5t4.5 9.5q8 17 16 26t15.5 15t16 10.5t17.5 12.5v-1l15 16h-1l8 9q16 19 42.5 35.5
t55.5 21.5q12 0 26 9t31 9h53q18 0 31.5 -9t21.5 -9h7q1 0 1.5 0.5t1.5 0.5h4q1 0 2 -0.5t4 -0.5q4 0 17.5 -4.5t29 -12t28.5 -18t16 -23.5v1q2 -5 4 -22q0 -9 8 -21t8 -17v-54q0 -8 -6.5 -16.5t-12.5 -14.5l-6 -8h1l-13 -21q-25 -26 -51.5 -46.5t-54.5 -20.5
q-5 0 -10.5 3.5t-5.5 9.5t12 12t26.5 13.5t27.5 18t16 25.5l3 30q0 14 2.5 30.5t2.5 33.5q0 13 -3.5 22t-7.5 17l-6 8q-5 3 -8 8l-6 10h1q-13 14 -26 25t-28 11l-101 -1q-20 -5 -45.5 -17.5t-42.5 -22.5l-25 -19l-1 1q-1 0 -2 -1t-3 -2l-7 -4q-1 -1 -2 -1h-1l-17 -22
q-5 -7 -13 -15.5t-16 -16.5l-42 -78l-4 -13q-2 -13 -4 -16l-29 -55q-3 -5 -3.5 -10t-0.5 -10q0 -23 -9.5 -38.5t-9.5 -27.5q0 -17 2 -31t6 -29l12 -49q2 -8 3.5 -15t5.5 -10l54 -53v1q6 -5 20 -11t22 -6h86q4 0 10 4q29 12 49 24t34 37q5 5 6 13.5t3 16.5t7 14t19 6
q8 0 12.5 -6t4.5 -13q0 -12 -5 -22t-10.5 -20t-10.5 -21t-5 -24q0 -6 1.5 -13.5t1.5 -13.5q0 -26 -8.5 -53t-13.5 -41l-3 -9q0 -8 -4.5 -15t-11.5 -14q-10 -10 -13 -22.5t-8 -23.5l-7 -14l-4 -14q-2 -8 -4 -13.5t-12 -14.5l-11 -10q-8 -7 -13.5 -15.5t-16.5 -28.5l-3 -7
q-8 -16 -19 -31.5t-27 -17.5q-15 -10 -31 -23t-35 -24.5t-43.5 -19.5t-56.5 -8q-20 0 -40.5 4t-40.5 4q-21 0 -44.5 13.5t-43 33.5t-32.5 42t-13 40q0 2 0.5 3t0.5 3l7 35q2 12 13 24t26 22.5t32 17t32 6.5z" />
    <glyph glyph-name="H" unicode="H" horiz-adv-x="662" 
d="M199 -349q-9 1 -21.5 6t-24 12.5t-20 17.5t-8.5 21v76q0 8 3 15t7 13l16 33q18 48 59 71q12 7 32 23t46 29l16 8q11 6 26 14.5t28 13.5q8 3 10.5 6t6 5.5t11 6t26.5 8.5h9q5 0 12.5 2t14 5t11.5 7t5 8l-14 47q-2 2 -2.5 5.5t-2 9.5t-5 15t-10.5 22q0 3 -3.5 11t-9 18.5
t-12 21t-12.5 17.5h1l-14 13q-5 4 -9 8.5t-9.5 9.5t-13.5 10.5t-21 11.5l-23 12l-13 4q-4 0 -10 2q-3 1 -6 1l-12 6q-5 2 -9.5 4t-9.5 2q-11 0 -16 -8t-10 -18l-2 -4q-8 -9 -18 -23.5t-15 -27.5q-4 -8 -11.5 -26t-15.5 -26l-39 -41q-3 -3 -12 -10.5t-20 -15t-21 -13
t-15 -5.5q-20 0 -35.5 18.5t-15.5 41.5q0 9 3.5 24t9 29.5t11 26.5t9.5 17l52 54q13 11 28 18.5t30.5 13.5t29.5 11t24 11v-1l20 20h-1q11 36 20.5 51.5t14.5 20.5q-1 8 14.5 36.5t38.5 60.5l11 15q8 11 14 27.5t19 29.5h-1l14 17h-1q7 11 15.5 24t18.5 21l66 57q4 3 12 8.5
t17 10.5t18 8.5t17 3.5h48q17 0 29 -11.5t12 -27.5q0 -10 -3 -17.5t-7 -15.5l-5 -7h1l-9 -18q-6 -12 -12 -23t-26 -26q-7 -2 -11 -5t-8 -7l-13 -11q-15 -9 -30 -16.5t-35 -9.5l-22 -9q-14 -7 -21 -7t-17.5 -2.5t-20 -7t-16.5 -10.5t-7 -14q0 -6 -12 -22t-26 -35t-26 -37.5
t-12 -28.5q0 -47 38 -60q22 -8 40 -14.5t33 -14.5t29 -18.5t28 -25.5q2 -5 12.5 -10.5t21.5 -18.5q8 -8 12 -19.5t13 -20.5q7 -11 6.5 -21.5t7.5 -24.5q3 -5 4 -17.5t3.5 -25t7.5 -22.5t16 -10h65q9 0 17.5 -6.5t8.5 -16.5q0 -15 -12.5 -17.5t-29.5 -3.5t-34 -4t-27 -18
l-3 -7q-2 -5 -4.5 -10t-2.5 -7v-46q1 -5 -4 -17t-9 -24l-7 -23q-5 -16 -15 -35.5t-21 -30.5l-82 -85q-6 -6 -11 -9t-10 -5q-15 -7 -23 -13.5t-13 -11.5t-11 -8t-18 -3h-9q-11 0 -20.5 -9.5t-23.5 -9.5l-6 0.5t-14 0.5t-16 0.5t-11 0.5zM220 -314q10 -5 19.5 -8.5t20.5 -3.5
q6 0 14 1.5t11 6.5q7 11 14 17t13.5 9.5l13 7t13.5 9.5v-1q16 18 27.5 23t26.5 16q4 3 11 14t14 25.5t13.5 29.5t11.5 27l5 18q3 19 6 29t5.5 16.5t4 12.5t1.5 17h4q0 1 0.5 5.5t0.5 10.5q0 11 -6.5 23.5t-31.5 12.5q-13 0 -22 -3t-19.5 -9t-25 -15.5t-38.5 -22.5
q-4 -8 -11.5 -13t-16 -9.5t-17 -8.5t-13.5 -9l-51 -53l-8 -14q-3 -8 -8.5 -16.5t-11 -18t-9.5 -19t-4 -18.5q0 -17 3 -32t8 -31l18 -19zM54 211q-3 -3 -7 -11t-4 -11v-25q0 -8 8.5 -14t15.5 -6q17 0 33.5 17t29 37.5t20.5 38l8 17.5q0 22 -22 22q-8 0 -14.5 -4t-13.5 -9
l-11 -8v1zM429 638q0 -10 3.5 -19t13.5 -9h42q11 0 22 7.5t20 18t14.5 21.5t5.5 17q0 16 -12.5 28t-26.5 12q-13 0 -32 -11.5t-32 -21.5v1q-3 -3 -10.5 -18t-7.5 -26z" />
    <glyph glyph-name="I" unicode="I" horiz-adv-x="512" 
d="M0 146q0 15 -3.5 26t3.5 24q0 9 10.5 20.5t15.5 18.5q15 10 33 23.5t38 13.5q10 0 25.5 -6.5t30.5 -16.5t26 -21.5t11 -21.5q0 -8 -4 -19.5t-11.5 -22.5t-17 -19t-19.5 -8q-19 0 -26.5 7.5t-12 16t-10 16t-19.5 7.5t-21.5 -13t-7.5 -25q0 -14 9.5 -32.5t20.5 -34.5
q3 -5 13.5 -11.5t22.5 -13t23.5 -11.5t16.5 -6h11.5t18 -0.5t18 -0.5h11.5q13 -1 19.5 1.5t16.5 7.5q62 22 91 72q9 16 18 27t19 27q5 8 5 18.5t5 20.5q5 14 8.5 23.5t8.5 26.5l19 57q0 20 9 43.5t10 50.5q3 14 9.5 24.5t6.5 23.5q0 10 -3.5 17.5t-14.5 7.5q-6 0 -15 -3.5
t-18 -7.5t-15.5 -8.5t-7.5 -5.5q-12 -12 -23 -19t-23 -7h-50q-15 0 -30 11.5t-27 28.5t-19.5 35t-7.5 32q0 16 6 28.5t12 25.5q3 8 3.5 16t3.5 16q5 8 11.5 14t11.5 15q7 13 14 25.5t15 22.5t19 18t27 12q7 2 19.5 6t19.5 8q4 2 15 4.5t23 5t23.5 4t16.5 0.5l136 -18
q13 -2 24 3t22 12t22.5 15.5t25.5 14.5q11 5 21.5 15t21.5 10q15 0 15 -15q0 -10 -6 -16t-15 -10.5t-18 -8.5t-15 -10l-46 -46q-5 -3 -14 -22t-17 -36q-5 -14 -8 -28t-12 -31q-13 -23 -25 -51t-17 -46q-3 -11 -7.5 -21.5t-9.5 -21.5l-2 -7l-11 -50q-3 -14 -8 -39t-11.5 -51
t-14 -49.5t-14.5 -34.5q-11 -12 -16.5 -19t-10 -13t-9 -13t-12.5 -19l-36 -39q-7 -7 -11 -18.5t-10 -18.5q-20 -29 -48.5 -44.5t-67.5 -15.5q-15 -2 -28 -10.5t-28 -8.5q-12 0 -22.5 7t-21.5 9q-2 1 -15.5 3t-15.5 4q-11 2 -23 8.5t-18 11.5q-11 7 -22 19t-19.5 26.5t-14 29
t-5.5 28.5zM318 474q2 -2 9 -2h11t14 2l37 17q6 7 13.5 14t15.5 12q11 0 17 -8.5t17 -8.5q4 0 10 5.5t9 10.5q8 29 20.5 57t27.5 54q4 8 8.5 12.5t7.5 8.5t5 9t2 15q0 17 -14 27.5t-31 10.5h-127q-6 0 -15.5 -4t-20 -9.5t-20 -11t-15.5 -8.5l-28 -27q-2 -2 -8 -11.5
t-12 -21.5t-10.5 -22.5t-4.5 -13.5v-41q5 -15 13 -24t18 -16t23 -12.5t28 -13.5z" />
    <glyph glyph-name="J" unicode="J" horiz-adv-x="532" 
d="M436 451h-1h1zM459 460q1 5 7.5 15.5t9.5 16.5q8 38 21 74t30 68q5 10 9.5 16t7.5 11t5 12t2 19q0 23 -14.5 34.5t-32.5 14.5l-93 16q-8 1 -24.5 -3t-34.5 -12t-34 -19t-23 -24l-29 -35q-3 -2 -9 -14.5t-12.5 -27.5t-11.5 -28.5t-5 -17.5v-54q6 -18 14 -30t19 -20.5
t24 -16t30 -17.5q2 -2 5 -2h5h11.5t14.5 2l39 22q13 19 31 33q5 1 11.5 0.5t10 -4.5t2.5 -13t-10 -25q-6 0 -16 -4.5t-19 -10t-15.5 -10.5t-7.5 -7q-12 -15 -23.5 -24.5t-25.5 -9.5h-52q-15 0 -31 15t-28.5 36.5t-20.5 45t-8 40.5q0 21 6 37t13 33q2 10 2.5 20.5t4.5 20.5
q5 11 11.5 18.5t12.5 19.5q8 16 15 32t15.5 29t20 23t28.5 15q8 3 20.5 8.5t20.5 10.5q4 2 15.5 5.5t24.5 6.5t25 5t18 1l143 -23q13 -2 21 -2.5t15 1t15.5 5.5t23.5 12q5 3 10.5 8t11 10.5t11 9.5t11.5 4q16 0 16 -19q0 -12 -6.5 -20t-15.5 -13.5t-19 -11t-16 -13.5
l-23 -18q-3 -2 -7 -10t-8 -18.5t-9 -23l-9 -22.5q-2 -9 -4 -15t-4.5 -11.5t-5.5 -12t-8 -16.5q-7 -15 -13.5 -35t-12.5 -41t-10.5 -39.5t-6.5 -29.5q-3 -14 -8 -27.5t-10 -27.5l53 -10l-14 -33l-54 -21q-17 -7 -25 -32.5t-12 -57.5t-6.5 -64t-8.5 -53q-6 -15 -9 -27.5
t-5 -24.5t-6 -24.5t-13 -28.5l-39 -50q-7 -8 -18.5 -25t-18.5 -25q-42 -77 -121 -77q-16 -2 -27.5 -7.5t-27.5 -5.5q-14 0 -26.5 3t-24.5 6q-1 0 -6 1t-10.5 2.5t-10.5 3t-5 2.5q-12 3 -25 11.5t-19 13.5q-12 10 -23.5 25.5t-20.5 33.5t-14.5 37t-5.5 36q0 10 -1.5 18.5
t-2.5 16t-0.5 15t4.5 15.5q0 6 3 12.5t7.5 13.5t9 13l7.5 10q17 14 33 21.5t38 7.5q10 0 27.5 -5.5t34 -14.5t28.5 -21t12 -24q0 -10 -4.5 -25t-12 -29.5t-17.5 -24.5t-21 -10q-20 0 -28 9.5t-13 21t-10.5 21t-20.5 9.5t-22.5 -16.5t-7.5 -33.5t10 -41t21 -44q3 -6 14 -15
t24 -17.5t25 -14.5t17 -7q3 0 12 -0.5t19.5 -0.5t19.5 -0.5t12 -0.5q14 -1 20.5 2t17.5 10q34 15 56.5 37t39.5 55q10 20 19 35t20 35q5 11 5.5 24t5.5 26q5 17 8.5 29.5t8.5 34.5l20 73q0 13 3 31.5t3.5 36t-3.5 30t-19 14.5q-5 13 2.5 23t18.5 17.5t21.5 14.5t10.5 15z
" />
    <glyph glyph-name="K" unicode="K" horiz-adv-x="802" 
d="M675 -42q-4 2 -15.5 10.5t-24.5 18.5t-24.5 18t-14.5 10q-5 2 -5.5 2t-3.5 3q-35 27 -62 61q-1 1 -1 2q-1 1 -1 3q-8 16 -17 31.5t-15 31.5q-1 1 -2 5.5t-1 6.5l-2 8q-1 4 -1 7q0 2 -4.5 12t-6.5 12q0 1 -1.5 6t-1.5 7q0 1 -0.5 4.5t-0.5 4.5q-1 7 -4.5 13t-6.5 12
t-3.5 12.5t-2.5 14.5l-14 30l-26 47l-1 2v2q-2 2 -8.5 9t-7.5 9q-3 4 -4 8t-4 7q-5 7 -8.5 17t-13.5 9l-64 -7q-17 -2 -29 -16t-10 -27q1 -11 -1.5 -22t-6 -25t-6.5 -32t-3 -41q0 -17 -4.5 -36.5t-10.5 -39t-13 -38t-12 -34.5l-18 -45q-3 -8 -12.5 -17t-22 -16.5t-25.5 -13
t-22 -5.5h-90q-7 0 -12.5 4t-5.5 11t5.5 11t12.5 5q13 0 29.5 -0.5t28.5 8.5h4h9h9.5h5.5q1 2 9.5 12t9.5 11q3 2 3.5 9.5t1.5 9.5l32 65q2 2 2.5 6t0.5 6q0 3 0.5 11t2.5 17t5.5 17.5t8.5 11.5v30q0 8 0.5 15t3.5 15l9 17q2 6 2.5 13t2.5 14q4 36 7 59.5t6 39.5t6.5 28
t10.5 26q2 3 2.5 6.5t1.5 5.5l4 12l6.5 19.5t6 19t4.5 11.5q4 9 5.5 20t5 25.5t12.5 32.5t30 41l2 -4l2 -4q5 14 15.5 24.5t21.5 20.5l8 6l3 3q1 1 2 1q28 12 39.5 23.5t13.5 20.5t-2.5 14.5t-10.5 5.5l-69 -21q-2 0 -5 0.5t-6 0.5q-10 0 -21.5 -0.5t-23.5 -3.5t-24.5 -10
t-22.5 -20q-6 0 -17.5 2t-14.5 2l10 28q1 3 -0.5 9t-1.5 8v2q0 1 1 1l12 17q3 2 8 4.5t10.5 4.5t9 3.5l3.5 1.5l33 4l18 -3l85 9h5q8 0 21 2.5t25.5 4.5t22 0.5t10.5 -8.5q4 0 3 -7.5t-3 -17.5t-4.5 -20t-2.5 -14q0 -5 -5 -15.5t-9 -14.5l-21 -21l-8 -4q-3 -2 -7.5 -4.5
t-8.5 -4.5q-4 -3 -9 -6l-18 -18q-1 0 -1 -1q-1 -1 -1 -2q-5 -12 -13 -20l-17 -17q-7 -8 -12.5 -16.5t-5.5 -19.5v-34q-1 -3 -2 -5q-1 -1 -1 -3v-2q0 -1 -0.5 -1.5t-0.5 -1.5v-1l-27 -56q-2 -2 -2 -7v-8q0 -20 11 -26.5t30 -6.5h10.5t11.5 1q2 1 5 2q6 2 7 2h3q2 0 10 4.5
t16 6.5q0 7 3 12t7 11q6 7 8.5 6.5t10.5 5.5q2 2 9.5 8.5t16 13.5t16 13t10.5 8q6 3 15 12t12 11q13 6 19 12.5t13 18.5q2 1 4.5 7.5t3.5 7.5l11 14l61 72q7 8 14 11.5t17 11.5q11 10 33.5 22t57.5 23q7 3 18.5 4.5t18.5 3.5q6 2 14 0t16 -2t16 -8.5t14 -13.5q2 -3 2 -7
t-1.5 -16t-5.5 -12l-109 -2l-17 -18l-6 -6q-2 -2 -3 -2.5t-2 -1.5t-2 -1q-10 -5 -18 -10.5t-16 -11.5l-119 -96q-5 -5 -16 -15t-24 -21.5t-24.5 -21.5t-16.5 -14q-11 -11 -21.5 -22.5t-27.5 -13.5l7 -30q1 -3 5.5 -8t10.5 -9.5t12.5 -9t9.5 -5.5l14 -14l34 -68q3 -8 2 -15
t3 -13l49 -96q8 -11 12.5 -23.5t12.5 -23.5l7 -9l33 -34q6 -6 13.5 -17.5t15.5 -23t16.5 -21t18.5 -12.5q10 -9 21 -22.5t25 -13.5q7 0 12.5 3.5t10.5 8t10.5 8.5t12.5 4q5 0 11.5 -1t11.5 -3q7 -6 12 -12t5 -14q0 -5 -5 -10t-10 -7l-59 -12q-1 0 -11 2t-22 5q-14 3 -32 7z
" />
    <glyph glyph-name="L" unicode="L" horiz-adv-x="706" 
d="M-6 41q0 7 4.5 18.5t11 23t14 20.5t13.5 11q8 2 17 3t17 5q5 3 14 7t18.5 8t18.5 7t15 2l71 -7q15 -2 26.5 -9.5t26.5 -7.5q13 0 20.5 7t12 16t7.5 18.5t6 14.5q3 6 8 14t9.5 16.5t8 15t3.5 8.5q9 19 19 40.5t10 38.5q10 31 16.5 50.5t18.5 43.5q2 30 16.5 55t26.5 52
q3 34 21 61q5 5 5.5 8t2 7t6 11t17.5 20t19 29.5t20 30.5l94 93q10 9 25.5 18t33.5 15.5t35.5 10.5t31.5 4q11 0 21 -4.5t21 -4.5h84q7 0 20 -4.5t26 -11.5t24 -15.5t15 -15.5q5 -10 10 -20.5t13 -18.5q9 -11 17 -21.5t8 -24.5v-82q0 -13 -7.5 -26t-13.5 -25q0 -15 -15 -30
t-35.5 -26.5t-43 -18.5t-37.5 -7q-10 0 -20 0.5t-20 4.5q1 0 -2.5 1.5t-8.5 4.5t-10 7t-7 9q-8 5 -19 10.5t-21 12t-17 15t-7 20.5q0 8 4 13t11 5q5 0 9.5 -6t9.5 -14t12 -15.5t18 -10.5q15 -8 25.5 -9t17.5 1.5t11.5 5.5t9.5 3t12.5 2t14.5 4q8 3 17 6l23 22q1 2 4.5 9.5
t7.5 16t7 16.5t3 12v76q0 11 -5.5 20t-10.5 17q-17 29 -35 39.5t-41 18.5q-14 5 -32 6t-35 1q1 0 -3 -1t-10.5 -3.5t-14 -5.5t-12.5 -6q-13 0 -27 -5t-27.5 -11.5t-26 -14t-22.5 -12.5l-49 -49q-9 -9 -13.5 -21t-11.5 -21q0 -1 -3.5 -5l-7 -8l-7 -8t-4.5 -5q-7 -10 -10 -21
t-5.5 -22.5t-6 -22t-11.5 -19.5l-6 -27q-5 -16 -8 -33.5t-7 -34.5t-9 -31.5t-13 -24.5l-23 -46q0 -4 -3.5 -10.5t-7 -13.5t-7 -13.5t-4.5 -9.5q-3 -11 -7 -18.5t-8.5 -13.5t-9 -13t-7.5 -16q-2 -9 -8 -22t-11 -19q-3 -3 -8.5 -11.5t-11.5 -19.5t-10.5 -23t-4.5 -21
q0 -11 6 -17t14 -9.5t17.5 -5.5t16.5 -3q2 0 14.5 -6.5t20.5 -8.5l9 -3l82 -16l57 22q2 4 11.5 13t21.5 18.5t24.5 16.5t20.5 7q7 0 7 -6q0 -4 -2 -9t-5 -7l-49 -48q-7 -7 -17.5 -13t-23.5 -11.5t-26 -9t-25 -5.5q-20 -9 -33 -13.5t-34 -4.5q-22 0 -35.5 4t-33.5 14
q0 -1 -10 5.5t-25 15t-32 15.5t-29 7q-9 0 -16.5 -4t-13.5 -9t-12.5 -11t-14.5 -10q-18 -10 -42 -23.5t-45 -13.5q-10 0 -16 -1t-11 -2t-10.5 -2t-14.5 -1q-11 0 -17.5 4t-17.5 8q-22 0 -40 17.5t-18 40.5zM58 63q0 -14 6.5 -24t17 -16t23.5 -9t25 -3q11 0 27.5 3.5
t23.5 10.5l27 25q2 2 2.5 6t0.5 7q0 6 -2.5 14t-7 15.5t-10.5 12.5t-13 5l-72 1q-6 0 -14.5 -5.5t-16 -13t-12.5 -15.5t-5 -14z" />
    <glyph glyph-name="M" unicode="M" horiz-adv-x="1594" 
d="M1154 182q2 8 5 18.5t3 19.5v45q0 2 2 8t2 8l16 38q0 2 1 6t1 6v47q6 27 18 50.5t24 46.5q0 2 4.5 10t4.5 10v8q0 7 -7.5 14t-15.5 7q-7 0 -11 -5.5t-9 -8.5q-6 0 -10 -4.5t-7 -11t-6.5 -13.5t-7.5 -13q-3 -2 -9 -8t-13 -12.5t-12.5 -13t-7.5 -8.5q-2 -4 -7 -9.5
t-11 -11.5t-12 -11t-9 -8l-92 -107q-5 -5 -15 -15.5t-20 -16.5q-1 -7 -5.5 -16t-10.5 -18t-11.5 -16.5t-9.5 -11.5l-35 -38q-13 -26 -27 -47t-39 -43q-6 -6 -10 -20l-8 -28t-10 -25t-17 -11q-17 0 -17 17q0 15 8 27t11 26q0 10 3.5 22t8 23.5t8.5 19.5t6 10v60q0 14 3 34.5
t5 34.5l15 138q0 1 1 6t2 8l15 33q4 8 4.5 16t0.5 17q0 21 -6 31t-29 10q-11 0 -20 -8t-17 -19t-14.5 -23t-10.5 -21l-3 -5q-12 -12 -19 -23.5t-12.5 -21t-10.5 -18.5t-13 -17l-81 -85q-17 -32 -36.5 -58.5t-49.5 -47.5q-11 -7 -21.5 -11.5t-19.5 -12.5l-44 -42
q-8 -8 -24.5 -15.5t-25.5 -15.5q-14 -11 -25.5 -20t-25 -16t-30 -11t-38.5 -4q-15 0 -26 -8.5t-25 -8.5q-10 0 -17 3t-14.5 6t-16 6t-21.5 3q-16 0 -33.5 6t-34 15.5t-30.5 22.5t-23 28l-2 4q-8 18 -17 34.5t-9 39.5q0 28 14 55t27 50q2 2 5.5 12t5.5 12q4 5 15 13t23.5 15
t25 12t19.5 5h49q10 0 25.5 -10t29.5 -25t24.5 -33.5t10.5 -35.5q0 -11 -6 -25.5t-15.5 -28t-21.5 -22.5t-23 -9t-11 12q0 14 3.5 29t3.5 35t-19 37t-41 17q-18 0 -28.5 -5.5t-18 -14t-13.5 -18.5t-13 -19l-24 -52q-2 -3 -2 -8v-9q0 -15 7 -29t18 -26t24 -21.5t24 -14.5
q13 -2 25 -6t23 -8.5t22.5 -8t24.5 -3.5q35 0 66.5 9t58.5 31q42 33 80 63.5t75 68.5l128 132q10 11 15 25.5t15 26.5q10 11 21 21.5t20 23.5q8 11 12 22.5t12 22.5t17.5 21.5t16.5 24.5l4 10q6 11 14 20t16 20q14 18 22 39.5t19 41.5q6 11 12.5 17t14.5 16q0 4 9 18t26 52
q2 9 1.5 21t1.5 23.5t8.5 19t21.5 7.5q3 0 4 -2q16 -14 25 -26.5t9 -34.5q0 -9 -4 -20.5t-8.5 -22t-7.5 -18t-2 -8.5l-10 -68q-3 -17 -7.5 -41.5t-6.5 -44.5l-16 -167q0 -4 -1.5 -14t-2.5 -23t-2 -26.5t-1 -23.5q0 -14 7.5 -29.5t24.5 -15.5q6 0 13.5 3.5t12.5 5.5
q6 13 20 34.5t30 42.5t30 38.5t19 23.5l70 76q6 9 14 16t16 15q27 27 52.5 54t49.5 59l75 101q12 12 25 29.5t27 33.5t30 27t34 11q13 0 16.5 -6.5t3.5 -18.5q0 -20 -7.5 -41.5t-23.5 -34.5l-8 -6l-28 -29q-1 -1 -3.5 -6.5t-5.5 -11.5t-5 -11.5t-3 -6.5q-19 -35 -37 -71.5
t-35 -73.5q-5 -9 -4.5 -19.5t-4.5 -21.5q-12 -19 -13 -33t-8 -30q-2 -10 -8 -19.5t-8 -20.5q-2 -16 -6 -32t-17 -35q0 -2 -1 -4.5t-1 -4.5v-139l2 -10q14 -35 26.5 -54.5t26 -28.5t30.5 -11t41 -2q7 0 20.5 -2t26.5 -2q14 0 21 4l46 19q5 7 14.5 11t14.5 11l45 67q0 1 5 1
q14 0 17.5 -4t3.5 -15q0 -16 -10 -25l-50 -51q-12 -12 -34 -21t-36 -16q-13 -7 -25 -14.5t-29 -7.5h-108q-14 0 -27 6.5t-24 14.5q-8 4 -19 10.5t-21.5 15.5t-17.5 21t-8 27v46q0 11 -4 22t-4 23v7z" />
    <glyph glyph-name="N" unicode="N" horiz-adv-x="1016" 
d="M299 234q0 -6 -2 -15.5t-6.5 -18.5t-10.5 -16t-14 -7q-17 7 -23.5 20.5t-12.5 28t-15.5 29t-31.5 25.5q-2 0 -4.5 1t-4.5 1h-75l-28 -29l-21 -46q-2 -4 -2 -14v-16q0 -17 7.5 -40t20.5 -35l42 -39q5 -3 14.5 -10.5t15.5 -6.5l83 9q14 2 37 7.5t35 13.5l65 32.5t64 32.5
q5 0 12 7.5t12 7.5l127 131q9 9 13.5 22t12.5 24t16.5 22t16.5 24q3 7 5.5 13t8.5 13q39 54 67.5 115t57.5 121q4 8 9 22.5t11 28t14 23.5t19 10q6 0 11 -3t5 -11v-75v-29t0.5 -12.5t1 -5t1 -7.5t0.5 -19.5v-40.5v-111q4 -14 3.5 -25t-0.5 -30q0 -4 1.5 -12t3.5 -17t3.5 -17
t1.5 -11q0 -16 9.5 -19t31.5 -3q16 0 28.5 12.5t22 30.5t18 38.5t17.5 37.5q8 14 21.5 33t24.5 30q10 11 16 22t16.5 25.5t29 34.5t53.5 49q12 22 27.5 38.5t38.5 29.5l93 97q16 17 31 23t31 19q28 22 58 40.5t64 31.5q8 3 20.5 6.5t25 7.5t23 8t15.5 7l62 7q5 1 20.5 -2
t33 -7.5t33 -9t20.5 -7.5q17 -8 39.5 -18.5t36.5 -23.5q1 -2 13.5 -17t26.5 -37t26.5 -47.5t14.5 -46.5v-46q0 -14 -2.5 -22t-6.5 -15t-7.5 -14t-6.5 -19q-12 -25 -23 -40t-22 -24.5t-22.5 -16.5t-23.5 -16q-6 -6 -14.5 -13t-11.5 -9l-54 -26h-13.5t-16.5 3t-13.5 9t-5.5 17
q0 8 14 15.5t32.5 14t36 11.5t24.5 9q15 8 28 24t22 35.5t14 41.5t5 43q0 12 -6.5 34.5t-18.5 45.5t-29.5 43t-39.5 27q-13 0 -23 4t-19 9.5t-17.5 9.5t-18.5 4h-94q1 0 -2.5 -1.5t-10 -3.5t-13.5 -5.5t-12 -6.5q-43 -10 -74 -26.5t-63 -46.5q-17 -6 -30.5 -17t-26.5 -23.5
t-25.5 -25.5t-26.5 -23q-11 -8 -23.5 -13t-20.5 -14l-102 -105l-10 -10t-6 -6.5t-8.5 -9.5t-16.5 -20.5t-30 -38.5t-49 -63q-14 -20 -23.5 -34.5t-18.5 -27.5l-68 -98q-11 -18 -18.5 -33t-16.5 -37q1 1 -3.5 -18t-13.5 -42.5t-23 -43.5t-33 -20q-17 0 -17 17q0 10 3.5 19
t8.5 17q5 9 5.5 20.5t4.5 21.5q1 1 3 5.5t4.5 10t4.5 10t2 5.5q1 11 -1 20t-6 17.5t-7.5 17t-4.5 17.5q0 6 -2.5 17t-5.5 24t-5.5 24t-2.5 17q0 22 -3.5 44t-3.5 45v67q0 10 -4.5 14.5t-10 5.5t-11 0.5t-7.5 -0.5q-8 0 -14 -7.5t-11 -18.5t-9.5 -22.5t-8.5 -19.5
q-15 -18 -21.5 -29.5t-13 -23.5t-19 -28.5t-40.5 -44.5q-10 -32 -32 -56l-102 -105q-19 -20 -45 -31t-49 -24q-1 -1 -6 -3.5t-11.5 -5t-11.5 -5t-6 -3.5l-6 -4l-97 -33q-15 -2 -38 -3.5t-47 0t-46.5 8t-37.5 20.5l-51 50q-4 4 -8 14t-7.5 22t-6 24t-2.5 18v53q0 15 13 37.5
t30.5 44.5t35.5 38t29 19l45 11q12 3 30 0t35 -9t30 -14t15 -15q11 -2 17.5 -15t10 -29t4.5 -30t1 -17z" />
    <glyph glyph-name="O" unicode="O" horiz-adv-x="667" 
d="M171 16q-32 5 -63 20t-50 44q-9 14 -13 26t-12 27q-7 13 -12 36t-8 46t-4.5 40.5l-1.5 17.5q0 10 3.5 18t3.5 17v40q2 12 7.5 22.5t9.5 22.5q5 17 9 31t14 32q3 8 8 20t11.5 25.5t14 27t15.5 22.5l35 35q0 1 2.5 7t7 13.5t10 15t10.5 11.5l76 75q3 3 11 7t11 6
q20 10 35.5 20.5t31.5 18.5t34.5 13t43.5 5h58q3 -2 12 -4t11 -2q26 0 44 -9.5t36 -21.5q12 -5 23 -10t20.5 -12t18 -17.5t17.5 -25.5q3 -3 9 -13.5t12.5 -24t11.5 -28.5t5 -28q10 -34 14 -56.5t4 -38.5t-1.5 -27t-1.5 -21q0 -11 -3.5 -17.5t-7.5 -15.5q0 -11 -6.5 -28
t-13.5 -29q-3 -5 -5.5 -23t-10.5 -30q-14 -20 -23 -40t-28 -43q-9 -10 -13.5 -23t-15.5 -24l-98 -96q-10 -8 -27 -16.5t-30 -12.5q-16 0 -30 -6.5t-27 -14t-26 -14t-26 -6.5h-103q-10 0 -20.5 5.5t-18.5 10.5zM155 76q14 -9 23 -10.5t24 -6.5q22 -8 38 -13t43 -5q8 0 28 4.5
t43 12.5t44.5 18.5t32.5 21.5l79 78q11 9 15.5 22t12.5 23q8 8 15.5 17t10.5 20q4 15 7.5 31t14.5 27l20 43l15 76q5 17 6.5 25.5t-0.5 25.5l-10 82q-1 17 -6.5 37.5t-16.5 32.5q-2 5 -3 9t-5 9q-13 18 -24 29t-22.5 19.5t-25 15t-30.5 14.5q-1 0 -2 0.5t-3 0.5h-77
q-8 0 -17 -6t-18 -8q-11 -4 -16 -3.5t-12.5 -1t-21.5 -8.5t-42 -26l-25 -24q-14 -23 -29.5 -42t-24.5 -41v-22q0 -5 5.5 -14t7.5 -11l28 -27q2 -2 6.5 -7.5t10 -10.5t11.5 -9.5t10 -5.5l39 -3q8 -1 15 5.5t14 14.5t13.5 15t14.5 7t14.5 -6.5t6.5 -14.5q0 -9 -5.5 -15
t-14 -10.5t-17 -7.5t-14.5 -6q-14 -6 -27 -14t-30 -8t-30 6t-24 13q-5 3 -13 6.5t-16.5 7t-16.5 7t-12 7.5q-8 6 -12.5 12.5t-8.5 12t-10 8.5t-17 3q-14 0 -21 -14t-7 -28q0 -19 -1.5 -30.5t-4 -20.5t-6 -17t-6.5 -20v-67q0 -16 -2 -27t-3.5 -22.5t-0.5 -25t7 -35.5
q2 -10 7 -20t10 -19q10 -13 15.5 -23t10.5 -19.5t12 -20t21 -23.5z" />
    <glyph glyph-name="P" unicode="P" horiz-adv-x="1176" 
d="M0 52q0 11 10.5 23t23.5 13l41 3q69 5 106 1.5t58 -9.5t35 -11.5t37 -5.5h129q14 0 24.5 6t24.5 11q1 1 6 2t11 2.5t11.5 2.5t6.5 1q17 6 31.5 16.5t31.5 16.5l30 30q4 8 8 13t8 13q11 26 23.5 50.5t26.5 50.5q6 11 12.5 29t12.5 29q8 12 11.5 19.5t11.5 21.5q1 2 4 7.5
t5 6.5q7 14 13 28t14 27q1 2 3.5 6t4.5 5q1 2 6.5 8.5t7.5 7.5q6 8 11.5 19l10.5 21l2 2q1 1 1.5 2t1.5 2q8 11 15 20.5t15 20.5q2 5 3.5 9.5t5.5 9.5q16 21 33.5 38t40.5 28q4 2 7.5 5t7.5 5q1 0 6.5 2.5t7.5 2.5q2 1 9.5 3.5t9.5 3.5l4.5 -1.5t1.5 -4.5q0 -6 -3.5 -12
t-7.5 -10l-41 -41q-2 -2 -4 -7.5t-4 -6.5q-13 -20 -22.5 -42t-20.5 -43l-4 -7q-5 -7 -8.5 -16t-7.5 -17q-2 -5 -5.5 -9.5t-5.5 -9.5q-8 -17 -16 -33t-16 -33q-1 -2 -5 -12.5t-9 -22.5t-9.5 -22t-4.5 -12q-1 -1 -6.5 -9.5t-12.5 -19t-12.5 -19.5t-6.5 -9q-7 -10 -14 -18
t-13 -19q-6 -9 -8.5 -16t-10.5 -15l-63 -63q-8 -8 -20 -12.5t-23 -9.5t-19.5 -12.5t-8.5 -21.5q0 -7 4 -13t12 -6l177 1q5 0 34 2.5t62.5 5.5t62 6t33.5 4q1 1 8.5 4t16 6t16 6t9.5 4q2 2 13.5 6t13.5 5q4 2 12.5 11.5t12.5 9.5q9 6 20 11.5t22 5.5q19 0 19 -17
q0 -13 -12.5 -18.5t-21.5 -11.5q-33 -20 -70 -35q-14 -5 -22.5 -9.5t-16 -7.5t-17.5 -5.5t-27 -3.5l-278 -27q-6 -1 -44 0t-92.5 3t-116.5 4t-116.5 4t-92.5 3.5t-44 1.5q-18 0 -27 -5.5t-25 -8.5h-21q-13 0 -22 1t-16 4t-14 8.5t-15 14.5q-8 10 -8 24zM691 722q5 5 11 7
t11 5q5 2 9 5t9 6q7 2 13.5 4.5t12.5 6.5q4 3 18 8.5t30.5 11.5t32 11.5t22.5 7.5t19.5 3.5t20.5 3.5q2 3 3.5 4.5t10 2.5t28 1t58.5 2h14.5t18 -1.5t27 -4.5t41.5 -8q16 -3 28.5 -8.5t25.5 -11.5q4 -2 17.5 -8t17.5 -8q7 -6 14.5 -9t15.5 -8q19 -16 34 -38.5t23 -45.5
q2 -8 3 -17.5t5 -17.5q6 -15 11 -31t6.5 -32t-1.5 -32t-13 -31q-3 -8 -8.5 -18.5t-12 -21t-13.5 -20t-14 -15.5l-61 -48q-6 -5 -11.5 -7t-10.5 -6q-11 -7 -24 -13.5t-27 -6.5h-61q-23 0 -34.5 16.5t-11.5 36.5t10 38t34 18q13 0 23.5 -7.5t16.5 -18.5q1 -1 2.5 -6.5
t3.5 -7.5l20 -20q3 -3 8.5 -3.5t9.5 -0.5q9 0 15.5 2.5t14.5 7.5q1 1 7.5 3.5t7.5 4.5q3 1 9 8.5t13 16.5t13 17.5t8 11.5q12 14 21 30.5t9 36.5q0 37 -2.5 58t-6.5 33t-9 17l-9 9q-4 10 -13 21t-20 20.5t-22 17.5t-19 14q-8 5 -23 8t-25 4q-5 1 -14 3t-19 4.5t-18.5 4
t-12.5 3.5q-10 -1 -13 -0.5l-6 1l-9 1.5t-23 2.5t-48.5 2t-83.5 0.5q-10 0 -17 -3.5l-15 -7.5q-21 -9 -41.5 -19t-40.5 -22q-8 -5 -17 -7.5t-17 -7.5q-2 0 -4.5 -3.5t-3.5 -3.5q-2 -1 -8 -3.5t-8 -4.5l-36 -36l-4 -2q-4 -2 -4 -3q-2 -1 -10 -4.5t-9 -4.5q-18 -11 -30 -22
t-21 -23.5t-16.5 -27.5t-16.5 -34q-2 -8 -3 -17.5t-5 -17.5q-1 -2 -5 -12t-6 -12q-1 -5 -1 -12q0 -10 6.5 -26t17 -31.5t23 -26.5t24.5 -11h53q4 0 8.5 -4.5t5.5 -6.5v-7q0 -12 -7.5 -17.5t-18 -8t-22 -3t-18.5 -1.5q-9 -1 -18 -3.5t-20 -2.5q-17 0 -37 11.5t-36.5 29.5
t-25.5 40t-2 43l18 56q5 14 10 23.5t13 19.5q4 3 5 7.5t5 9.5q0 2 4 5t4 5q5 5 6.5 12.5t7.5 13.5l87 87q12 12 29 27.5t59 38.5z" />
    <glyph glyph-name="Q" unicode="Q" horiz-adv-x="790" 
d="M683 -315q-3 0 -5 1q-3 1 -7 3q-3 2 -14.5 7t-13.5 5q-1 0 -11.5 3.5t-11.5 3.5q-9 2 -16.5 7t-15.5 7q-11 2 -22.5 4.5t-22.5 9.5l-7 5q-5 4 -18 9.5t-17 7.5q-1 0 -5 1t-8.5 2.5t-8.5 2.5l-4 1q-10 2 -26.5 12t-25.5 17q-13 9 -21.5 13t-15 7.5t-13.5 10t-17 19.5
q-8 5 -17.5 10.5t-17.5 11.5q-14 9 -26.5 20.5t-28.5 17.5h-36q-17 -3 -36 -13.5t-33 -10.5h-98q-5 0 -11.5 3t-9.5 7l-35 38q-11 13 -11 29q0 21 12 39t28 29q5 5 13 7t12 4q11 7 20.5 13t22.5 6h18t19 -5q8 -3 16 -8.5t16 -7.5q24 -8 42.5 -25.5t36.5 -35.5q7 -5 15 -9
t16 -4q1 0 15 3.5t30.5 8t30.5 8t16 2.5q16 10 37 21.5t39.5 21t32.5 16.5t17 9l22 25q2 2 2 5.5v6.5q0 21 -17 21q-14 0 -25 -7t-25 -7q-8 0 -15.5 2.5t-16.5 2.5h-51q-8 0 -14 5t-13 6t-20 6.5t-27 12t-26 14t-17 13.5l-51 61q-3 4 -7 12.5t-7.5 18t-5.5 19t-2 14.5
q0 26 0.5 37.5t0.5 16.5t0.5 6t0.5 6q0 45 4 81.5t15 71.5q9 23 22 46t30 41q2 5 7.5 13.5t11.5 17.5t12.5 17t9.5 11l103 97q12 11 28.5 19t35 14.5t37 11.5t32.5 10q0 1 4 3t8.5 3.5t8.5 3.5t5 3q3 1 7 3t8 2h110q15 0 29.5 -10.5t27.5 -17.5q29 -14 50.5 -35t32.5 -55
q3 -10 4.5 -20t4.5 -19l10 -22t5 -24v-35q0 -2 2.5 -13t2.5 -13v-25q-1 -3 -3.5 -9t-5.5 -13t-6 -13.5t-5 -8.5q-4 -8 -4.5 -17t-3.5 -17q0 -1 -2 -5t-3.5 -8.5t-3 -8.5t-1.5 -5t-3 -13t-3 -13q-3 -11 -9.5 -18.5t-11.5 -16.5q-11 -17 -19 -35t-18 -36q0 -2 -2 -4
q-1 -1 -1 -2q-3 -5 -9 -19t-12 -18q-5 -11 -16.5 -22.5t-17.5 -19.5l-78 -82q0 -1 -1 -2q-2 -2 -4 -2q-8 -7 -17 -13t-15 -16q-11 -13 -19 -17.5t-19 -13.5l-12 -14q-7 -5 -13 -6t-11 -5q-8 -6 -24.5 -19t-35 -26.5t-37 -24.5t-30.5 -14q-4 -4 -10.5 -7.5t-12.5 -7t-9.5 -7
t-0.5 -6.5q1 -3 6.5 -9.5t7.5 -8.5q8 -6 16 -8.5t16 -7.5q18 -11 39 -23t39 -20q1 0 11.5 -2.5t11.5 -2.5q20 -7 35.5 -16.5t33.5 -17.5q2 0 12.5 -2.5t11.5 -2.5l6 -2q15 -7 27.5 -10.5t28.5 -10.5q8 -2 9.5 -3.5t9.5 -6.5q12 -3 19 -3q3 0 11.5 -2t17.5 -4t17 -4t11 -2
q11 -2 22.5 -4t17.5 -2h222h2q1 0 1.5 0.5t1.5 0.5q8 5 18.5 10t20.5 7h33q18 1 36 3.5t35 9.5q9 5 22 8.5t24 5.5q18 10 32 18.5t30 18.5l20 9l23 32l57 72q4 11 12 23.5t22 12.5q9 0 12.5 -7t3.5 -15q0 -14 -8 -31t-20 -33.5t-24.5 -29.5t-21.5 -18q-9 -4 -17.5 -9
t-16.5 -10q-2 -3 -8.5 -9t-8.5 -8q-1 -2 -7 -4.5t-7 -2.5q-12 -8 -20.5 -15.5t-19.5 -14.5q-13 -10 -26.5 -16t-27.5 -14q-24 -14 -52.5 -22.5t-54.5 -17.5q-1 0 -5 -1.5t-8.5 -3.5t-8.5 -4t-4 -3q-2 -1 -8 -3q-3 -1 -5 -1h-65q-10 0 -28.5 -5.5t-29.5 -7.5l-79 -8
q-2 0 -7 2.5t-6 2.5q-2 1 -9 1.5t-15.5 0.5t-15.5 0.5t-10 1.5zM306 168q5 -3 10 -7t10 -7q22 -10 37.5 -15t38.5 -5h28q2 0 7 1.5t6 1.5q17 5 27.5 11t27.5 8q6 2 19.5 9.5t17.5 9.5q17 9 27 20t24 25q8 8 20 14t21 11l44 47q7 8 10.5 18.5t8.5 18.5q4 6 8.5 11t8.5 12
q6 8 9 18t11 18q7 10 12.5 24.5t9.5 28.5q4 10 5.5 19.5t3.5 18.5t5.5 18.5t11.5 19.5q0 3 1.5 9t4 12.5t4 12.5t1.5 9q1 14 4 29.5t3 27.5q0 13 -4.5 22t-8.5 20q-3 8 -4.5 16.5t-3.5 18.5q-2 8 -11.5 21.5t-22 26t-25 22t-21.5 9.5h-67l-9 -2q-3 -4 -7 -7q-3 -3 -6 -5
t-5 -4l-2 -2q-1 -1 -1 -4q-2 -5 -8 -19t-7 -20q0 -1 -1.5 -5t-1.5 -5v-2q0 -10 3 -16.5t3 -15.5v-9q-3 -5 -10 -5q-6 0 -12.5 5t-11.5 12.5t-8 16t-3 14.5q-1 12 -0.5 22.5t-1.5 18.5t-8 13t-20 5q-6 0 -16 -9t-21 -20l-21 -21t-16 -12l-85 -101q-11 -13 -18 -29.5
t-15 -28.5q-8 -8 -14.5 -17.5t-13.5 -20.5q-5 -11 -12 -25.5t-7 -27.5q0 -8 -6.5 -17t-6.5 -17q0 -9 -1 -14t-1.5 -9.5t-1.5 -9.5t-1 -13v-99l1 -13l2 -5t4.5 -11t5.5 -12.5t5 -10.5q14 -29 37 -48zM86 -4q-4 0 -11 -2t-13.5 -5t-11 -7.5t-4.5 -8.5v-31q0 -3 4 -6.5t9 -6.5
t9.5 -5t6.5 -2h107q8 0 11.5 9.5t3.5 15.5q0 7 -4.5 14.5t-11 14.5t-13.5 11.5t-13 5.5q-11 3 -21 3h-21h-27z" />
    <glyph glyph-name="R" unicode="R" horiz-adv-x="1336" 
d="M9 184q-3 11 -7.5 17t-4.5 17q0 16 9 30.5t9 34.5q1 3 8.5 14t18.5 23.5t25.5 22t28.5 9.5h56q12 0 26.5 -10t27 -23t21.5 -27t9 -21q0 -12 -10 -25.5t-24.5 -24.5t-30.5 -18.5t-28 -7.5q-17 0 -21 15t-5.5 33t-7 33t-25.5 15q-12 0 -22 -10.5t-17.5 -24.5t-11.5 -28
t-4 -22q0 -15 8.5 -30t14.5 -28l4 -6q2 -4 8.5 -17.5t8.5 -17.5q0 -2 3 -5l6.5 -6.5t7 -6t3.5 -3.5l42 -22q1 0 15 -3.5t30.5 -7.5t31 -7t16.5 -3q3 0 17.5 2.5t30.5 6.5t29.5 7t15.5 5q13 8 24.5 12t23 7t24 7.5t28.5 13.5q9 5 18 14t17 19t15.5 18t13.5 11q6 13 11.5 22.5
t11 18t10.5 17t10 20.5q6 14 13 30.5t14 30.5q10 34 23.5 64.5t26 58t24 53t18.5 51.5l34 67q0 6 11 25.5t28 39.5t37 36t38 16q5 0 8.5 -1.5t3.5 -7.5q0 -5 -6 -10.5t-13.5 -12.5l-15 -14t-11.5 -13q-3 -5 -5.5 -10t-6 -13.5t-9 -22t-15.5 -34.5q-7 -15 -15 -28.5
t-14 -28.5q-4 -9 -4.5 -19t-4.5 -19q-5 -10 -10 -19t-5 -20q0 -14 -1.5 -23.5t-4.5 -17t-6.5 -14t-6.5 -15.5q0 -14 -0.5 -19t-1.5 -8.5t-1.5 -8t-0.5 -15.5q0 -2 -3 -8.5t-6.5 -14t-6.5 -14t-3 -7.5q0 -12 -4 -21l-23 -47l-27 -39l-76 -67q-20 -17 -38.5 -28t-36.5 -19
t-35.5 -14.5t-33.5 -14.5q-15 -7 -24 -12t-17 -8t-18 -4.5t-28 -1.5q-45 0 -64.5 1.5t-31.5 5t-24 9.5t-42 16q-14 7 -22.5 15t-15 16t-12 16t-13.5 17q-7 6 -19 30t-16 56zM1131 8q-21 7 -38 13t-32 15t-28.5 22t-26.5 34q-11 5 -27 40t-33 82l-46 118q-8 9 -14 17
t-14 14.5t-20.5 12.5t-33.5 12q-11 3 -22.5 3.5t-22.5 2.5q-4 1 -19.5 0.5t-33 0.5t-31 4.5t-13.5 11.5q0 5 8.5 8t20 4.5t22 2t15.5 0.5l85 9q17 2 35.5 10t35.5 20t31.5 28t24.5 33q17 36 34.5 68t17.5 60q0 27 -11 49t-32 42q-9 4 -19.5 4t-19.5 5q-6 2 -14.5 7t-16.5 7
q-11 1 -23 4.5t-24.5 8t-26.5 8t-29 3.5h-26t-40.5 -0.5t-40.5 -0.5h-27q-41 0 -80.5 -19t-71.5 -39q-7 -3 -23.5 -13t-34 -24t-30.5 -30.5t-13 -32.5v-63q0 -8 6.5 -18.5t15.5 -20.5t18.5 -18t16.5 -11q7 -4 11.5 -4.5t11.5 -0.5q5 0 12 -0.5t11 2.5l43 21q7 9 18 9
q10 0 10 -7q0 -15 -13 -26.5t-32 -20t-40 -13t-37 -4.5q-11 0 -30 7t-37 19t-31.5 26.5t-13.5 29.5v41q0 27 8.5 48.5t19.5 33.5q13 14 21 27t17 25q10 14 26 21t33 24q24 12 39.5 21t30.5 14.5t33 8.5t46 3q9 0 17.5 4t18.5 4q51 0 82.5 -1.5t54 -3t40.5 -2.5t42 -1
q11 0 20.5 -3.5t19.5 -7l20 -7t23 -3.5q8 0 24.5 -5.5t33.5 -15t31.5 -22.5t17.5 -27q5 -17 11 -38.5t6 -44.5q0 -45 -15.5 -85t-60.5 -63l-82 -41q-8 -4 -16.5 -5t-16 -3.5t-12.5 -7.5t-5 -17t9 -21.5t22.5 -17t29 -13.5t27.5 -12l18 -18q4 -6 14.5 -25t22 -42.5
t21.5 -45.5l15 -33q5 -13 12.5 -28.5t17 -30t22.5 -25.5t30 -15q11 -3 21.5 -8.5t23.5 -10.5t29 -9t38 -4q7 0 10 1l64 9l12 5l29 -3q-12 -11 -15 -16t-6.5 -8.5t-11 -6.5t-26.5 -10q-6 -2 -16 -6t-22.5 -8t-26 -7t-26.5 -3l-24 4q-11 2 -25 3.5t-29 1.5z" />
    <glyph glyph-name="S" unicode="S" horiz-adv-x="571" 
d="M139 18q-5 2 -11 3t-10 3q-15 15 -24 20t-16 9.5t-13.5 12t-16.5 27.5q-2 2 -10.5 10t-9.5 10q-7 8 -7.5 19t-2.5 19q-4 12 -11 22.5t-7 23.5v49q0 2 1.5 9t3.5 8l21 44q0 2 5.5 8t8.5 9q10 10 17.5 17t16 13t17.5 11t22 11q2 0 7.5 3.5t7.5 3.5q15 2 26.5 1.5t23.5 -3.5
q8 -2 25 -5t25 -8q6 -4 12.5 -11.5t12 -16.5t9 -18.5t3.5 -17.5q0 -13 -0.5 -21.5t-1 -15.5t-1 -13t-0.5 -13q0 -23 -14.5 -36.5t-32.5 -21.5q-2 0 -7.5 -3.5t-6.5 -3.5q-7 -1 -12.5 1.5t-5.5 11.5q0 5 3 8q10 10 16 17.5t9 14t3.5 13.5t0.5 17q0 13 -2.5 25.5t-10 22.5
t-21.5 16.5t-36 6.5q-21 0 -41 -8t-35.5 -22t-25 -32.5t-9.5 -39.5q0 -5 0.5 -9t0.5 -8t-0.5 -8t-0.5 -9q0 -24 10 -41t12 -33q2 -15 14 -20.5t23 -12.5q26 -27 44.5 -38t42.5 -12q9 -2 15.5 -2.5t12 -0.5h11.5h15q31 0 56.5 12t54.5 25q23 11 38.5 27t32.5 30q1 2 5 6
t8.5 8t8.5 7.5t5 5.5q8 12 13.5 28.5t6.5 32.5l5 84q0 5 -2 9.5t-4 7.5q-17 32 -30 60.5t-24 66.5q-11 12 -13.5 28.5t-6.5 30.5q-3 10 -9 18.5t-7 18.5l-9 90q-3 34 12 72.5t46 68t76.5 43.5t104.5 -1l44 -11l39 -27q21 -8 39 -32.5t18 -55.5q0 -8 0.5 -10t1 -3.5t1 -4.5
t0.5 -11q0 -28 -19 -41t-42 -24q-5 -2 -11.5 -5.5t-11.5 -3.5h-39q-5 0 -14 3t-18 8.5t-15.5 11.5t-6.5 12q0 8 2.5 9.5t10.5 1.5q10 0 15.5 -5t15.5 -5t22 7t22.5 17.5t17.5 22.5t7 22q0 17 -12 28q-22 27 -39 40t-33 18t-33 4.5t-40 -0.5q-21 0 -39 -13.5t-31.5 -33.5
t-21 -42.5t-7.5 -40.5q0 -12 2.5 -25.5t13.5 -30.5q10 -24 17.5 -43t13.5 -35.5t11 -32.5t11 -33q6 -20 13.5 -34.5t14.5 -28.5q4 -10 8 -18t6.5 -17t4 -20t1.5 -27q0 -20 1 -35t-1.5 -31t-9.5 -35.5t-23 -49.5q-1 -4 -8.5 -13t-16 -19t-16.5 -18.5t-11 -11.5l-55 -34
q-32 -20 -62 -32t-57 -16q-10 -5 -23.5 -7t-26.5 -2q-3 0 -6 0.5t-5 0.5l-53 8z" />
    <glyph glyph-name="T" unicode="T" horiz-adv-x="833" 
d="M197 96q-16 19 -26 44.5t-15.5 53.5t-5 58t5.5 58q2 2 3.5 9t3.5 9q0 33 11 61t23 46q0 2 9 13t12 22q8 8 20 18t14 14q5 14 13.5 24.5t18 20t18.5 19.5t17 25q5 6 14.5 14t18.5 16.5t16 16.5t7 13v26q-6 10 -25.5 24t-46 25.5t-56.5 17t-57 -3.5q-12 -4 -26 -13t-26 -19
t-21 -18t-10 -10q-7 -10 -14 -27.5t-7 -31.5v-39q0 -4 2.5 -13.5t6.5 -20t8 -19t7 -9.5q9 -6 22.5 -12t13.5 -20q0 -9 -8.5 -12.5t-15.5 -3.5q-16 -1 -30 0.5t-29 8.5q-8 3 -19 12.5t-21 21t-16.5 24t-6.5 22.5q0 3 1 12t2.5 19t3 18t2.5 9l21 37q1 5 3 6.5t6 6.5
q9 17 19 30t26 26q9 7 16 16t16 17q4 2 10 5.5t11.5 7t9 6l3.5 2.5q4 2 16 7.5t25.5 11.5t26.5 10.5t18 4.5q22 0 35 -2t23 -6t21 -10.5t30 -15.5q10 -8 20 -20t21.5 -23t23.5 -18.5t27 -7.5q8 0 12 2t11 5q11 0 24.5 8.5t28 20t28 22t23.5 13.5l53 15q14 10 36 10
q11 0 24 -0.5t24 -3.5q14 -8 22.5 -11.5t15.5 -15.5l19 -33v-34q-10 -18 -19 -32t-26 -28q-11 -5 -22.5 -7.5t-22.5 -7.5t-24 -11t-26 -6h-98q-19 5 -36.5 13.5t-35.5 8.5q-22 0 -34 -7.5t-19.5 -18t-13 -22.5t-13.5 -20q-2 -4 -6 -6.5t-6 -4.5q-8 -11 -15.5 -20
t-16.5 -20.5t-20.5 -26.5t-27.5 -36q0 -4 -6.5 -17.5t-14 -29.5t-13.5 -31t-6 -21v-128q0 -9 5 -21.5t11.5 -24.5t12 -21t5.5 -10q0 -5 13 -20.5t36 -35.5l60 -25q9 -8 28.5 -14t32.5 -6q88 4 139 11t80 17t44.5 23.5t32.5 31.5q9 7 17 16t16.5 17.5t18.5 14.5t23 6
q12 2 16.5 -5t4.5 -15q0 -5 -4 -15.5t-6 -12.5l-26 -26q-22 -11 -40.5 -25.5t-45.5 -28.5q-13 -7 -28 -16.5t-25 -12.5q-5 -2 -11.5 -3.5t-12.5 -5.5q-3 -2 -8 -6.5t-10 -5.5l-101 -19l-158 9q-11 1 -24.5 6t-24.5 10q-12 5 -23.5 7.5t-22.5 9.5q-7 4 -15 12t-16.5 17
t-16.5 18.5t-16 15.5zM522 704q-4 -4 -4 -8v-27q0 -8 12.5 -11.5t18.5 -3.5q14 0 28 -0.5t28 1.5q32 0 49.5 16t17.5 42q0 11 -8.5 19t-19.5 8h-62q-2 0 -6.5 -0.5t-5.5 -2.5q-11 -6 -18 -9.5t-11.5 -7t-8.5 -7t-10 -9.5z" />
    <glyph glyph-name="U" unicode="U" horiz-adv-x="834" 
d="M164 291q0 3 -1 15.5t-2 28.5t-1.5 30.5t0.5 20.5l11 89q2 0 4 18t18 43q3 4 9.5 15t13 23t12 23t5.5 16q0 17 -14 34t-32 19q-11 0 -21.5 3.5t-20.5 8t-20 8.5t-22 4t-23 -6.5t-21.5 -14.5t-20 -14.5t-18.5 -6.5q-14 0 -14 15q0 10 7.5 16.5t18.5 13.5t24.5 15.5
t24.5 23.5q4 3 7 11.5t7 17.5t9.5 16.5t14.5 7.5q10 0 19 -8.5t18 -19t19 -19t23 -8.5h90l8 2q4 1 15 6.5t15 6.5q9 4 18 5t18 3q8 2 14.5 7.5t12.5 11.5t11 10.5t10 4.5t9.5 -3.5t4.5 -11.5q0 -11 -15 -19.5t-24 -11.5q-21 -22 -44 -42t-33 -36q-11 -19 -20.5 -39.5
t-19.5 -40.5q-6 -10 -9 -17.5t-4.5 -14t-2 -12.5t-3.5 -12q-4 -9 -11 -21.5t-7 -23.5v-191q0 -10 4 -19.5t8.5 -18.5t8 -18t2.5 -18l32 -63q4 -7 14 -15.5t16 -13.5q8 -8 16 -17t16.5 -18t18 -16t20.5 -10q39 -10 60 -16.5t44 -6.5q17 0 27.5 1t19 4t17.5 8t23 12
q20 10 40 21t42 20l23 23q13 25 32.5 43.5t33.5 42.5q3 3 8 12.5t11 22t12 26t11 24.5q-1 -1 0.5 7t4.5 21t7 28.5t8 30.5v60q5 8 4.5 23.5t-3.5 31t-8 27.5t-10 15q-9 11 -20.5 22.5t-24.5 21.5q-13 8 -28 16t-27.5 18t-20.5 23.5t-8 31.5q0 6 3 18t9 24t13.5 21t16.5 9h42
q7 0 15.5 -5t17 -12t15.5 -14.5t10 -13.5l22 -47q4 -9 4.5 -16.5t2.5 -15.5q1 -6 4.5 -16.5t7.5 -22t7.5 -22.5t3.5 -17l6 -100l-14 -93q0 -1 -3 -7.5t-6.5 -15t-8 -17.5t-7.5 -14q-7 -7 -9.5 -14.5t-3.5 -15.5t-2.5 -16.5t-5.5 -15.5q-11 -11 -18.5 -22.5t-16.5 -24.5
q-2 -4 -3.5 -8.5t-4.5 -8.5q-14 -19 -31.5 -35t-33.5 -33q-8 -7 -17.5 -17.5t-19.5 -16.5q-5 -4 -13 -10t-16.5 -12t-16.5 -11t-14 -8q-12 -6 -30 -11.5t-36 -10.5t-33 -7.5t-21 -2.5l-75 3q-11 1 -22 7.5t-21 10.5q-23 0 -52 18t-54 40q-42 42 -67 95.5t-25 116.5z" />
    <glyph glyph-name="V" unicode="V" horiz-adv-x="879" 
d="M258 -84q0 8 2.5 11t7.5 11q-1 -1 6 13.5t15 34t15.5 39t7.5 30.5l6 110q0 9 -3.5 28t-8 40.5t-8.5 40.5t-5 27l-7 94q1 0 1.5 12t2.5 28.5t6 34t10 27.5q3 10 6.5 14.5t7.5 15.5q11 27 26 48.5t39 47.5q4 10 10 19.5t11.5 19t9.5 19.5t4 21q0 14 -10 22t-21 8
q-7 0 -17 -4t-20.5 -8.5t-20.5 -8t-16 -3.5q-35 9 -60.5 6.5t-44 -10t-30 -17.5t-18.5 -15l-69 -73q-6 -10 -13 -22t-13 -24.5t-10 -24t-4 -20.5q0 -16 8 -32.5t16 -34.5q4 -12 14 -16.5t20.5 -8t19 -8.5t8.5 -17q0 -13 -8 -25t-22 -12q-12 0 -22 -1t-19 1q-18 4 -33.5 18
t-22.5 41l-14 48q-2 6 1.5 21.5t9 32.5t10.5 32.5t8 20.5q8 16 17 26t17 26q17 24 38 45t43 40q11 4 18 8.5t14 9.5t16 11t24 15q4 3 14.5 8t22.5 10t22.5 8.5t16.5 3.5h47l21 -7q14 0 22 -1t12.5 -1.5t8.5 -1.5t10 -1q1 0 7.5 2t13.5 4.5t13.5 4.5t7.5 2q11 0 27 9.5
t29 13.5h43q5 0 9 -6t4 -11q0 -10 -6.5 -15.5t-15 -8.5t-17.5 -4.5t-14 -2.5q-19 -4 -26.5 -18t-12.5 -31t-10.5 -33t-20.5 -24q-7 -15 -11.5 -22.5t-8.5 -13t-8 -12.5t-10 -21q-12 -5 -19.5 -23t-11.5 -43.5t-6 -55.5t-2.5 -59.5t0 -55t0.5 -42.5q0 -21 6 -39t12 -40
t8 -51.5t-6 -71.5q-2 -8 0.5 -20t7.5 -22.5t11.5 -18t13.5 -7.5q28 13 55.5 27t52.5 31q3 0 8.5 7t10.5 11q6 7 13 8.5t15 6.5q17 12 31.5 20t28.5 15.5t30 17.5t36 27l68 70q7 7 12 17t10 18q10 13 16.5 21.5t11.5 14.5l10 12t12 15q16 21 23.5 44.5t20.5 44.5q1 3 4.5 10
t8 15t8 15.5t4.5 10.5q5 20 8.5 33.5t3.5 27.5v78q0 14 -10 30t-23.5 30.5t-28 26.5t-24.5 18q-5 2 -12 3t-14 2.5t-11.5 5t-4.5 12.5q0 8 5 12.5t11.5 6.5t13.5 3.5t11 3.5h43q6 0 14 -3t17 -7.5t17.5 -9.5t14.5 -9q3 -3 9.5 -12t13.5 -21t13 -25t8 -25l9 -52q3 -17 3 -30
t-4 -29.5t-12.5 -40t-20.5 -61.5q-18 -21 -25.5 -41t-18.5 -41q-12 -12 -19.5 -24t-13 -23t-11.5 -21.5t-15 -20.5l-95 -99q-26 -25 -57.5 -43t-60.5 -38q-14 -10 -25 -21t-31 -19q-12 -7 -26.5 -12t-28 -10t-26 -12.5t-19.5 -18.5q-10 -15 -16.5 -17.5t-14 -1.5t-18.5 0.5
t-32 -11.5l-47 -24q-7 -6 -15 -10t-15 -12q-18 -18 -33 -37t-29 -19q-6 0 -7 4t-1 10z" />
    <glyph glyph-name="W" unicode="W" horiz-adv-x="1252" 
d="M256 -73q0 8 2.5 11t6.5 11q-1 -1 4.5 13.5t12.5 34t13.5 39.5t6.5 31l-32 114q0 9 -3 28.5t-7 41t-7.5 40.5t-3.5 27l-6 95l1 12t2.5 28.5t4.5 34t9 27.5q2 11 5 15.5t6 15.5q9 27 22 48.5t33 47.5q7 21 18.5 39t11.5 41q0 14 -8.5 22t-17.5 8q-6 0 -14.5 -4t-17.5 -8.5
t-17.5 -8t-13.5 -3.5q-29 9 -51 6.5t-37.5 -10t-25 -17.5t-15.5 -15l-58 -74q-11 -20 -22.5 -46.5t-11.5 -45.5q0 -16 6.5 -32.5t13.5 -34.5q3 -12 12 -16.5t18 -8t16 -8.5t7 -17q0 -14 -7 -26t-19 -12q-10 0 -18 -1t-16 1q-15 4 -28.5 18t-18.5 42l-12 48q-2 6 1 21.5
t7.5 33t9 33t6.5 20.5q7 16 14.5 26t14.5 26q14 25 32 46t36 40q9 4 15 8.5t12 9.5t14 11l20 15q4 3 12.5 8t18.5 10t19 9t14 4h40l18 -7q12 0 18.5 -1t10.5 -1.5t7 -1.5t8 -1q1 0 6.5 2t11.5 4.5t11.5 4.5t6.5 2q9 0 22.5 9.5t24.5 13.5h36q4 0 7.5 -6t3.5 -11
q0 -10 -5.5 -15.5t-12.5 -9t-14.5 -5t-11.5 -2.5q-16 -4 -23 -18t-11 -31t-9 -33t-17 -24q-6 -15 -10 -22.5t-7 -13.5l-6.5 -13t-8.5 -21q-10 -5 -16 -23t-10 -43.5t-5.5 -56t-2 -60t0 -55.5t0.5 -43q0 -42 17 -94t37 -113q3 -8 5.5 -19.5t5.5 -22.5t7 -18.5t10 -7.5
q24 13 47.5 27t43.5 31q3 0 7.5 7t8.5 11q5 7 11 8.5t13 6.5q14 12 20.5 20.5t11.5 17t12.5 19t24.5 27.5l55 68q-2 -2 0.5 2.5t6 11t8 14t6.5 10.5q8 13 13.5 21.5t10 14.5t8.5 12l10 15q9 15 15 31t11 31q3 24 11 40q2 10 5 14.5t7 15.5q3 11 7 21t9 20q1 4 5 15t9 23.5
t9 23.5t4 15l1 78l-1 34q5 19 10.5 23.5t14 5.5t19.5 5t26 24l18 -22.5t5 -21.5t-9 -40.5t-24 -80.5q-5 -12 -8.5 -18.5t-6 -11.5t-5 -9t-5.5 -10q-4 -16 -10 -39t-16 -58l-23 -74q-2 -25 4.5 -54t15.5 -56.5t16.5 -51.5t7.5 -39q0 -21 0.5 -29.5t2.5 -19t5.5 -29
t10.5 -58.5q1 -8 3.5 -20t5.5 -23t7.5 -18.5t10.5 -7.5q24 14 47.5 28t44.5 31q2 0 6.5 7t9.5 11q5 7 10.5 8.5t12.5 6.5q14 12 26.5 20t24.5 16t25.5 18t30.5 27l57 70q6 7 10 17.5t9 18.5q8 13 13.5 21.5t10 14.5t8.5 12l10 15q13 21 19.5 45t17.5 45q1 3 4 10t6.5 15
t6.5 15.5t4 10.5q4 20 7 34t3 28v78q0 15 -8.5 31t-20 30.5t-23.5 26.5t-20 18q-4 2 -10 3t-12 2.5t-10 5t-4 12.5q0 8 4 12.5t9.5 7t11.5 4t10 3.5h36q10 0 26.5 -11t26.5 -19q2 -3 7.5 -12t11.5 -21t11 -25t7 -25l8 -53q3 -17 3 -30t-4 -29.5t-11 -40t-17 -62.5
q-15 -21 -21.5 -41t-15.5 -42q-10 -12 -16 -24t-11 -23t-10 -21.5t-13 -20.5l-80 -100q-22 -25 -48.5 -43.5t-50.5 -38.5q-13 -10 -22 -21t-26 -19q-10 -7 -22 -12t-23.5 -10.5t-22 -12.5t-16.5 -19q-9 -15 -14 -17.5t-11.5 -1.5t-16 0.5t-27.5 -11.5l-39 -24q-6 -6 -13 -10
t-13 -12q-15 -18 -28 -37.5t-24 -19.5q-5 0 -6 4t-1 11q0 8 2.5 11t6.5 11q-1 -1 5 13.5t13.5 34t13.5 39.5t5 31l-12 97q-1 9 -5 33.5t-9.5 51t-12.5 47t-14 22.5l-23 5q-2 -3 -8 -10.5t-8 -10.5l-53 -52q-11 -12 -17.5 -23t-12.5 -21.5t-13.5 -20.5t-19.5 -20t-21 -21
t-26 -19q-10 -7 -22 -12t-23.5 -10t-22 -12.5t-16.5 -18.5q-9 -16 -14 -18.5t-11.5 -1.5t-16 1t-27.5 -12l-39 -24q-6 -6 -13 -10t-13 -12q-15 -18 -28 -37t-24 -19q-5 0 -6 4t-1 10z" />
    <glyph glyph-name="X" unicode="X" horiz-adv-x="1169" 
d="M0 161q0 5 2.5 9.5t2.5 9.5q0 6 -1.5 11t-1.5 11q0 15 9.5 26.5t18.5 23.5q7 9 9.5 15.5t5.5 11.5t8.5 9t17.5 8q3 1 5.5 4t6.5 5q2 1 8.5 2t14 2.5t14 2.5t9.5 1q4 -2 17.5 0t21.5 -5q10 -9 15 -12.5t9 -5t7 -2t9 -3.5q16 -10 22.5 -26.5t13.5 -30.5q1 -8 -6 -9t-9 -6
q-8 -17 -15.5 -30t-28.5 -13q-31 0 -43.5 16.5t-16.5 33.5q-6 22 -26 22q-12 0 -21 -8t-14.5 -19t-8.5 -24.5t-3 -23.5q0 -9 4 -17t5 -16q0 -23 15 -41.5t35 -31.5t41.5 -20t35.5 -7q5 0 8.5 1t8.5 1t9.5 -1t9.5 -1q11 0 19.5 5.5t22.5 5.5h4q9 7 22 11t21 8
q28 10 49.5 19.5t40 21.5t36 27.5t37.5 37.5q12 13 29.5 22t25.5 24q4 5 8 7t8 7q7 9 12.5 21t15.5 20q30 9 51 35.5t31.5 62t11 76.5t-10.5 79q-6 20 -16.5 47.5t-18.5 49.5q-6 16 -13 30t-15 28q-6 12 -16 27t-23.5 27t-31 18.5t-37.5 2.5q-17 9 -27.5 14t-27.5 5
q-11 0 -25.5 -8.5t-27.5 -19.5t-23 -20.5t-11 -12.5q-2 -1 -5 -9t-5 -10q-10 -8 -20.5 -19.5t-10.5 -25.5q0 -8 2.5 -15t0.5 -15q0 3 -0.5 -4.5t-2 -18.5t-5 -20.5t-9.5 -9.5q-7 0 -12 10.5t-5 17.5q0 6 0.5 12.5t0.5 12.5q0 11 -4.5 19.5t-4.5 19.5q0 22 3 29t7.5 9t10 3.5
t9.5 12.5q18 18 33 34t30 28.5t31 20.5t36 11q5 -1 15 -1q20 0 39 4t40 4q8 0 15.5 -6t13.5 -8q10 0 19.5 -6t20 -15l21 -18t21.5 -15q5 -4 7.5 -10t6.5 -9q5 -5 8.5 -6.5t7.5 -6.5q6 -9 14.5 -25t16.5 -34.5t13.5 -37.5t5.5 -33v-20t2.5 -31t8.5 -28t18 -12t22.5 10.5
t19.5 25t15.5 29t11.5 23.5q-2 0 0.5 3t7 7t8.5 9t6 9q4 4 3.5 9.5t2.5 9.5q12 13 25.5 23t26.5 21q6 5 9 11t8 11q17 13 33 24.5t33 22.5q8 4 16 11t19 12q-4 0 6 5.5t25.5 12.5t34 13.5t31.5 9.5q13 2 23.5 2.5t23.5 5.5q33 0 54 -5t49 -19q5 -2 11 -4t11 -7l44 -45
q5 -5 9.5 -16.5t8 -26t5.5 -29t2 -25.5q0 -20 -11 -40.5t-27.5 -36.5t-35 -26t-34.5 -10q-8 0 -13 3t-12 5q-11 0 -24.5 4.5t-25 14t-19.5 24t-8 34.5q0 11 6 22.5t15 20.5t18.5 15t16.5 6q2 0 9 -2.5t14.5 -6.5t15 -9t10.5 -10q6 -6 9 -14t6 -15.5t7 -12.5t11 -5
q14 0 16 7.5t7 12.5q4 5 9 9t7 10q0 14 -2 25t-2 22q0 16 -9 34t-25 33.5t-37.5 25.5t-45.5 10q-7 0 -13.5 -1.5t-14.5 -1.5q-7 0 -14 1t-14 1q-15 0 -28.5 -8t-27.5 -13t-27.5 -8t-27.5 -9q-8 -4 -15 -10.5t-12 -9.5q-5 -4 -11 -6.5t-13.5 -7t-17 -13.5t-20.5 -25l-85 -85
q-5 -5 -7 -13.5t-7 -14.5q-12 -16 -28 -35.5t-30.5 -39t-24 -36t-8.5 -25.5l13 -49v-47q9 -24 13.5 -40t10.5 -33t17 -39t32 -57l32 -42q5 -5 9 -10t9 -10t15.5 -14t22 -18t21.5 -15.5t15 -6.5q3 0 11.5 0.5t17.5 1t17 1.5t12 2q30 14 51.5 23t36 22.5t21.5 35t7 60.5
q0 7 -1 13t-1 12t6 13t13 7q5 0 7.5 -6.5t4 -15t2 -17.5t0.5 -14q0 -6 -3 -17t-7.5 -23t-9.5 -24.5t-10 -21.5q-6 -6 -11.5 -21t-14.5 -23q-5 -3 -11 -3.5t-10 -4.5q-7 -8 -12.5 -11t-10.5 -5t-9.5 -4.5t-10.5 -8.5q-8 -8 -20.5 -10.5t-22.5 -2.5q-6 0 -11 1.5t-11 1.5
t-11.5 -2t-11.5 -2q-18 0 -40.5 -0.5t-39.5 7.5q-11 5 -19 11t-19 11q-5 2 -7.5 7t-7.5 9q-2 2 -5.5 2.5t-5.5 2.5q-25 15 -36 35t-19 46q-2 8 -8 13.5t-8 13.5q0 21 -7.5 37.5t-14.5 34.5q-6 15 -7 32t-2.5 31.5t-7 24.5t-20.5 10q-13 0 -21 -6.5t-13.5 -15.5t-10 -18
t-9.5 -14q-5 -6 -18 -16t-14 -16q0 -6 -3.5 -15.5t-12.5 -9.5q-4 -2 -5 -6t-3 -6q-8 -8 -13.5 -14.5t-12 -13l-15 -15t-23.5 -21.5q-5 0 -10 -4t-9.5 -9t-9.5 -10t-10 -7l-41 -41q-4 -4 -5 -8.5t-6 -7.5q-12 -8 -25 -7t-27 -5q-5 -2 -6.5 -6.5t-7.5 -6.5t-16 -2t-15 -4
q-4 -2 -6.5 -5.5t-6.5 -5.5q-15 -7 -28 -6.5t-30 -1.5q-14 -1 -28 -2.5t-28 -1.5q-1 0 -10 2t-17 2q-11 0 -18 1t-11.5 2.5t-8 4.5t-7.5 6q-24 15 -44 34.5t-41 45.5q-8 14 -15.5 31.5t-15.5 31.5z" />
    <glyph glyph-name="Y" unicode="Y" horiz-adv-x="914" 
d="M261 -128q-2 0 -4 -0.5t-4 -0.5h-10q1 0 -2.5 1t-6.5 2q-8 3 -11 3t-6.5 0.5t-8.5 1.5t-10.5 2t-4.5 1q-8 2 -22.5 9t-25.5 14v-1l-2 1q-5 4 -9 4.5t-7 0.5q-8 0 -14 3q-22 11 -41 29.5t-35 38.5q-2 6 -4 9.5t-4 6.5l-8 12t-4 10q-3 13 -6 25.5t-5 25.5v16q-1 -1 -3 8
t-4 14q0 5 0.5 7t2.5 6l1 2q0 1 1 2q4 36 16 68t36 62l1 2q0 1 1 1l7 5v-1q8 4 10 8l7 7v-1l9 11q16 14 38.5 16.5t41.5 2.5q7 0 18 -1t22 -4t19 -9.5t8 -17.5q0 -8 -3.5 -9t-8.5 -1q-4 0 -7.5 1.5t-5.5 3.5t-5 2q-4 0 -12 -2q-6 -2 -10 -2q-7 0 -15 2t-11 2h-3
q-23 -6 -44.5 -25t-35.5 -38q-3 -5 -7 -15.5t-8 -23t-6.5 -24t-2.5 -17.5q0 -15 3 -27q1 -6 2 -14t1 -14l3.5 -7t3.5 -5v1q7 -8 10 -15v1q13 -32 32 -54.5t43 -43.5h-1q1 -1 2 -1h3l14 -6q7 -3 13 -6t8 -3q5 -2 9 -2.5t9 -1.5l15 -3q3 -1 5.5 -3.5t5.5 -4.5q3 -3 11 -5
q5 0 12 -0.5t12 -0.5q7 -1 13.5 -1h13.5h8q6 1 14.5 1.5t17 1.5t14.5 1.5l6 0.5l5 3l20 16q2 1 5 1h6q8 0 16 -4q4 -3 10 -3q11 0 18 3t14 11l18 8h-1q15 7 28 14.5t25 19.5l2 1q1 1 1 2h27q3 3 4 3h-1q2 2 8 7.5t8 7.5q11 9 28 18l22 14q-2 0 -0.5 1.5l2.5 2.5q0 2 4 6v-1
l13 13l18 18v-1l20 30l3 3l4 5l8 6l-1 -1l5 4q6 4 9 11l5 7l7 6l6 4l12 13l6.5 6.5t6.5 7.5l2 7q1 2 2 5.5t3 6.5q3 5 10 9q4 2 7 5.5t3 7.5v83q0 8 0.5 15.5t0.5 15.5q0 32 -7 57l-5 61v1q-2 4 -2 9v3.5t1 4.5q0 2 0.5 2.5t0.5 2.5t-1.5 6.5t-3.5 7.5t-2.5 6t-1.5 5
q-1 3 -2 9.5t-1 7.5q-2 22 -6.5 40.5t-13.5 39.5q2 19 -7.5 33.5t-20.5 26.5l-12 19l-6 8l-6.5 6.5t-5.5 6.5q-7 7 -15 16t-6 7l2 -1q-10 8 -26.5 13t-28.5 5q-14 0 -29 -6.5t-29 -16.5t-26.5 -22t-21.5 -23v1q-7 -11 -11 -29t-4 -32v-17q2 -3 3 -7.5t3 -6.5q7 -14 7 -24v-9
q-2 -5 -4.5 -5.5t-4.5 -0.5q-9 0 -17 8t-13.5 19.5t-8.5 23t-3 19.5q0 14 2 26.5t4 24.5l2 4q1 2 2 3.5t2 3.5l6 12v-1q1 3 2.5 6t2.5 6q4 11 8.5 21t11.5 18q3 5 5.5 6.5t5.5 3.5l5 2l-3 -1q2 2 5 9q1 4 11 9q10 8 20 11.5t21 6.5l9 3q8 3 17 5.5t20 2.5q3 0 8.5 -1
t10.5 -3q2 -1 4 -1h4t4 -1h24q1 0 4.5 -1.5t6.5 -3.5q8 -4 9 -4q13 -5 26.5 -11t29.5 -17q0 -2 1 -3q0 -1 2 -5l3 -5q2 -2 4 -4.5t4 -4.5l5 -5v1l2 -2q1 -1 1 -2l2 -5q3 -9 7 -13q4 -6 7 -11t3 -6q0 -2 1 -3q0 -1 1 -2q2 -14 5.5 -25t8.5 -22l7 -17q2 -6 2.5 -13t1.5 -15
q2 -20 8 -33q1 -3 2 -11t2.5 -17t2.5 -17t1 -11v-18q0 -2 0.5 -5t0.5 -5v-4l4 -16q6 -22 10 -48t5 -49q2 -4 5 -8t7 -4q8 0 15 9.5t13 20.5q2 3 2.5 3.5t2.5 3.5l14 20l20 28h-1l24 37q13 18 30 53l7 14h-1l4 8q2 4 2 6q1 2 1.5 3.5t2.5 6.5l7 8q4 5 7 9.5t5 6.5q0 1 1 2
t2 3t2 3q18 16 33.5 34.5t29.5 38.5l-1 -1q1 3 1 5q0 5 -5.5 12t-10.5 12q-4 2 -10.5 5t-10.5 5q-15 7 -30.5 13.5t-29.5 11.5q-11 4 -22 4h-23h-11q-2 0 -10 -2.5t-17.5 -6t-18 -6.5t-10.5 -4q0 -1 -1 -2q-2 -2 -3 -2q-2 -2 -4.5 -4t-4.5 -4l-5 -5q-6 -5 -7.5 -5.5
t-3.5 -0.5q-10 0 -11.5 8.5t-1.5 16.5q0 9 4 12q2 3 6 7l7 7q10 10 14 16q2 1 5 3.5t5 4.5q13 9 25 9q8 0 13 2q7 2 17 8q8 5 17.5 8t23.5 3q32 0 59 -4t58 -19l22 -12q10 -6 20.5 -12t18.5 -6q11 0 23.5 8.5t23.5 18.5q5 4 8.5 8t13.5 9q17 11 44.5 19t47.5 9
q2 -1 13.5 -1.5t17.5 -1.5q5 -1 11 -1.5t11 -0.5h5.5t9.5 -1q2 0 2.5 -0.5t2.5 -0.5h3l11 -7q2 -2 4.5 -3.5t3.5 -1.5l13 -5q9 -5 15.5 -8.5t10.5 -9.5t6 -15.5t2 -25.5q0 -25 -15.5 -44.5t-30.5 -33.5l-7 -7l-15 -5q-27 -11 -57.5 -20t-63.5 -9q-6 0 -8.5 1t-5.5 3h1
q-2 0 -3.5 1t-2.5 1q-35 6 -67 22h1l-15 9q-7 4 -13.5 7.5t-14.5 3.5q-1 0 -4 -1t-5 -2l-29 -31q-4 -5 -7.5 -14t-7.5 -19l-6 -11q-4 -7 -7.5 -10.5t-8.5 -5.5q-4 -1 -9 -6v1q-2 -4 -3 -9q-1 -2 -2.5 -7t-1.5 -6q-5 -6 -7.5 -10t-4.5 -8q-4 -6 -7 -11.5t-7 -9.5
q-2 -3 -5 -6.5t-5 -6.5q-12 -17 -24 -33t-25 -29q-2 -2 -10 -25l-12 -26q-10 -10 -17.5 -21t-14.5 -21l-23 -34l-6 -5q-7 -6 -10.5 -15t-7.5 -18v1q-2 -4 -3.5 -8t-4.5 -9l1 1q-1 -4 -9 -8q-2 -1 -3 -1t-3 -5v1q-2 -2 -2 -7l-1 -1v-4t-1 -5q0 -2 -0.5 -2.5t-0.5 -2.5
q-1 -2 -1 -3q-2 -5 -5.5 -8.5l-6.5 -6.5q-4 -4 -8 -9t-7 -14q-8 -7 -15 -15l-14 -16l-21 -23l-16 -14q-3 -3 -7 -6.5t-6 -6.5l-7 -12q-4 -8 -8.5 -13.5t-13.5 -9.5q-12 -14 -25.5 -27t-30.5 -26q-3 -2 -5.5 -3.5t-4.5 -2.5h1l-8 -4l1 1l-19 -15l-17 -14h1q-4 -4 -10 -6
t-11 -4h1q-2 -1 -3.5 -1.5t0.5 1.5q-20 -12 -36 -20t-31 -14v1l-10 -6q-5 -4 -9.5 -6t-7.5 -4q-1 0 -3 -2q-1 -1 -2 -1t-5 -0.5t-7 -0.5h-6q1 0 -2.5 -1.5t-7.5 -3.5l-11 -4h2q-10 -5 -23 -6t-27 -2h-9t-9 -1l-6 -3v1q-3 -2 -6 -3t-9 -1h-4t-5 1h-3q-1 0 -2 1h-1
q-1 0 -1.5 -0.5t-1.5 -0.5t-1 -0.5t-1 -0.5h-1h-9q-8 0 -18 2q-5 1 -15 1zM1029 534q-1 -2 -1 -1zM1184 703q0 -3 4.5 -7t10.5 -8.5t12.5 -9t11.5 -6.5q1 0 3.5 -1.5t3.5 -2.5h-1q3 -2 8.5 -4.5t8.5 -2.5q2 0 5.5 -0.5t8.5 -1.5t8 -1h5h52q8 2 19 6.5t21 11.5t17 16.5
t7 20.5v5.5t-1 2.5q-1 0 -1 1l-1 2q-8 17 -21.5 30t-33.5 13h-4q-2 0 -8 -2q-2 -1 -5.5 -1h-4.5h-6h-14.5t-16.5 -2l-9 -3l-9 -3q-5 -2 -9 -3.5t-8 -3.5t-8 -3q-2 0 -7 -5q-2 -2 -6 -4q-2 -1 -3 -2l1 1q-6 -5 -8 -6l-4 -2q-8 -3 -13 -7.5t-5 -17.5z" />
    <glyph glyph-name="Z" unicode="Z" horiz-adv-x="742" 
d="M156 -320q4 21 5 39.5t9 38.5q19 47 57 80t76 56q7 14 19 16t20 8q22 14 41 28.5t43 25.5q11 5 32 8t41.5 7.5t36 14t15.5 27.5q0 22 -8 43t-20.5 39.5t-27 36t-27.5 34.5q-8 11 -16.5 24t-21.5 21q-1 1 -9 3.5t-8 3.5q-1 2 -9 8.5t-10 8.5q-26 20 -54.5 33t-60.5 13
q-14 0 -21 -5t-11 -13t-7 -19t-8 -23q-5 -11 -11 -18.5t-8 -19.5q0 -16 -6.5 -26.5t-15.5 -19t-19 -16.5t-18 -20q-9 -8 -22 -14.5t-27.5 -11t-28 -7.5t-22.5 -3q-23 0 -37 19t-14 43q0 28 5 47t17 33.5t32 27t50 29.5q8 5 18.5 8.5t18.5 11.5l5 3t12 6t12.5 5.5t7.5 2.5
q8 6 19.5 7t20.5 1q11 4 17 9.5t10 11.5t8 13t10 16q8 11 15.5 27.5t16.5 35.5t20.5 37t28.5 32q3 5 3.5 10.5t3.5 10.5q8 2 12.5 12.5t4.5 11.5q0 12 -7 20.5t-17.5 15t-23 10.5t-24.5 6q-13 0 -21.5 4t-15.5 9.5t-13 9.5t-14 4t-17.5 -3.5t-15.5 -8.5l-29 -29
q-8 -17 -19 -22.5t-31 -7.5q-7 0 -7 8q0 4 6.5 13t14.5 17.5t14.5 15t7.5 6.5q7 9 13.5 14.5t12.5 11t11 11t9 13.5q15 15 23.5 25t14 18.5t9 16.5t8.5 19q2 5 7 7.5t8 7.5q5 5 7.5 13t4.5 15.5t5.5 12.5t11.5 5q7 0 12 -5.5t5 -13.5q0 -9 -3.5 -17t-7.5 -15.5t-7.5 -15
t-3.5 -16.5v-13.5t2 -14.5q4 -11 18 -22.5t32 -22t37 -17t33 -6.5q3 0 12.5 9.5t20 22.5t19 24.5t8.5 16.5q6 6 9 11.5t8 13t16 19.5t34 31q6 4 17.5 8t24 7.5t25 5.5t20.5 2q10 0 22.5 -2.5t23.5 -9.5t18.5 -18.5t7.5 -30.5q0 -6 -4.5 -17.5t-6.5 -21.5q-5 -10 -14 -13.5
t-15 -10.5q-5 -5 -3 -10.5t-3 -10.5q-2 -3 -10 -13t-11 -10t-7 -4.5t-12.5 -11t-22 -14t-35.5 -14.5l-39 -13t-37 -7q-26 0 -37 1.5t-23 1.5q-13 0 -21 -7.5t-14 -18.5t-11.5 -24t-11.5 -23q-2 -4 -12.5 -26t-27.5 -54q-5 -7 -6.5 -16t-5.5 -17q-5 -9 -10.5 -16t-5.5 -18
q0 -9 5.5 -14.5t14 -8t18.5 -3.5t19 -2q10 -2 18.5 -6t16.5 -6q35 -14 59.5 -24t46.5 -29q5 -4 6.5 -8.5t6.5 -9.5q13 -9 25.5 -22.5t24.5 -26.5q10 -16 21.5 -39t18.5 -43q0 -18 3.5 -35.5t14.5 -31.5q4 -4 11 -11.5t13 -9.5q18 0 37.5 2t41.5 2q11 0 11 -11q0 -7 -14.5 -9
t-32.5 -3.5t-35 -4t-22 -10.5q-9 -14 -7.5 -26.5t-2.5 -27.5q-1 -2 -2.5 -9t-3.5 -15.5t-3.5 -16t-1.5 -9.5q-2 -8 -7 -21t-5 -15q0 -11 -3 -18t-6.5 -11.5t-6.5 -8.5t-3 -8q0 -13 -4 -21t-9.5 -14t-10.5 -11.5t-6 -13.5q-8 -18 -18.5 -31t-24.5 -27q-25 -18 -45 -39.5
t-42 -39.5q1 1 -8.5 -5.5t-24.5 -15t-32.5 -16t-31.5 -7.5q-6 0 -10.5 1.5t-9.5 1.5q-7 0 -11 -4t-12 -4q-6 0 -12.5 2.5t-12.5 4.5q-10 1 -16.5 3t-12.5 5t-12.5 7.5t-15.5 10.5q-4 4 -8.5 5.5t-7.5 6.5q-8 14 -16 38t-8 40zM225 -316q0 -38 16 -62t41 -24h60q3 0 12.5 4.5
t20 10t19 11t9.5 7.5q0 8 8 16l43 45q5 8 9.5 16.5t9.5 13.5q3 4 5.5 13.5t5.5 15.5q1 0 6.5 9.5t12 21.5t12 23.5t7.5 16.5q16 8 25 39.5t9 76.5q0 23 -9 28t-29 5q-30 0 -55 -16q-9 -4 -21.5 -9t-24.5 -10t-21.5 -9.5t-13.5 -8.5q-17 -10 -24 -17l-18 -18q-9 -9 -16 -14
t-13.5 -10.5t-13.5 -13.5t-15 -21q-3 -8 -9 -15.5t-13 -21.5q0 -3 -6 -7t-2 -6q-8 -14 -13 -23.5t-8 -19t-4.5 -20.5t-1.5 -27zM42 151q0 -18 10.5 -30.5t26.5 -12.5q1 0 8 4t16 9.5t17.5 11t12.5 8.5q10 8 18 20.5t22 32.5q12 17 21.5 31.5t9.5 37.5q0 3 -0.5 7.5t-4.5 6.5
q-8 -1 -18.5 0t-18.5 -3l-42 -21q-3 -3 -10.5 -9t-12.5 -6q-20 -14 -37.5 -36.5t-17.5 -50.5zM468 634q0 -11 12.5 -13t20.5 -2q16 0 31.5 3t32.5 3l35 17q7 10 17 19t19.5 18t16.5 18.5t7 20.5q0 8 -7 16t-16.5 14t-18.5 9.5t-12 3.5q-13 -1 -35 -6.5t-33 -16.5l-39 -40
q-6 -16 -16 -28t-15 -33v-3z" />
    <glyph glyph-name="bracketleft" unicode="[" horiz-adv-x="338" 
d="M261 609q-7 -38 -13 -42q-1 -1 -69 -7l-23 -105q-8 -45 -25 -144.5t-43 -254.5q-12 -80 -36 -183q6 -1 12 -1h11q17 0 34.5 3t18.5 3q4 0 4 -4q0 -1 -11 -34q-3 -6 -52 -7q-47 -2 -55 3q-2 2 -2 12q0 49 74 428q5 23 12 62t17 96q20 116 30 161q3 19 8 19q1 0 6.5 -4.5
t9.5 -4.5l48 4h44z" />
    <glyph glyph-name="bracketright" unicode="]" horiz-adv-x="357" 
d="M339 597q-8 -49 -30 -161q-11 -57 -17.5 -96.5t-10.5 -62.5q-16 -97 -27 -160.5t-16 -94.5q-33 -181 -45 -187q-8 -4 -57 -7q-49 -1 -49 5q-2 27 0 30q1 7 8 7q1 0 12.5 -1.5t22.5 -1.5q20 0 39 4q3 24 10.5 69.5t18.5 112.5q28 76 50 209l28 192l15 105h-57
q-14 2 -14 10q1 3 2 8t2 11t3 15l90 3q5 0 12 5t9 5t2 -6v-5t-1 -8z" />
    <glyph glyph-name="underscore" unicode="_" horiz-adv-x="1103" 
d="M946 113q-23 0 -43.5 -5t-46.5 -5q-11 0 -24 3t-24 3q-5 0 -8 -1l-9 -3h-50q-11 -3 -20 -3q-17 0 -32.5 1.5t-33.5 1.5q-11 0 -21 -1t-21 -1q-8 0 -13.5 1t-10.5 1t-9.5 -1t-8.5 -1q-7 0 -13 1t-13 1t-12.5 -1t-12.5 -1q-32 0 -69 4.5t-80 4.5q-10 0 -18.5 -1.5
t-23.5 -1.5q-38 0 -74.5 3.5t-78.5 3.5q-5 0 -19 1.5t-27 1.5q-6 1 -10 3t-10 2q-11 1 -29.5 1.5t-36 2.5t-30.5 7t-13 16q0 6 9 10t20.5 6t22 2.5t12.5 0.5q14 0 27 -2.5t28 -2.5q10 0 19 5.5t20 5.5t21.5 -5.5t21.5 -5.5q8 0 14.5 2.5t13.5 2.5q8 0 25.5 -2t35.5 -2
q12 0 25 3t25 3q7 0 12.5 -1t11.5 -1q8 0 14 1t13 1q8 0 16 -1t15 -1q8 0 15.5 1.5t15.5 0.5q11 -2 21 -3.5t24 -1.5q19 0 36 2t35 2q7 0 20 -0.5t26 -0.5q17 0 34.5 -4t36.5 -4q14 0 27 3t27 2q2 0 9 -1.5t9 -2.5h18q23 0 47 -1t47 -1q8 -2 15.5 -5t15.5 -3q7 0 13.5 1.5
t13.5 1.5q9 0 16 -3t16 -6q11 -4 21.5 -4.5t21.5 -0.5q8 0 15.5 2.5t15.5 2.5q5 0 15 -2.5t10 -9.5t-8 -11.5t-17 -7.5q-11 -4 -25 -5q-17 0 -33 1t-31 1z" />
    <glyph glyph-name="grave" unicode="`" horiz-adv-x="372" 
d="M329 541q-5 13 -16 28.5t-22.5 31.5t-20 32t-8.5 31q0 10 4.5 15t12.5 11q3 2 8 2q8 0 16.5 -8.5t12.5 -13.5q5 -5 6 -12.5t4 -13.5q4 -7 10 -20.5t8 -14.5q2 -2 6 -7t6 -6q10 -13 15.5 -28t13.5 -29q1 -1 4 -5.5t7 -10t7 -10.5t4 -6q11 -17 19.5 -34t22.5 -34
q1 -2 1 -6.5v-6.5v-8q-1 -7 -8 -7q-8 0 -13 7q-4 4 -11.5 11t-8.5 9l-80 103v0z" />
    <glyph glyph-name="a" unicode="a" horiz-adv-x="356" 
d="M117 19q-9 0 -14.5 -3t-11.5 -6q-12 -10 -22 -10q-15 0 -32 8t-22 27l-4 15q-4 10 -7 20t-3 22q0 10 2 18t5 17v-1l3 8v3q0 2 0.5 3t0.5 2q9 32 24.5 62.5t38.5 53.5h-1q5 3 8.5 8t7.5 8q4 5 7.5 9.5t7.5 7.5l10 7l-1 -1h1l25 20q8 6 19.5 14t22.5 13h7.5t10.5 1t11 1.5
t8 0.5q7 0 12.5 -1t12.5 -3q15 -5 28 -5q6 0 10.5 3.5t8.5 5.5q6 6 12 6q8 0 14 -10t6 -19q0 -3 -0.5 -6.5t-2.5 -8.5q-2 -4 -4.5 -10.5l-5 -13t-4.5 -12t-3 -7.5l-24 -55l-27 -65q-1 -5 -3.5 -9t-4.5 -9q-1 -2 -1 -1t0 -1q-3 -7 -6.5 -13.5t-3.5 -15.5q0 -17 9.5 -30.5
t22.5 -13.5t25 8t23 19q6 6 14 11q2 2 5.5 3.5t6.5 1.5q5 0 7.5 -6.5t2.5 -11.5q0 -6 -3.5 -13.5t-8 -14.5t-10 -12.5t-8.5 -7.5h1l-40 -22q-8 0 -19 -2.5t-17 -5.5l-11 -8q-18 -4 -24.5 -3.5t-9.5 3.5t-7.5 9t-18.5 13l-37 5h-19zM60 89q2 -3 9.5 -13.5t10.5 -12.5h-1l2 -2
q2 -2 4 -2q0 -1 2.5 -3t3.5 -2v1q7 -5 15.5 -10t16.5 -5t17 6.5t15 13.5q1 1 4 4.5t6.5 7.5t6.5 7.5t4 5.5q2 4 2.5 9.5t1.5 10.5q1 7 1.5 13.5t1.5 10.5v-1q2 2 7 12t10 21l11 23q2 4 3 9t4 9q5 11 9.5 22t4.5 22q0 23 -16 38t-33 15q-11 0 -19.5 -2.5t-19.5 -8.5l-8 -5
l-42 -55l-5 -8l-4 -9l-5 -8l-13 -19h1q-3 -5 -6 -14.5t-5 -20t-3.5 -20t-1.5 -14.5q0 -13 8 -26z" />
    <glyph glyph-name="b" unicode="b" horiz-adv-x="349" 
d="M7 96v16.5t2 19.5q5 25 13 47.5t19 44.5v34q1 5 3 9q4 10 6 13q5 12 8.5 22t8.5 21q3 11 7 18t4 17q0 7 -4.5 12t-12.5 5q-5 0 -8.5 -4.5t-8.5 -6.5q-3 -1 -10 -4.5t-10 -5.5h-2q-6 0 -7.5 2t-1.5 7q0 6 4 9.5t10 6t12 4t11 3.5l9 9t9 8q8 5 16.5 9t13.5 12q5 7 6.5 13
t4.5 13q4 9 8 16.5t7 15.5q9 23 17.5 45t22.5 42l8 33q0 2 2 4l4 4q6 11 13.5 20.5t14.5 19.5q2 3 2 7.5t2 7.5q0 4 1 5q0 1 1 2q0 1 4 5t4 6q13 19 26.5 37.5t29.5 34.5q2 2 8.5 6t9.5 5q8 6 17 13t19 14t21 11.5t22 4.5q10 0 21 -8t21 -19.5t16.5 -24t6.5 -22.5
q0 -14 -4 -30.5t-6 -28.5q-5 -21 -16.5 -31.5t-25.5 -27.5q-12 -17 -24.5 -33.5t-27.5 -32.5q-8 -10 -18 -17.5t-18 -17.5q-2 -1 -5.5 -5t-7.5 -9l-8 -10t-5 -6q-4 -3 -6.5 -5t-5.5 -5q-7 -4 -14 -6t-14 -6q-12 -4 -24 -13t-24 -11l-30 -29l-2 -2q-1 -1 -1 -2v-1
q-1 -2 -4 -12.5t-5 -12.5q0 -1 -4.5 -7.5t-4.5 -7.5t-1.5 -6.5t-3.5 -12.5t-3.5 -12.5t-1.5 -6.5q-1 -3 -6 -12t-7 -11q-2 -6 -2.5 -14.5t-2.5 -14.5q-3 -10 -7 -18t-6 -18q-1 -3 -3 -12t-4 -18.5t-4 -18.5t-2 -12q-7 -17 -8 -34t-1 -35v-14q4 -13 13 -27t23 -14q11 0 23 6
t22.5 14.5t20 18l16.5 16.5q5 6 7.5 12.5t6.5 12.5q12 14 27 26.5t15 33.5q0 11 -7 21.5t-14 20.5q-1 2 -2.5 4.5t-2.5 4.5q-2 5 -2.5 9t-3.5 8q-5 9 -14.5 14.5t-9.5 16.5q0 12 12 21.5t28 16t32 10t25 3.5q20 0 32 -17.5t12 -36.5v-15q0 -3 -1.5 -10.5t-3 -16t-3 -16
t-1.5 -10.5q-7 -27 -26 -49t-34 -42q-14 -17 -25.5 -33.5t-27.5 -31.5q-8 -8 -17 -11.5t-18 -8.5q-13 -7 -24.5 -17.5t-25.5 -15.5q-12 -4 -24 -9t-25 -5q-8 0 -13.5 3t-11.5 8q-14 11 -22 19t-12.5 17t-5.5 20.5t-1 28.5zM185 485q0 -1 3 -3t5 -2h9q12 0 17 2t8 6t6 9
t11 11q11 10 22 18t20 20q7 7 10.5 17t9.5 18q9 13 19 24t18 25q8 15 19.5 35.5t11.5 36.5q0 17 -10 31t-27 14q-14 0 -24 -7.5t-18 -18.5t-14.5 -23.5t-12.5 -22.5q-4 -8 -9 -14.5t-10 -13.5q-14 -23 -27 -48t-22 -51q-4 -9 -8 -15t-6 -17q0 -1 -0.5 -8.5t-0.5 -13.5v-6v-3
z" />
    <glyph glyph-name="c" unicode="c" horiz-adv-x="283" 
d="M4 111q0 23 6.5 42.5t13.5 41.5q1 1 2 6t2.5 10.5t3 10t2.5 6.5q5 13 14 21t19 16q7 8 14 17t14 15q14 11 26.5 16t29.5 12q18 7 32.5 9t33.5 2h20t20 -3q11 -6 18 -20t7 -26q0 -13 -11 -22t-22 -9q-12 0 -21 5.5t-17 12.5t-16 12.5t-18 5.5q-12 0 -23.5 -6t-21 -15
t-17 -20t-11.5 -20q-3 -8 -4 -16t-5 -16q-2 -7 -7.5 -16t-5.5 -17v-36q0 -1 -3 -10.5t-3 -11.5v-8q0 -11 4 -18t12 -14q17 1 33 -1.5t33 -2.5h15q14 8 33.5 15t36.5 7q5 0 11 -1.5t6 -7.5q0 -15 -16 -24t-28 -14q-2 0 -9.5 -2.5t-15.5 -5.5t-16 -6.5t-11 -4.5q-10 -3 -19 -2
t-19 -2q-8 -3 -14.5 -8t-13.5 -10t-14 -8.5t-14 -3.5q-12 0 -24 15.5t-21 36.5t-15 41.5t-6 31.5z" />
    <glyph glyph-name="d" unicode="d" horiz-adv-x="343" 
d="M19 55q0 3 -1 9t-2 13t-1.5 13t-0.5 9v18q0 9 0.5 17.5t3.5 17.5q1 2 6 10t7 11q1 1 5 5.5t9 9.5t9 10t5 6q6 7 15 19t14 20q10 18 19.5 21.5t25.5 12.5q1 1 7 4.5t13 7.5t13 7.5t8 4.5q9 5 19.5 8.5t21.5 3.5h8q7 -1 7 -9q0 -10 -6 -16.5t-14 -10t-17.5 -6t-15.5 -4.5
q-9 -3 -17.5 -11.5t-15.5 -13.5q-5 -4 -13 -13.5t-16 -20.5t-15 -21.5t-9 -16.5q-2 -5 -3.5 -14t-3.5 -19t-3 -19t-1 -15q0 -24 17.5 -36t38.5 -12h9l5 1q8 7 15 13l12 10t10 9q10 9 18.5 22t15 27t11.5 28.5t10 25.5q3 8 8 15.5t8 15.5q10 24 13 44.5t6 46.5v4
q0 11 -3 21.5t-3 22.5q0 21 10 40t10 40q0 24 -6.5 46.5t-13.5 45.5q-6 16 -11.5 32t-10.5 33q-2 5 -6.5 11.5t-7.5 9.5q-1 1 -2.5 3.5t-1.5 4.5q-1 1 -4.5 8.5t-4.5 9.5q-5 6 -11 11.5t-12 10.5q-16 12 -34.5 29t-40.5 22q-3 0 -7 1t-9 2t-11 3h-67q-8 0 -24.5 -4
t-33.5 -10t-32 -13.5t-19 -14.5q-9 -16 -19 -36t-10 -39q0 -8 1.5 -12.5t6.5 -12.5q11 -21 22 -36.5t34 -24.5l12 -4t13 -2q11 0 18 4t12 9t10.5 9t13.5 4q11 0 11 -12q0 -9 -6.5 -16t-15.5 -13t-18.5 -10.5t-15.5 -7.5q-10 -6 -19.5 -12t-22.5 -6q-9 0 -18 3.5t-18 6.5
q-32 14 -45 47t-13 67v16q0 1 3 15t5 22q5 20 17 32.5t24 27.5q7 8 11 14t12 12q23 18 51.5 29.5t57.5 11.5h10h7.5t12.5 -0.5t12.5 -0.5h7.5h32q9 0 18.5 -6t17.5 -10q12 -5 25.5 -9t27.5 -8q12 -5 23 -16t22 -20q7 -5 15.5 -5t13.5 -8q6 -8 10.5 -19t8.5 -18
q5 -13 13.5 -23t13.5 -22q0 -2 1.5 -7.5t1.5 -7.5q6 -18 17.5 -32t11.5 -31q0 -8 -2.5 -14.5t-2.5 -13.5q0 -13 3 -25.5t3 -25.5v-15q0 -2 -3 -13.5t-3 -13.5v-33q0 -10 -5.5 -19t-6.5 -18v-13q-2 -26 -7.5 -52t-17.5 -50q-2 -2 -4.5 -6.5t-5.5 -10.5t-6 -11.5t-4 -7.5
q-9 -16 -16 -32t-16 -33q-9 -9 -19 -20t-20 -23t-20 -23t-20 -19q-2 -2 -9.5 -5.5t-10.5 -5.5q-1 -1 -8.5 -3.5t-10.5 -4.5q-12 -4 -25 -10t-26 -6q-12 0 -23.5 5t-22 13.5t-18.5 18.5t-12 20z" />
    <glyph glyph-name="e" unicode="e" horiz-adv-x="277" 
d="M184 366q10 0 18 -2t19 -5q2 0 5 -1t5 -1q11 -2 19 -4.5t13 -7t7.5 -13t2.5 -23.5q0 -13 -5 -23t-12 -20l-7 -9q-5 -8 -10.5 -13.5t-16.5 -10.5q-1 -2 -3.5 -3t-3.5 -1q-2 0 -8 -2t-7 -2l-16 -8q-5 -2 -9.5 -4t-5.5 -2q-6 -2 -11.5 -2.5t-10.5 -0.5q-11 0 -16 -1
q-2 -1 -5 -2q-5 -2 -7 -4h1q-18 -11 -35.5 -24t-17.5 -36q0 -20 8 -38.5t22 -30.5q2 -1 9.5 -4t16.5 -6t16 -5.5t9 -2.5q8 0 13.5 2.5t10.5 4.5h-1l7 3.5t6 1.5l6 2l19 5q4 1 7.5 2t2.5 1l9 4q10 5 17 5q8 0 13 -4.5t5 -12.5t-8 -11h1l-19 -10q-11 -6 -22 -12.5t-21 -9.5h1
q1 0 -3.5 -1t-8.5 -2l-10 -2q-5 -2 -15 -7l-16 -8l1 1q-13 -5 -32.5 -5.5t-33.5 -0.5h-14q-5 0 -15 11.5t-20 26.5t-17.5 30.5t-7.5 23.5v76q0 19 8 34t19 31l15 21l4 8q2 3 3 6t-3 -1l13 19q0 1 4 5l3 3q12 13 24.5 26t26.5 23t29.5 16.5t34.5 6.5zM101 232q2 -8 9.5 -12
t14.5 -4h6q10 16 27 25v-1l8 3h-1q5 2 8.5 4t8.5 8l6 10q5 8 9.5 16.5t4.5 19.5q0 9 -5 15t-16 6q-14 0 -28 -7t-25.5 -18.5t-19 -25.5t-7.5 -27v-12z" />
    <glyph glyph-name="f" unicode="f" horiz-adv-x="206" 
d="M-64 -401v9t1 9q2 40 3 80t3 81q0 11 6 20.5t6 19.5v61q1 6 3 12q2 5 2.5 10t2.5 9q5 17 6.5 31t3.5 33q2 16 7 32t5 34q14 35 21.5 63.5t17.5 64.5q1 2 4 14.5t5 14.5q5 11 4.5 23t1.5 21q1 8 4.5 14.5t7.5 14.5q5 10 7 27t2 31q0 6 -3 10t-7 8t-7 9t-3 12q0 9 6.5 12.5
t15.5 6t17.5 5.5t13.5 12q8 11 14 22t9 23q2 10 3 18.5t3 16.5q5 17 15.5 29t17.5 26q11 29 20 56t26 53q13 20 28 37t28 34q2 2 3 8t3 8q2 8 10.5 16.5l14.5 14.5q1 1 8 5.5t8 5.5q16 12 32 23.5t35 20.5q2 0 3 1l2 2h31q1 -2 3 -3t3 -2t3 -1l21 -10.5t15 -10t9.5 -13.5
t3.5 -21q0 -17 0.5 -34.5t-4.5 -31.5q-6 -15 -13.5 -31.5t-17.5 -31.5q-7 -9 -16 -18t-16 -19q-14 -15 -25 -32t-28 -30l-5 -3q-1 -1 -5 -3.5t-9 -5.5t-9 -5t-5 -3q-13 -8 -26.5 -19.5t-30.5 -11.5h-33l-3 -1q-10 -7 -21 -15t-20 -17.5t-15 -21t-6 -25.5q0 -23 15 -27.5
t32 -4.5q6 0 19 1t26.5 2t26 2t18.5 1t15 -1t17 -3.5t13.5 -8t5.5 -14.5q0 -12 -9 -15.5t-18 -3.5q-14 0 -26 3.5t-26 4.5q-1 0 -12.5 0.5t-26 0.5t-28 0.5t-17.5 0.5h-10q-8 0 -15.5 -2t-13.5 -10q-1 -5 -5.5 -15t-6.5 -14q-5 -10 -9.5 -16t-8.5 -17q-3 -12 -2.5 -21.5
t-1.5 -20.5q0 -1 -1.5 -5.5l-3 -9l-3 -9t-1.5 -5.5q-2 -9 -3 -18t-6 -17l-1 -4q-8 -14 -13.5 -25t-7.5 -26q1 -26 -1.5 -53.5t-10.5 -51.5q-7 -20 -15.5 -34.5t-8.5 -37.5q0 -9 0.5 -17.5t0.5 -19.5v-7q0 -1 -2 -10t-2 -10q-4 -22 -4.5 -45t1.5 -45q-2 -5 -4 -17t-4 -15
q0 -2 -0.5 -5.5t-0.5 -4.5v-105q0 -10 -7 -19.5t-17.5 -16.5t-21.5 -11.5t-20 -4.5q-8 0 -12 7.5t-4 15.5zM203 525q0 -8 6.5 -17.5t15.5 -9.5q13 0 23 8t21 16q8 5 16 6.5t13 8.5q9 10 18.5 19.5t20.5 19.5q4 2 6.5 3.5t4.5 5.5q8 10 12 18t11 18q2 1 5.5 5t3.5 5
q7 14 10 28.5t8 26.5q1 1 1 2.5t1 3.5q0 2 1 4v41q0 12 -14 22.5t-23 10.5q-15 0 -25 -10l-51 -55q-2 -3 -4 -7q-2 -3 -4 -5.5t-3 -3.5q-8 -10 -17 -20.5t-14 -21.5q0 -1 -2 -6.5t-4 -11.5t-3.5 -11.5t-2.5 -6.5q0 -1 -2.5 -6l-5 -10t-4.5 -10t-3 -6q-3 -11 -9.5 -27
t-6.5 -27z" />
    <glyph glyph-name="g" unicode="g" horiz-adv-x="345" 
d="M-173 -418q0 3 1.5 9t3 13t3 13t1.5 8q1 1 4 6.5t6 12t6 12t3 6.5q0 2 2 5.5t2 5.5q4 9 12.5 15.5t14.5 11.5q11 8 19.5 20t12.5 25l43 43q6 4 14.5 11.5t17.5 15.5t17.5 14t14.5 6q3 0 6 -3t3 -7q0 -2 -1.5 -3t-3.5 -3t-12.5 -9t-11.5 -9q-4 -2 -11.5 -9.5l-10.5 -10.5
l-3 -2q-7 -6 -12 -12q-5 -5 -9.5 -10.5t-7.5 -9.5q-5 -5 -12 -11.5t-9 -12.5q0 -2 -2 -10t-2 -9q0 -2 -2 -6t-2 -6q-14 -25 -26 -49.5t-12 -53.5v-15q4 -14 17.5 -19t24.5 -5q31 0 49 16t35 38q1 2 5 7.5t6 7.5l24.5 31.5t19.5 34.5q4 9 5 17t5 17q2 7 7 12t7 11l3.5 7
l5.5 11t6 11.5t4 7.5q3 8 3.5 12t0.5 10q0 14 -10.5 24.5t-26.5 10.5q-5 0 -10 -3t-11 -3q-2 0 -5 3t-3 6q0 2 5 7q6 3 16 5.5t20.5 5t20 5t13.5 5.5q9 7 19.5 24.5t19 37.5t14.5 40t6 32q0 8 -2.5 17.5t-13.5 9.5t-20 -5t-18 -7q-3 0 -8.5 -2t-7.5 -2q-1 0 -6.5 -0.5
t-11.5 -1t-11 -1t-6 -0.5q-2 0 -8 -1.5t-8 -1.5h-6q-10 0 -18.5 6t-15 14.5t-10 18.5t-3.5 19v12q0 2 2 11.5t2 11.5v7.5t0.5 14t0.5 14v8.5q2 14 7 26t11 26q2 8 5 17q4 8 9 15.5t10 15.5q7 11 9 16.5t10 16.5q1 2 3 4t3 3.5t3 2.5l7 5q1 1 7.5 7t7.5 8q9 7 19 9.5t19 8.5
q2 2 12.5 8.5t11.5 7.5q16 9 40.5 9.5t41.5 0.5q11 0 25.5 -4t27 -11.5t21 -17.5t8.5 -22q0 -10 -5.5 -18.5t-7.5 -16.5q-1 -10 -1.5 -17t-4.5 -16q-7 -14 -12.5 -27.5t-6.5 -28.5l-19 -50q-3 -26 -7 -45.5t-12 -42.5q-1 -2 -2 -3t-1 -2t-1 -1q-9 -16 -13 -25.5t-4 -27.5
v-16q2 -11 7 -14.5t10 -4.5t9 -2t4 -6q0 -8 -3.5 -12t-7.5 -8q-2 0 -6.5 -3.5t-9.5 -7.5l-10 -8t-6 -5l-4.5 -4.5t-7 -8t-7.5 -8t-5 -4.5q-8 -14 -11 -30.5t-9 -30.5q-1 0 -3.5 -4t-4.5 -8.5t-4.5 -9t-3.5 -7.5q-2 -1 -7.5 -10.5t-6.5 -11.5q-10 -17 -16 -33.5t-17 -33.5
q-2 -2 -8 -10t-12.5 -18t-12.5 -18t-7 -10q-15 -23 -33.5 -45.5t-40 -40t-47 -28.5t-54.5 -11q-36 0 -53 21t-17 56v3zM62 121q0 -23 14.5 -42.5t40.5 -19.5h9q1 0 15 2.5t21 3.5q18 5 31.5 17t24.5 26l5 7.5t3 8.5q0 14 1 30.5t7 30.5q1 6 6 15.5t5 16.5v46q0 5 -2.5 13
t-4.5 13q-3 11 -8 20t-20 9q-8 0 -15.5 -3t-13.5 -5q-52 -26 -79.5 -74.5t-39.5 -101.5v-13z" />
    <glyph glyph-name="h" unicode="h" horiz-adv-x="404" 
d="M-52 -46q0 11 5 23q2 4 5.5 11.5t7 15.5t6.5 14l4 8q0 1 3.5 4.5t3.5 5.5q2 3 7 14t7 13q0 2 3 9t6 15t6 15t4 9q0 2 1.5 5.5t2.5 5.5q8 11 11.5 23.5t8.5 24.5q4 8 8 15.5t5 17.5q0 1 0.5 6t1.5 10.5t2 10.5t2 7q0 1 2.5 5.5t5 10t5 10t2.5 5.5t3 10t5 14q0 1 1.5 8.5
t1.5 8.5q0 2 2.5 6t2.5 6q7 18 9 37t7 37q1 6 3 10t6 9q1 2 4.5 12t5.5 14q6 17 15.5 31.5t20.5 28.5q4 5 4.5 11t2.5 11q4 9 10.5 17t10.5 16q0 2 2.5 8t2.5 10q0 1 2 7t2 7q2 8 5.5 8.5t5.5 5.5q0 2 3.5 7.5t3.5 7.5q2 1 5.5 5.5t5.5 5.5l4 9l1 3q2 5 9 13.5t9 13.5
q4 21 17.5 36t26.5 30q3 2 12 11t13 12l8 8q20 18 38 34.5t45 16.5q17 0 30 -8t22 -20t13.5 -26.5t4.5 -28.5q0 -20 -4 -33t-13 -28q-3 -4 0.5 -1.5t1.5 -2.5q-5 -5 -9.5 -10.5t-9.5 -12.5q-8 -14 -12 -24.5t-15 -24.5q-9 -11 -19 -20.5t-17 -22.5q-3 -2 -8.5 -7.5l-12 -12
l-12 -12t-7.5 -8.5q-11 -12 -19.5 -21t-17 -16.5t-18 -15t-21.5 -16.5q-5 -2 -9.5 -4t-9.5 -2q-6 0 -7 4v6q0 7 3 11.5t7 7.5t9 5t10 6l4.5 4.5t3.5 4.5l5 5t8 8.5t7.5 8.5t4.5 5q4 5 8.5 7.5t6.5 5.5q2 2 5.5 11t5.5 11t7 9t7 9q1 2 7.5 8.5t8.5 7.5q1 1 4.5 6t7.5 11.5
t7.5 12.5t5.5 9q2 5 7.5 14.5t7.5 11.5q0 2 1.5 8t1.5 8q3 10 4 15t2 9t1 9.5v16.5q0 18 -9.5 30t-20.5 12q-18 0 -32 -12t-25 -28.5t-22 -33.5t-23 -28q-2 -5 -8 -16t-8 -16q-3 -8 -4 -17t-6 -19t-12 -18.5t-12 -18.5q-2 -12 -2.5 -26t-4.5 -26q-6 -16 -11.5 -25
t-9.5 -17.5t-6.5 -18.5t-1.5 -28q-6 -14 -18 -26q-11 -22 -19 -41.5t-18 -39.5q-5 -12 -11 -24t-6 -26v-9q5 -5 9 -6.5t11 -1.5q8 0 20.5 10t26 23t25.5 25.5t19 16.5q13 8 23.5 11.5l25.5 8.5q10 4 18 7t19 3q7 0 18 -1.5t21 -5t17 -10.5t7 -19q0 -6 -1.5 -16.5t-3.5 -22
t-4 -21.5t-4 -15q-1 -2 -9.5 -14.5t-19 -27.5t-19 -28t-8.5 -14q-2 -2 -4.5 -10.5t-2.5 -9.5v-20q-1 -6 -3 -8.5t-3.5 -4t-3 -4.5t-1.5 -10l-13 -34q0 -8 9 -11.5t14 -3.5q14 0 23.5 6t22.5 14q5 3 10.5 4.5t9.5 4.5q7 5 12.5 9t13.5 4q7 0 13 -2.5t6 -10.5q0 -5 -4 -10
t-8 -7q-35 -25 -64.5 -39.5t-71.5 -21.5h-8q-19 0 -33.5 8t-14.5 30q0 13 6 22.5t11 23.5q2 7 2.5 9.5t0.5 5t0.5 5.5t2.5 10q2 5 4.5 10.5t4.5 9.5q2 6 3.5 16t6.5 17q3 5 6.5 8.5t6.5 8.5q3 6 10 18.5t13.5 27t12 27t5.5 18.5q0 17 -5.5 23t-22.5 13h-1q-8 0 -20 -1
t-19 -6q-1 0 -4 -4.5t-4 -4.5q-3 -2 -13 -10.5t-21.5 -18t-21 -18t-12.5 -11.5q-2 -1 -10 -9l-9 -9t-5 -4.5t-8.5 -7.5t-8.5 -8l-5 -5q-1 0 -3 -2q-1 -1 -2 -1q0 -1 -3.5 -7t-3.5 -7q-8 -13 -18 -27.5t-16 -27.5q-5 -10 -7.5 -19.5t-4.5 -19.5q-3 -8 -8 -18t-8 -15
q-4 -10 -5 -18.5t-3 -17.5q-5 -11 -10.5 -19t-12.5 -17q-2 -5 -10 -16.5t-10 -16.5q-8 -9 -19 -9q-15 0 -19 13.5t-4 27.5z" />
    <glyph glyph-name="i" unicode="i" horiz-adv-x="222" 
d="M11 40q0 20 6.5 38.5t15.5 36.5q5 11 8.5 15t7.5 15q0 2 2.5 8.5t2.5 8.5q5 12 10.5 21.5t10.5 18.5t8.5 19t3.5 24v12q-1 4 -5 6t-8 2q-7 0 -12 -3t-10 -7t-11 -7t-13 -3q-6 0 -11.5 4.5t-5.5 10.5q0 18 17 27q2 0 7 2.5t10.5 5t10.5 5l7 3.5q10 6 18.5 13.5t18.5 12.5
q14 8 31 15t34 7q26 0 26 -25q0 -15 -10 -27.5t-15 -26.5t-11.5 -25.5t-11.5 -25.5q-2 -6 -4 -15.5t-6 -15.5q0 -2 -2.5 -6t-5 -9t-4.5 -9.5t-3 -5.5q0 -2 -1.5 -7.5t-1.5 -7.5q-5 -17 -12.5 -33.5t-7.5 -33.5q0 -11 3 -20.5t16 -9.5q12 0 21.5 7t18.5 15t18.5 15t21.5 7
q13 0 13 -14q0 -7 -3 -11.5t-6 -8.5q-3 -2 -7.5 -5.5t-9 -7.5t-8 -7l-3.5 -3q-8 -6 -23.5 -15t-33 -17t-34.5 -13.5t-28 -5.5h-10q-15 11 -22.5 24t-7.5 32zM228 566q0 6 0.5 12t5.5 11q9 10 20 20.5t25 10.5q23 0 42 -16.5t19 -39.5q0 -21 -15 -36t-35 -15h-9
q-2 0 -13.5 3.5t-16.5 4.5q-13 4 -18 19t-5 26z" />
    <glyph glyph-name="j" unicode="j" horiz-adv-x="210" 
d="M-333 -447q0 33 11.5 60t27.5 56q5 8 8 15.5t7 14.5q7 10 15.5 19t15.5 20q4 5 5 9.5t4 9.5q22 24 42.5 46.5t46.5 42.5q11 9 23 13.5t23 11.5l6 3q2 4 8 7.5t7 4.5q3 3 10.5 9.5t15.5 14t15 14t9 9.5q12 8 23 15t20 19q5 7 7.5 12t3.5 9.5l2 9t4 11.5q5 15 12 27t12 26
q1 8 1 17.5t2 16.5q0 2 1.5 8.5t1.5 8.5q0 1 3.5 9.5t3.5 9.5q0 2 1 7t2 10.5t2 10t1 5.5q2 9 6 16.5t8 15.5q3 9 6 24t3 25q0 11 -13 14.5t-22 3.5q-10 0 -18 -4t-14.5 -9.5t-13.5 -9.5t-15 -4t-13 5.5t-5 11.5q0 14 14 19t25 6q6 7 12 10t12 4.5t12.5 3t12.5 6.5
q12 9 22.5 18.5t21.5 17.5t23.5 13t28.5 5q11 0 19 -9t8 -19q0 -7 -2 -11.5t-5 -9.5q-2 -6 -4 -13l-4 -14q-5 -7 -9.5 -14t-6.5 -16q-5 -13 -5.5 -25t-3.5 -26q-1 -1 -2.5 -6t-3.5 -10l-4 -10t-2 -6q-1 -1 -2 -6.5t-2 -11.5t-1.5 -12t-0.5 -7l-3 -5q-7 -17 -15 -37.5
t-8 -40.5q0 -12 6.5 -16t14.5 -6.5t14.5 -5t6.5 -11.5q0 -8 -8.5 -15t-19.5 -13.5t-22 -12.5t-16 -13q-11 -14 -17.5 -34.5t-13.5 -37.5q-17 -37 -35.5 -72.5t-36.5 -72.5l-3 -5q-1 -3 -4 -9t-6.5 -12.5t-7 -12.5t-5.5 -8q-2 -3 -7 -9.5t-11.5 -14t-12 -14.5t-6.5 -10
q-8 -9 -13.5 -20t-12.5 -20q-8 -11 -17 -18.5t-17 -16.5l-6 -9q-6 -7 -16.5 -17.5l-12.5 -12.5q-2 -1 -10.5 -7t-11.5 -8q-2 0 -10.5 -5.5t-13.5 -7.5q-4 -4 -10 -6.5t-11 -2.5h-35q-16 0 -31.5 13t-20.5 29v19zM-264 -402q0 -8 2 -17.5t6 -17.5t11 -13.5t17 -5.5q11 0 18 8
t16 16q2 2 7.5 5t7.5 4q2 4 10 11.5t10 9.5l54 69q8 20 17.5 38.5t19.5 38.5q4 7 6.5 15t7.5 16q5 9 12 15t13 12t10.5 13.5t4.5 18.5q0 7 -0.5 15t-2.5 15t-7 11.5t-14 4.5q-11 0 -19 -5.5t-17 -12.5q-1 -1 -8.5 -5t-9.5 -5q-3 -4 -14.5 -14.5t-15.5 -14.5
q-8 -10 -13.5 -19t-13.5 -20q-9 -10 -21 -19t-21 -20l-3.5 -4.5t-7.5 -10.5l-8 -12l-6 -9q-6 -8 -9 -17t-6 -17q-8 -16 -20.5 -36.5t-12.5 -40.5zM211 618q0 17 15 31.5t35 14.5q23 0 34.5 -16t11.5 -39v-9t-1 -11q-7 -9 -20 -15t-24 -6q-18 0 -34.5 16t-16.5 34z" />
    <glyph glyph-name="k" unicode="k" horiz-adv-x="386" 
d="M237 31q-8 5 -17.5 14.5t-12.5 20.5l-15 80q-5 24 -18 43t-29 36q-4 0 -5.5 -2.5t-3.5 -4.5q-6 -14 -14 -30.5t-9 -31.5l-30 -64q-1 -1 -1 -2t-1 -3t-1 -3q0 -3 -1 -13.5t-1 -13.5q-1 -9 -7.5 -25t-16.5 -31t-20.5 -26.5t-19.5 -11.5q-11 0 -20.5 7t-9.5 18v5q3 7 8 20
t10.5 26.5t10 26.5t6.5 21q2 7 4 18t4 17l32 63q8 17 7.5 36.5t4.5 36.5q3 8 8 16t9 16q1 4 4 13.5t6 21t6 21t4 13.5q0 1 1.5 9.5t1.5 10.5q1 8 9 31.5t17 50.5l17 51t10 32q6 1 8 10q2 2 2 10t2 12q0 2 3 6.5t3 6.5q0 3 0.5 6t2 8t5 13t8.5 21l9 20l2 8l1 3l27 43l18 14
q14 20 36 40q7 5 15.5 9t17.5 9q14 8 30 19.5t33 11.5h39q9 0 18 -5.5t18 -7.5q11 -3 18.5 -4t13.5 -3.5t11.5 -7.5t12.5 -17q7 -11 11 -21.5t4 -24.5q0 -11 -3 -19t-6 -17q0 -2 -1.5 -5.5t-1.5 -5.5l-11 -22q-2 -5 -10 -12t-18 -13.5t-19 -11.5t-14 -5h-6q-5 2 -5 7
q0 8 4 14.5t10 12t12 10.5t9 11q9 16 9 33q0 20 -11 43t-33 31q-11 5 -21.5 5.5t-21.5 0.5h-10.5t-10.5 -2q-4 -1 -14 -6.5t-13 -6.5q-6 -2 -10.5 -1.5t-9.5 -4.5l-47 -45q-3 -11 -8 -24.5t-11 -26t-11.5 -22.5t-7.5 -14l-18 -88q-1 -5 -5 -22t-9 -36.5t-9.5 -36.5t-6.5 -21
q0 -2 -1 -5.5t-1 -5.5q0 -1 -0.5 -1.5t-0.5 -1.5q-1 -1 -1 -2l-14 -30q-1 -1 -2 -5.5t-1.5 -10t-1 -10t-0.5 -5.5q-4 -22 -16 -40.5t-12 -40.5q0 -4 0.5 -9t5.5 -5q7 0 14.5 5t15 11.5t14 13.5t11.5 11q1 1 5 4t8.5 6t8.5 5.5t6 2.5q6 2 9.5 5t8.5 7q3 2 11 6l17 8.5t16.5 8
t10.5 4.5l13 6.5t13 2.5q9 0 20 -2.5t20.5 -8t16.5 -14t7 -19.5q0 -13 -10.5 -22t-23.5 -9q-9 0 -17.5 3.5t-16.5 8t-16.5 8.5t-17.5 4q-15 0 -31 -7q-1 0 -2 -0.5t-2 -0.5q-2 -1 -3 -1q-22 -4 -35.5 -16.5t-13.5 -36.5v-2q4 -14 8.5 -29t12.5 -28q1 -1 4.5 -7t5.5 -8
q7 -12 12 -26t10.5 -27.5t12.5 -26t18 -22.5q9 -8 18.5 -15t21.5 -12q2 -1 4.5 -2t5.5 -2q4 -2 7 -3q9 -2 22.5 -4.5t13.5 -15.5q0 -6 -6.5 -10.5t-15.5 -7t-17.5 -3.5t-12.5 -1q-11 0 -22.5 3.5t-21.5 8.5q-3 1 -10.5 4.5t-15.5 8t-14.5 8t-9.5 5.5z" />
    <glyph glyph-name="l" unicode="l" horiz-adv-x="235" 
d="M4 72q0 20 5.5 38t11.5 36q2 10 4 20.5t4 20.5q5 18 9 39.5t10 38.5q2 1 5 9t5 9q5 12 6 23.5t5 22.5q3 13 7 22.5t4 21.5q0 13 -6 18.5t-12.5 8.5t-12.5 6.5t-6 13.5t5.5 13t13 4t15 1t12.5 3q19 12 30.5 38.5t19.5 47.5q4 7 5 16t4 16q8 14 16 25.5t16 23.5q4 5 5 12
t5 14q5 10 13.5 17.5t14.5 18.5q5 9 7.5 19.5t6.5 20.5q3 9 11 13.5t14 9.5q7 5 14 15.5t12 16.5q2 1 6 5.5t5 6.5q1 1 6 5t10.5 8.5l11 9t7.5 6.5q11 8 23.5 8.5t25.5 0.5q8 0 18 -6.5t18.5 -16t14.5 -20.5t6 -21v-15.5t-2 -13.5q-1 -9 -5 -16.5t-7 -14.5q-9 -20 -19 -41.5
t-24 -38.5q-12 -14 -26 -24t-27 -23l-21 -21q-2 -2 -9.5 -8.5t-11.5 -9.5q-13 -10 -25 -19.5t-28 -17.5q-3 -2 -13.5 -3.5t-14.5 -3.5q-8 -2 -12 -6.5t-10 -10.5q-6 -8 -7.5 -15.5t-5.5 -15.5q-2 -8 -7 -14t-9 -13q-2 -4 -3 -9.5t-3 -8.5q0 -2 -2 -6.5t-4 -9.5t-4 -9.5
t-2 -5.5q-1 -1 -2 -7t-1.5 -12.5t-1 -12.5t-0.5 -7q-2 -17 -10 -34t-13 -33q-8 -20 -12 -39t-7 -39q-4 -21 -7 -37.5t-3 -36.5v-21q4 -12 13.5 -21.5t22.5 -9.5q10 0 19 3.5t17 8.5l76 48q5 4 7 4.5t7 0.5q6 0 6 -8q0 -4 -0.5 -5.5t-2.5 -5.5q-15 -21 -32 -38t-40 -28
q-1 -1 -6.5 -3t-11.5 -4.5t-11 -4t-6 -2.5q-3 -1 -13.5 -8t-12.5 -10h-5q-6 -6 -14.5 -14t-18.5 -8q-4 0 -14.5 2t-14.5 4q-3 4 -3.5 6.5t-2.5 6.5q-11 20 -21 38.5t-10 41.5zM204 519q1 -9 12 -9q8 0 13.5 6.5t13.5 10.5q19 9 37 20q4 2 4 4.5t3 4.5q3 6 7 8.5t10 5.5l2 2
l10 12.5t7 8.5q5 6 6.5 12.5t9.5 10.5q3 16 8.5 27.5t13.5 26.5q5 9 8.5 15.5t3.5 17.5v20.5t-3 22t-9 18t-18 7.5q-14 0 -25.5 -10.5t-21.5 -18.5l-2 -3q-1 -2 -3.5 -8t-3.5 -8q-1 -1 -4.5 -5.5l-7 -9l-7 -9t-3.5 -5.5l-3 -5q-8 -16 -16 -32.5t-16 -32.5q0 -4 -2 -18.5
t-4 -18.5q-4 -16 -12 -28.5t-8 -29.5v-10z" />
    <glyph glyph-name="m" unicode="m" horiz-adv-x="630" 
d="M26 51q0 18 6.5 34t12.5 33q8 22 13.5 41t13.5 42q4 10 9.5 16.5t5.5 19.5q0 19 -20 19q-13 0 -22.5 -9.5t-23.5 -9.5q-6 0 -12 4.5t-6 12.5t7 14.5t16 12t18.5 10t14.5 9.5q1 1 6 5t10 8.5t9.5 8.5t5.5 5q10 8 28.5 14t30.5 5q12 0 17.5 -7.5t5.5 -18.5q0 -12 -5.5 -22
t-7.5 -21q0 -1 -0.5 -2t-0.5 -2q-1 -2 -1 -3q0 -2 -0.5 -9.5t-0.5 -9.5q-2 -11 -5 -16.5t-8 -16.5q-4 -9 -5 -17t-3 -16q-5 -20 -14.5 -35.5t-9.5 -36.5q0 -8 3 -15.5t13 -8.5q6 0 11 2q22 17 37.5 35t31.5 41q4 5 6 5t5 5l23 23l1 3q0 2 2.5 8t2.5 8q1 3 4.5 9.5t7.5 14.5
t7.5 14.5t4.5 9.5q8 12 14.5 24.5t14.5 24.5q10 14 21 18t27 6q2 0 6.5 1.5t6.5 1.5h5q13 0 13 -16v-5q-1 -3 -2.5 -10.5t-3.5 -15t-3.5 -14.5t-2.5 -9q0 -2 -3 -10.5t-3 -10.5q-4 -11 -4 -22t-3 -23q0 -1 -0.5 -1.5t-0.5 -1.5v-2q-1 -1 -3.5 -6t-5 -10.5t-5 -10.5t-2.5 -6
q-2 -7 -2.5 -14t-0.5 -14v-12t1.5 -13.5t4.5 -11.5t10 -5l4 2l9 4.5t9.5 5t6.5 3.5q9 10 17 19t18 19q6 5 11.5 15t10.5 16q11 14 21.5 28t20.5 29q7 13 14 26.5t13 26.5q4 11 7.5 22t13.5 17q8 5 21 12.5t24 6.5q11 0 19 -7.5t8 -18.5v-7q0 -2 -1.5 -5.5t-1.5 -5.5
q0 -1 -1 -7t-2.5 -12.5t-2.5 -12.5t-1 -7l-1 -5q-1 -3 -4 -9.5t-7 -14t-7 -14.5t-4 -9q-4 -8 -8 -15t-5 -15q-1 -1 -2 -7t-2.5 -12.5t-2.5 -12.5t-1 -7q-6 -18 -14.5 -33.5t-8.5 -36.5q0 -10 4.5 -19.5t16.5 -10.5q7 0 12 5t10.5 11.5t11 11.5t12.5 5t10 -6t3 -11
q0 -9 -5 -19.5t-11 -14.5q-12 -8 -25.5 -12.5t-25.5 -11.5q-10 -6 -20 -13t-21 -7q-15 0 -28.5 10t-13.5 25q0 20 9.5 34.5t15.5 30.5q5 14 8 32.5t3 34.5v12q-2 7 -7 7t-9 -3l-5 -5t-9 -8t-9.5 -8t-5.5 -5q-7 -7 -10.5 -9t-8.5 -8l-1 -3q-8 -13 -20 -20.5t-20 -18.5
l-79 -80l-3 -2q-2 0 -12.5 -0.5t-16.5 -2.5h-3q-10 0 -16.5 5t-6.5 16q0 14 7 23t12 22q5 11 5 20.5t2 20.5q6 23 15 44.5t9 46.5v10q0 5 -3.5 8.5t-7.5 3.5q-8 1 -11.5 -7.5t-8.5 -12.5q-3 -2 -6.5 -4t-5.5 -6q-6 -11 -13.5 -27t-15.5 -26q-7 -9 -16.5 -15.5t-17.5 -15.5
q-1 -2 -3.5 -6.5t-4.5 -6.5q-5 -8 -15 -19t-21 -21.5t-22 -20t-19 -13.5q-1 0 -6 -2.5t-6 -2.5q-11 -5 -20 -12.5t-20 -7.5q-8 1 -13 8t-8 16t-4 19t-1 16z" />
    <glyph glyph-name="n" unicode="n" horiz-adv-x="413" 
d="M223 38q0 17 6.5 32.5t11.5 30.5q3 6 4 13t4 14q6 16 12.5 27t6.5 29q0 8 -2 14t-9 6q-5 0 -11.5 -5t-13 -12t-13 -14.5t-9.5 -11.5q-3 -2 -12 -12t-13 -13l-2 -2q-1 -1 -1 -4q-5 -9 -12.5 -12.5t-12.5 -11.5q-11 -11 -18.5 -23.5t-16.5 -23.5q0 -2 -1 -3l-2 -2
q-3 -3 -9 -8.5t-13 -11.5t-13.5 -11.5t-9.5 -8.5q-11 -9 -23.5 -11.5t-26.5 -2.5t-17.5 13t-3.5 23q0 15 4 32t11 30q5 8 9.5 14.5t6.5 17.5v7q0 3 1 6q0 2 2 5t2 4q9 20 20.5 39t11.5 42q0 8 -1.5 19.5t-12.5 11.5q-5 0 -8 -1t-6 -1q-6 0 -8.5 5.5t-2.5 10.5t3.5 8.5
l8.5 8.5q2 2 12 6.5t12 5.5q2 0 5 2t5 2q13 6 30.5 18.5t31.5 12.5q13 0 21 -8t8 -19q0 -2 -2 -10t-4.5 -17t-4.5 -16.5t-3 -9.5q-5 -7 -9.5 -12t-9.5 -12q-4 -10 -3.5 -20.5t-1.5 -21.5q0 -1 -2 -6t-3 -7q-2 -2 -4 -7t-4.5 -10.5t-4.5 -10.5t-3 -6q-6 -11 -12 -18t-6 -21
v-9q2 -4 6 -8t9 -4q2 0 8 5t13 11t12.5 12t7.5 9q4 13 14 26q2 2 7 4t7 6q0 2 1.5 4t1.5 4q3 9 9 14t13 9t14 9t12 13q10 17 19 34t17 34q8 16 15.5 29t24.5 18q3 1 8.5 2t11.5 2.5t11.5 2.5t7.5 2h10q10 0 18 -3.5t8 -14.5q0 -18 -4.5 -33t-10.5 -32q-3 -4 -9 -15.5
t-12.5 -24.5t-12 -24.5t-7.5 -15.5q-2 -2 -3.5 -5.5t-3.5 -5.5q-1 -2 -4 -7.5t-6 -11.5t-6.5 -11.5t-4.5 -7.5q-4 -7 -3.5 -15t0.5 -16q0 -9 3 -20t15 -11q13 0 22.5 8.5t17 18t15 18t17.5 8.5q9 0 15 -6.5t6 -15.5q0 -19 -14 -34t-27 -23q-2 0 -6.5 -3t-9.5 -6.5t-9.5 -6.5
t-5.5 -4l-26 -16t-28 -8h-3q-20 4 -35 10t-15 33z" />
    <glyph glyph-name="o" unicode="o" 
d="M3 118q0 14 4 27.5t6 27.5q5 21 8 37.5t16 33.5q7 9 14.5 16t14.5 17q8 13 13 28.5t22 20.5q8 3 17 3.5t17 5.5q2 1 11.5 7.5t11.5 8.5q5 2 10.5 2.5t10.5 0.5q12 0 23 -3.5t22 -7.5q21 -8 33 -16t18 -20t8 -29t2 -42v-30q-2 -14 -6 -26.5t-8 -24.5q-1 -1 -2.5 -5.5
t-3 -10t-2.5 -10t-2 -5.5q-3 -11 -10 -20.5t-13 -19.5q-12 -18 -21.5 -29.5t-20 -19.5t-23.5 -13t-32 -9q-8 -4 -14.5 -10t-15.5 -6q-21 0 -40.5 9.5t-34.5 26t-24 38.5t-9 47zM66 114q0 -15 5 -22.5t11 -20.5q3 -4 3.5 -7.5t2.5 -7.5q6 -8 17.5 -11.5t19.5 -3.5q12 0 19 7
t18 16q8 8 19 14.5t16 18.5q9 22 12.5 44t14.5 42v56q0 12 -5 24t-13 21t-18.5 15t-21.5 6q-18 0 -29 -10q-18 -18 -31.5 -39t-24.5 -45q-5 -8 -8 -14.5t-5 -15.5q-2 -19 -2 -34.5v-32.5z" />
    <glyph glyph-name="p" unicode="p" horiz-adv-x="347" 
d="M-126 -454l5 13q3 15 3 22t1 11.5t2.5 10t7.5 17.5l7 15q2 5 3 10.5t1 10.5q0 18 3.5 35t8 33t8.5 30.5t4 28.5q1 4 4 9.5t7 10t7 8.5t3 5q5 21 8 33t8 28l7 29l4 20t5 18l6 15q2 5 3.5 9.5t2.5 9.5l3 22q2 15 6 32t10 30l11 21q7 10 10 23t4.5 27t3.5 28t8 27l8 16
q8 16 15.5 32.5t7.5 33.5q0 10 -7.5 17t-18.5 7h-4l-21 -22q-3 -2 -8.5 -4t-8.5 -2q-8 0 -13.5 3t-5.5 13t7 15t16 7t18 3t14 4v-1l19 18q11 11 27.5 23.5t31.5 12.5q11 0 17.5 -7t6.5 -18q0 -18 -8.5 -27.5t-8.5 -19.5l-10 -62l-12 -35q0 -5 -1.5 -14t-3 -19t-2.5 -19
t-2 -12q-1 -1 -1 -3q-1 -1 -1 -3v-1v-11q0 -16 7 -27.5t16 -23.5l2 -4v1q7 -10 12.5 -15t17.5 -5q28 0 49 19t35 42l8 20q4 9 8.5 24.5l9 31t8 27.5t3.5 15l-2 15v-1q-4 14 -9.5 30t-19.5 21q-8 0 -17.5 8t-9.5 19q0 14 13 26.5t28 12.5q12 -3 25 -7.5t23.5 -12t18 -18.5
t8.5 -26v-53q0 -24 -3 -38.5t-7 -25t-8 -18.5t-6 -18l-9 -25q-1 -2 -2.5 -4t-2.5 -4l-16 -17h1l-13 -15l-18 -22t-21 -21l-17 -8q-17 -8 -37 -11t-41 -2h-17l-16 7q-7 3 -13 5.5t-11 2.5q-13 0 -20 -14t-10.5 -34.5t-6.5 -43t-7 -39.5l-6 -14l-11 -21q-5 -8 -9.5 -22
t-3.5 -31l-2 -8q-9 -31 -10.5 -46t-3.5 -31l-3 -8q-8 -22 -12 -43.5t-11 -39.5v1l-4 -12l-4 -12q-2 -10 -2 -25.5t-3 -29.5t-10.5 -24.5t-24.5 -10.5q-4 0 -9 0.5t-8 3.5l-19 20q-3 3 -3 9v3z" />
    <glyph glyph-name="q" unicode="q" horiz-adv-x="368" 
d="M51 -485q0 11 7 20t11 18q0 1 2 7q1 2 2 5q0 2 2 7t2 7q1 2 5.5 14t6.5 15q4 11 3.5 21.5t4.5 21.5q2 2 8 12t8 12q6 11 6.5 23t4.5 23v1q0 1 1 2q0 1 1 2q1 2 5 10.5t4 10.5q0 1 1.5 10t1.5 10q0 4 1.5 11.5t1.5 9.5q1 1 3 6.5t4 12t4 12t2 6.5q5 14 6 29t7 29
q0 1 2.5 6.5t5 11.5t5 11t3.5 6q5 14 6 29t6 29q2 4 5 7.5t5 7.5q2 8 2.5 13t0.5 13v6l-10 11h-3q-9 0 -18.5 -4.5t-17.5 -7.5q-1 0 -1.5 -0.5t-1.5 -0.5q-1 -1 -2 -1q-19 -5 -42.5 -14.5t-42.5 -9.5q-29 0 -46.5 22.5t-17.5 49.5q0 16 5.5 28.5t7.5 26.5q3 16 6.5 30
l7.5 30l2 3q0 2 2 4.5t2 3.5q1 1 3.5 6.5t5.5 11t5.5 10.5l3.5 7t9 12.5t10 14.5q2 2 7 7.5t11 11.5t11 11.5t7 7.5q15 13 30.5 20.5t33.5 17.5q5 2 8.5 1.5t8.5 1.5q18 5 32 9.5t33 4.5q11 0 22.5 -6t23.5 -6q8 0 14.5 3t14.5 3q9 0 16.5 -4.5t7.5 -14.5q0 -5 -2.5 -10
t-4.5 -10l-16 -80q-7 -20 -13 -41t-12 -41q0 -2 -0.5 -7t-0.5 -7t-1 -3.5t-1 -3.5t-4 -12.5t-4 -11.5q-2 -12 -3 -21t-7 -20q-1 -2 -6 -9t-6 -8q-5 -10 -6 -25.5t-2 -26.5q-2 -10 -6.5 -18.5t-8.5 -16.5q-5 -13 -3.5 -27.5t-3.5 -28.5q-3 -7 -6 -12.5t-6 -10.5
q-4 -9 -5.5 -18t-6.5 -17q-2 -7 -6 -14.5t-5 -15.5q-1 -3 -2 -9t-2.5 -12.5t-2.5 -11.5t-1 -6q0 -2 -1 -9.5t-1 -9.5q-2 -13 -9 -25.5t-8 -26.5q-2 -11 -1.5 -20t-5.5 -20q-4 -7 -9.5 -13.5t-7.5 -13.5q-4 -10 -4 -20.5t-4 -20.5q-1 -1 -3 -5.5t-4.5 -10t-5 -10t-3.5 -5.5
t-1 -3v-5q-2 -4 -3.5 -17.5t-1.5 -18.5q-4 -8 -10.5 -16.5t-18.5 -8.5h-2q-1 0 -2 0.5t-2 0.5q-2 0 -8 2.5t-8 2.5q-10 4 -18.5 4.5t-8.5 14.5zM75 117q2 -16 4.5 -28.5t7.5 -22.5t15 -17.5t27 -11.5h5q2 0 9 1.5t15 3t14.5 3.5t8.5 4l7 7t7 6q6 6 9.5 7t8.5 7q0 2 2.5 7.5
t3.5 6.5q0 2 5.5 5t5.5 5q5 8 11 20.5t11 21.5q-1 15 2.5 28t8 25t8.5 25t4 29q0 32 -22 51t-51 19q-11 0 -18 -4.5t-14 -12.5q-2 -2 -10.5 -11.5t-18.5 -20.5t-18 -20.5t-10 -11.5q-20 -24 -29 -55t-9 -62v-4z" />
    <glyph glyph-name="r" unicode="r" horiz-adv-x="313" 
d="M55 117q0 15 5.5 28t14 24t18.5 21.5t20 21.5q7 7 12.5 15.5t5.5 18.5q0 11 -5 14.5t-13 7.5q-4 2 -7 4q-4 2 -5 3l-2 2l-6 -2q-2 0 -8 -1t-9 -1q-1 -2 -7.5 -7.5t-14 -12t-14 -11.5t-7.5 -6q-2 0 -4 -2t-3 -2h-2q-5 0 -10.5 5t-5.5 9t3.5 10t7.5 11.5t8 7.5t6 -2
q1 -3 7 -1t13.5 7t14.5 13t10 17q2 5 3 11.5t5 11.5q10 16 24 26t33 10h10q6 -5 10 -14q0 -11 1 -21t4 -18t10 -12.5t20 -4.5h7q3 2 16.5 5.5t17.5 5.5q9 2 14.5 7t11.5 10t13 9t18 4q8 0 14.5 -5t6.5 -15q0 -4 -1.5 -8.5t-5.5 -6.5q-5 -3 -9 -4t-9 -4q-13 -6 -28.5 -12.5
t-27.5 -14.5q-4 -2 -10.5 -8.5t-9.5 -8.5q-2 0 -5.5 -3t-5.5 -3q-17 -12 -28.5 -21.5t-19 -20.5t-12 -25t-8.5 -33q-2 -4 -3 -8t-1 -9q0 -13 6 -24t11 -22q7 -10 15 -19.5t22 -9.5t27 3t26 5q3 0 9 2.5t13 5t13.5 4.5t8.5 3q5 2 6.5 2h6.5t7.5 -0.5t4.5 -5.5v-7
q0 -11 -10.5 -17.5t-24.5 -10.5t-28 -6.5t-22 -5.5q-18 -7 -33.5 -15.5t-36.5 -8.5h-1q-12 2 -30 4.5t-30 10.5q-21 17 -29.5 45.5t-8.5 54.5z" />
    <glyph glyph-name="s" unicode="s" horiz-adv-x="256" 
d="M-31 88q0 9 5 19t13 19t17 15t17 6q14 0 23.5 -13.5t9.5 -27.5q0 -10 -3 -17.5t-3 -17.5v-9q6 -11 18.5 -16t23.5 -5q9 0 19 8t17 13q20 15 34.5 40.5t14.5 51.5q0 11 -3.5 21t-3.5 21q0 5 1 9.5t1 9.5q0 10 -5.5 18.5t-14.5 8.5q-6 0 -19.5 -7t-18.5 -11q-4 -4 -7 -6.5
t-10 -2.5q-8 0 -8 13q0 11 11.5 21t19.5 14q6 2 10.5 3t9.5 5q3 3 9.5 8t12.5 10.5t11 9.5t6 5q8 6 15 15t15 17t17 13.5t20 5.5h8q4 -3 4 -11v-5q0 -2 -1.5 -7t-3.5 -11t-3.5 -11t-1.5 -6q-5 -19 -10.5 -35.5t-5.5 -36.5q0 -14 2.5 -28t2.5 -29q0 -14 -2 -34.5t-10 -31.5
q-11 -19 -28.5 -38t-38.5 -34.5t-44.5 -25.5t-45.5 -10q-15 0 -32 7.5t-31.5 19.5t-24 27.5t-9.5 32.5z" />
    <glyph glyph-name="t" unicode="t" horiz-adv-x="256" 
d="M-1 69q0 3 2 9.5t4 14t3.5 14t2.5 9.5q2 8 1.5 9t1.5 7q1 3 6 15.5t10.5 26.5t10 26t6.5 15q8 21 12.5 45t11.5 45v7q0 15 -9 25.5t-9 24.5q0 15 9 18t20 6q14 4 19.5 16.5t9.5 24.5q0 1 2 7t4.5 12.5t4.5 12t3 7.5q0 1 2 6t2 7q3 8 11 12.5t18 6.5t20 2.5t17 0.5h6
q5 -2 5.5 -4t0.5 -6q0 -13 -6 -23t-13 -19t-13 -19t-6 -22q0 -9 5 -15t12 -9q13 -2 21.5 -2h22.5q12 0 22.5 3t19.5 3q7 0 10.5 -5t3.5 -11q0 -9 -5 -15t-11.5 -10t-14.5 -6t-14 -4q-5 -2 -8 -2.5t-8 -0.5q-15 0 -27.5 5t-26.5 5q-5 0 -10.5 -2t-10.5 -8q-3 -4 -7.5 -10.5
l-9 -13t-8 -12t-4.5 -6.5q-7 -11 -12 -26t-11 -27q-4 -8 -3.5 -22.5t-1.5 -23.5q-3 -20 -12.5 -36.5t-9.5 -40.5q0 -20 12.5 -38.5t32.5 -18.5q13 0 23.5 7t21.5 15.5t23 15.5t29 7q11 0 23 -5t12 -19q0 -15 -12 -23t-23 -13q-14 -8 -31 -20t-34 -17q-1 0 -7 -1t-8 -1h-22
q-8 0 -14.5 -4t-14.5 -4h-5q-1 0 -8 2t-8 2q-2 0 -12.5 1t-12.5 1q-11 2 -24 12t-13 24v30v0z" />
    <glyph glyph-name="u" unicode="u" horiz-adv-x="409" 
d="M208 55q-17 0 -33 -12.5t-33 -18.5q-11 -4 -21 -6.5t-23 -4.5q-13 -3 -24 -6t-24 -3q-21 0 -33.5 17t-12.5 36q0 28 10.5 49.5t27.5 44.5q10 13 20.5 25t10.5 29q0 5 -0.5 10.5t-0.5 10.5t0.5 10.5t0.5 13.5q0 6 -2.5 14t-13.5 8h-2l-35 -10h-2q-16 0 -16 15q0 8 3.5 13
t9.5 11q6 7 20 6.5t24 3.5q9 5 17 12.5t16.5 15t18 12.5t20.5 5q13 0 27 -6.5t14 -20.5q0 -17 -8.5 -31t-15.5 -28q-1 -2 -2.5 -7t-3.5 -11.5t-3.5 -12t-2.5 -6.5q0 -2 -1.5 -4.5t-1.5 -4.5q0 -1 -4.5 -8t-4.5 -9q0 -1 -0.5 -6.5t-0.5 -7.5q-2 -4 -4.5 -7.5t-3.5 -7.5
q0 -1 -0.5 -1.5t-0.5 -1.5q-1 -1 -1 -2q0 -2 -1 -8.5t-2 -9.5l-4 -3q-1 -3 -2 -9t-3 -11q-2 -2 -2 -3.5t-1 -3.5t-1 -4v-35q0 -5 6 -10.5t8 -7.5q6 -5 16.5 -5h18.5h15q21 11 42 23t35 32q2 1 8 12.5t11 17.5q4 5 5 9t4 12q8 21 16 41t15 41q3 12 6.5 27.5t9.5 28.5t15.5 22
t25.5 9q14 0 24 -5.5t10 -21.5v-6q0 -2 -4 -11t-5 -10q-8 -18 -16 -31t-19 -30q-6 -9 -9.5 -19t-8.5 -19q-5 -12 -9 -17.5t-8 -17.5q-1 -2 -2 -8t-2.5 -12.5t-3 -12t-1.5 -6.5t-1.5 -4.5t-3.5 -7.5t-3.5 -7.5t-1.5 -4.5v-5q0 -25 26 -25h4q3 1 12.5 5t11.5 6q8 2 22.5 9
t21.5 7q16 0 16 -14v-6.5t-1 -6.5q-22 -26 -52.5 -39t-62.5 -22q-4 -1 -13 -3t-11 -2h-7q-14 0 -22 6t-13 15t-7.5 20.5t-6.5 22.5z" />
    <glyph glyph-name="v" unicode="v" horiz-adv-x="413" 
d="M68 -14q0 7 2.5 11.5t5.5 9t5.5 10.5t2.5 16q0 22 -4 43l-8 42q-2 9 -2 23t-2.5 27.5t-9 23.5t-20.5 10q-12 0 -20 -7t-19 -7q-8 0 -11 5t-3 12q0 5 0.5 8t5.5 6q3 0 10 1t9 1q8 2 13 6.5t13 7.5q2 2 12.5 4.5t12.5 4.5q5 3 19 7t20 9q4 2 8 8.5t9 10.5q11 9 19.5 12.5
t19.5 8.5q11 6 20 15t23 9q7 0 7 -10q0 -7 -3.5 -10.5t-8.5 -6t-10.5 -4.5t-9.5 -6q-3 -3 -8 -8.5t-9.5 -11t-8 -11t-4.5 -8.5q0 -4 -1 -15.5t-1.5 -24t-1.5 -24t-1 -16.5v-3q0 -10 0.5 -25t4 -29t12 -24t24.5 -10h5q20 11 37.5 18.5t35.5 18.5q13 10 27 23.5t25.5 30t19 34
t7.5 35.5q0 16 -5 32t-5 33t13 33.5t30 16.5q23 0 34 -19t11 -38v-8l-12 -54l-2 -4q-2 -2 -9 -13.5t-9 -13.5q-3 -6 -4.5 -12.5t-6.5 -13.5q-29 -39 -66.5 -71.5t-79.5 -55.5q-17 -9 -33.5 -16t-32.5 -15q-8 -5 -17 -13.5t-18.5 -16.5t-20 -14t-22.5 -6q-8 0 -11 5.5
t-3 12.5z" />
    <glyph glyph-name="w" unicode="w" horiz-adv-x="553" 
d="M79 -29v11q0 2 3.5 11t3.5 11q7 23 11 41t4 39q0 15 -2 29t-2 28q0 20 4 38t4 36q0 16 -7.5 28.5t-22.5 12.5q-17 0 -29.5 -8.5t-27.5 -8.5q-8 0 -11.5 2.5t-3.5 10.5q0 15 10 25t24.5 16.5t29.5 11t25 10.5q8 5 20.5 14.5t25.5 9.5h4q15 -3 23.5 -6.5t12.5 -9t5 -14
t1 -22.5q0 -20 -5.5 -36t-10.5 -34q-8 -22 -7 -46.5t1 -47.5q0 -30 28 -30q18 0 28.5 9.5t21.5 22.5q5 5 13 12t11 15q1 3 3.5 10t5.5 14.5t5.5 14.5t3.5 10q2 5 2 9v9q0 18 -4.5 36t-4.5 36q0 13 11 29.5t24 16.5h31q1 -1 2 -1q1 -1 4 -1q18 -8 27.5 -18.5t9.5 -31.5
q0 -18 -5.5 -30.5t-11.5 -29.5q0 -1 -0.5 -2t-0.5 -3q-1 -2 -1 -3q0 -2 -1 -9t-1 -9q-4 -14 -12 -24.5t-8 -25.5v-11q2 -5 6.5 -18t6.5 -18q3 -7 7.5 -12.5t12.5 -5.5q11 0 19.5 10.5t15.5 19.5q9 8 17.5 17t14.5 20q3 5 7 13t8.5 15.5t8 13t4.5 6.5q2 4 6.5 15.5t6.5 13.5
q0 2 2.5 11t4.5 19.5t4.5 19.5t2.5 11q5 14 15.5 28.5t25.5 14.5q14 0 18 -8.5t4 -19.5v-12t-1 -10q-1 -2 -3 -8l-4.5 -13.5t-4.5 -14t-3 -7.5q-3 -10 -4.5 -20t-8.5 -18q-2 -2 -7.5 -8.5t-7.5 -8.5q-3 -5 -13 -18t-13 -17q-7 -10 -9 -21.5t-13 -19.5l-94 -74
q-8 -6 -16.5 -18t-18 -24t-19 -20.5t-18.5 -8.5q-13 0 -15 10v13q0 18 4.5 34t4.5 34q0 4 -1 12.5t-4 17.5t-7.5 15.5t-11.5 6.5h-2q-5 -2 -13 -3.5t-11 -3.5q-12 -6 -20.5 -17.5t-16.5 -21.5q-11 -14 -26 -26t-26 -24q-1 -2 -7.5 -10.5t-8.5 -10.5t-7.5 -7t-11.5 -11
t-11 -11.5t-7 -7.5q-4 -3 -11 -3q-8 0 -10.5 2.5t-4.5 8.5v11z" />
    <glyph glyph-name="x" unicode="x" horiz-adv-x="482" 
d="M2 56q0 28 28 28q10 0 16.5 -4t12 -9t11 -9t14.5 -4q5 0 8 0.5t7 3.5q3 2 12.5 10.5t11.5 10.5q6 5 13 7t14 7q10 7 19 13t16.5 12.5t12 16t4.5 23.5v15.5t-2 13.5q-3 9 -10 25t-17.5 31.5t-23 27t-24.5 11.5q-8 0 -11.5 -6.5t-8.5 -11.5q-3 -2 -10.5 -11.5t-10.5 -11.5
q-1 -2 -4 -3.5t-5 -1.5q-7 0 -9 5.5t-2 8.5q0 9 2.5 15t6.5 12q2 5 8.5 15t8.5 11q8 13 23.5 21t29.5 11h30q2 0 5.5 1t4.5 1q8 0 14.5 -9t12 -20.5t9 -23t4.5 -16.5q5 -20 12.5 -39t21.5 -35l25 27q4 11 11 17t11 16q23 29 58 50t74 21q11 0 24.5 -6t13.5 -20v-33
q0 -11 -10 -20t-20 -9h-2q-1 0 -2.5 1t-3.5 1l-22 22q-5 6 -9 11t-12 5q-14 0 -24.5 -10t-19.5 -17q-8 -6 -17 -9t-17 -6q-3 -3 -4 -8.5t-6 -9.5q-12 -13 -24.5 -26t-12.5 -35q0 -18 11.5 -30.5t22.5 -25.5q10 -11 19.5 -23t25.5 -12q13 0 21.5 7.5t15.5 16.5t13 16.5
t15 7.5q11 0 14 -8t3 -16t-2 -17t-9 -14q-3 -4 -7 -8l-9 -9t-11 -10l-48 -23q-7 -3 -15 -4t-16 -1q-17 0 -31 12.5t-24 23.5q-2 2 -4 7t-3 6q-4 8 -5 17t-3.5 17.5t-7 16t-14.5 12.5q-25 -3 -42 -22l-3 -6q-2 -2 -7.5 -7t-7.5 -8q-20 -17 -39 -35.5t-40 -35.5q-3 -1 -7 -2.5
t-6 -1.5q-16 1 -33.5 4.5t-23.5 19.5q-1 2 -2 6t-3 8t-4 9v8v0z" />
    <glyph glyph-name="y" unicode="y" horiz-adv-x="400" 
d="M-187 -511q0 17 4 29.5t12 25.5q3 6 7 15t10 19t14.5 18t20.5 11l10 5v-1q6 6 13 15t15.5 20t18 21.5t21.5 19.5v-1q5 5 11 6.5t14 4.5v-1l10 8q24 10 43 18.5t35.5 19t30.5 25.5t27 38q10 23 23 44.5t23.5 43.5t18 45.5t7.5 49.5q0 23 -25 23q-20 0 -34 -7.5t-33 -15.5
h-9q-15 0 -25.5 14t-15.5 27v22q0 11 0.5 21.5t2.5 19.5q8 12 13.5 35t5.5 45v20q0 2 1 6q1 3 1 6t1 6l2 8v13q0 21 -5 39.5t-29 18.5q-17 0 -29 -6t-21.5 -13.5t-18.5 -13.5t-19 -6t-13 3t-3 13q0 11 6 17t12 11v-1q9 9 14.5 9.5t10.5 5.5q23 17 42.5 26.5t50.5 9.5
q11 0 21.5 -6.5t19 -16.5t14 -21.5t5.5 -21.5q0 -20 -1.5 -37.5t-1.5 -38.5l-14 -104q0 -16 2.5 -25t8.5 -13.5t16 -6t24 -1.5q31 0 49.5 15t26.5 42q0 9 7.5 19t12.5 21l2 4q0 4 1.5 11t3.5 13.5t4 11.5l2 5l6 10l16 44v-1q0 7 2.5 22t8.5 30.5t16 27.5t25 12q9 0 15 -5.5
t9.5 -13t5 -17t1.5 -16.5v-17q-8 -20 -19.5 -39.5t-19.5 -39.5l-2 -5q-4 -15 -13 -27.5t-18 -26t-16 -29.5t-7 -38h1l-7 -14q-6 -12 -11 -27t-3 -25q-2 -12 -7.5 -22t-11.5 -19.5t-10.5 -18t-4.5 -16.5v-20q0 -11 -4.5 -18.5t-4.5 -16.5v-8.5t2 -6.5t8.5 0.5t26.5 9.5h-1
q9 4 10.5 12t2.5 15t5 12.5t18 5.5q5 0 8.5 -1.5t3.5 -9.5q0 -7 -1 -11l-20 -30q-20 -23 -43 -37t-43.5 -27t-37 -30t-23.5 -46l-4 -15q-5 -17 -14.5 -27t-16.5 -27l-7 -16q-4 -9 -16 -22.5t-22 -32.5q-8 -14 -14 -31t-20 -27l-38 -26q-1 0 -2 -1l-2 -2l-4 -4h1
q-11 -15 -21.5 -25.5t-29.5 -15.5q-21 0 -38.5 -1.5t-37.5 -1.5q-21 0 -36.5 12t-15.5 36zM-126 -487q0 -16 7.5 -28t24.5 -12q15 0 29 7.5t25.5 18.5t20 22.5t13.5 19.5l6 11q1 3 9.5 13.5t19.5 18.5q5 7 11 18t10.5 21.5t7 17.5l2.5 7l25 29v6q0 15 -18 15q-12 0 -20 -2.5
t-15 -6.5t-13.5 -8.5t-15.5 -8.5l-13 -11q-11 -9 -22.5 -16.5t-11.5 -9.5q-9 -6 -17 -12t-14 -14v1l-4 -8q-1 -1 -1 -1.5t-1 -1.5t-1 -2l-14 -9q-2 0 -6.5 -9.5t-10 -22.5t-9.5 -25t-4 -18z" />
    <glyph glyph-name="z" unicode="z" 
d="M241 -447q-31 11 -54.5 31.5t-43.5 44.5q-2 1 -7 7t-7 8q-9 12 -12.5 22.5l-8.5 25.5q-5 16 -10 25t-5 26q0 15 4.5 27.5t6.5 26.5q0 1 0.5 6.5t1.5 11.5t1.5 11.5t0.5 6.5q2 11 6 19t8 17q15 39 15 82v12l-14 40q-1 3 -8 8t-15.5 9.5t-17 7.5t-13.5 3q-11 0 -20.5 -3
t-20.5 -3h-10q-6 1 -10 7.5t-4 11.5q0 7 3.5 13t8.5 10q11 9 23.5 12t23.5 12l19 19q11 9 20 20.5t20 20.5q1 0 5 3t5 3q14 9 23 23t24 21l25 25v6q0 9 -3 15.5t-12 8.5q-21 5 -44 8t-46 3q-10 0 -16.5 -5.5t-11.5 -12.5t-10.5 -12.5t-12.5 -5.5q-9 0 -13.5 5.5t-4.5 13.5
q0 9 5 15.5t11.5 11.5t14 10t12.5 11q11 13 19.5 27t26.5 14q2 0 5.5 -0.5t4.5 -0.5l30 -16l17 -3q11 -1 21 -1h33h3q14 0 26 5t22 13q9 6 14.5 11.5t15.5 5.5q15 0 15 -15q0 -12 -8.5 -21t-15.5 -16q-9 -9 -18.5 -16.5t-18.5 -17.5q-11 -13 -19.5 -24.5t-21.5 -22.5
q-6 -5 -13.5 -9.5t-12.5 -11.5l-1 -6q-2 -5 -7 -8t-7 -7q-3 -5 -5.5 -10t-6.5 -10q-3 -5 -12 -14.5t-10 -10.5l-44 -44q-3 -5 -6 -11t-3 -11q0 -9 6.5 -15.5t15.5 -12.5t18.5 -11t15.5 -10q10 -8 20.5 -25.5t13.5 -29.5v-36q0 -32 -1 -62t-8 -60q0 -1 -1 -5.5t-2.5 -9l-3 -9
t-2.5 -5.5q0 -1 -1.5 -6.5t-3 -11.5t-2.5 -11.5t-2 -6.5q0 -1 -2 -6.5t-2 -6.5v-5q0 -13 13 -27.5t21 -23.5q9 -11 19 -24t22 -25.5t25.5 -22t28.5 -12.5q2 -2 7 -2.5t7 -0.5q1 0 9.5 -1t9.5 -1q9 -1 16 -5.5t17 -4.5q15 0 26 9.5t26 11.5l58 28q9 5 15.5 12.5t13.5 14.5
q1 2 6 7t10 10.5t10 10.5l7 7l3 1q4 0 4 -4v-6q0 -7 -2 -11.5t-4 -9.5q-5 -19 -15 -32t-22.5 -23t-28 -18.5t-30.5 -18.5q-7 -4 -12 -8.5t-13 -6.5q-5 0 -20 -1.5t-20 -1.5q-1 0 -10 -1.5t-11 -1.5h-1q-25 3 -49.5 5.5t-49.5 7.5z" />
    <glyph glyph-name="bar" unicode="|" horiz-adv-x="272" 
d="M132 11q0 -2 -1 -6t-1 -5q0 -2 1 -9t2 -14.5t2 -14t1 -9.5q1 -5 1 -8q-2 -8 -6 -19t-9 -15l-23 -11h-14l-2 2q-18 16 -13 48q0 11 3.5 20.5t6.5 19.5q1 4 2.5 16.5t0.5 16.5q3 25 4.5 48.5t-0.5 48.5l28 273q6 10 7 21q2 13 0 24.5t-3 24.5q0 11 0.5 16.5t2.5 16.5
q1 13 3.5 23.5t3.5 22.5v2q0 3 1 4q-1 4 -2.5 14.5t-1.5 14.5q-1 10 -4 17t-2 17q0 4 3 10q1 3 3.5 7.5t4.5 9.5l6 12l2 2q4 2 8 5q3 2 6.5 3.5t5.5 3.5q5 2 9.5 2.5t9.5 0.5q4 -2 9.5 -3t9.5 -6q4 -7 8.5 -15t3.5 -18l-26 -266l-4 -6q0 -3 -1 -9.5t-2 -14t-2 -14t-1 -9.5
q-4 -19 -11 -35.5t-9 -34.5q-2 -11 0 -17.5t3 -18.5q0 -2 -1.5 -10t-1.5 -10t1 -13t0 -13q0 -1 0.5 -10t0.5 -11q1 -9 2 -17t0 -16q-2 -25 -12.5 -45.5t-12.5 -43.5z" />
    <glyph glyph-name="uni00A0" unicode="&#xa0;" horiz-adv-x="125" 
 />
    <glyph glyph-name="exclamdown" unicode="&#xa1;" horiz-adv-x="267" 
d="M215 517q0 -22 -18.5 -37.5t-39.5 -15.5q-9 0 -18.5 6.5t-17.5 16t-13 20.5t-5 20t5 20t13 20.5t17.5 16t19.5 6.5q14 0 19.5 -7t14.5 -14q23 -21 23 -52zM149 366q0 -6 -2.5 -12t-2.5 -12v-126q0 -14 -9 -29t-9 -29v-35q0 -7 -3 -13t-3 -13q0 -10 0.5 -19.5t0.5 -18.5
q0 -19 -14 -38.5t-34 -19.5q-11 0 -23.5 1t-23.5 5.5t-18.5 12.5t-7.5 23q0 14 7 25.5t14 22.5q1 3 3.5 12.5t4.5 12.5q0 1 0.5 3t0.5 4t1 4v36q0 5 2.5 10t4.5 8l14 48q1 2 2.5 4.5t1.5 3.5q5 14 9 28t9 28q0 2 2.5 9t4.5 15t4.5 15t2.5 9q6 19 11.5 28t21.5 21q2 2 4 1.5
t5 -0.5q10 0 14.5 -7.5t4.5 -17.5z" />
    <glyph glyph-name="cent" unicode="&#xa2;" horiz-adv-x="327" 
d="M157 28q0 -1 -2 -4t-2 -4q0 -3 1 -17t2 -17q1 -5 0 -6q-2 -6 -5 -14t-7 -10l-18 -7l-9 1l-1 1q-11 14 -6 38q5 23 -2 26.5t-32 3.5q-12 0 -24.5 19t-22 44t-15.5 50t-6 37q0 27 6.5 51t14.5 50q1 1 2 7t2.5 12.5t3 12.5t2.5 8q5 16 14.5 25t19.5 20q7 9 14.5 20t14.5 18
q15 14 27.5 20t30.5 14q8 3 7.5 8.5t7.5 7.5q-1 5 5 6.5t6 3.5q2 8 -0.5 14t-0.5 13q0 3 3 7l2.5 5t3.5 6q2 4 5 8l1 3q3 2 6 3q2 1 4.5 1.5t4.5 1.5q3 2 6.5 2h5.5q8 -3 13 -8q2 -5 5 -12t2 -15l-7 -31q8 0 15 -6t15 -8q11 -8 18.5 -25t7.5 -31q0 -15 -11.5 -26t-22.5 -11
q-12 0 -20.5 5t-16.5 13l-13 -76l-3 -5l-7 -33q-3 -15 -9 -26.5t-9 -25.5q-2 -8 -1 -13t2 -15q0 -1 -1.5 -6.5t-1.5 -6.5q-1 -2 -1 -9.5t-1 -9.5v-17v-6h3q15 9 35 17.5t37 8.5q5 0 11.5 -1.5t6.5 -9.5q0 -18 -16.5 -28.5t-29.5 -16.5q-2 -1 -9.5 -4t-16 -7t-16.5 -7.5
t-11 -4.5q-6 -3 -9 -3q-7 -15 -8 -29zM99 117q8 0 17 -0.5t17 -1.5l35 201q2 5 3.5 8t3.5 8q2 10 1.5 18.5t-1.5 18.5q0 8 3 17q-11 -3 -21.5 -10.5t-19 -18t-15.5 -22t-11 -21.5q-3 -9 -4 -19.5t-5 -19.5q-2 -8 -7.5 -18.5t-5.5 -21.5v-43q0 -1 -3.5 -12.5t-3.5 -13.5v-10
q0 -14 4.5 -22.5t12.5 -16.5z" />
    <glyph glyph-name="sterling" unicode="&#xa3;" horiz-adv-x="620" 
d="M601 528q-34 -46 -81 -46q-8 0 -14 0.5t-11 1.5q-7 9 -5 20q8 31 28 41q8 21 8 33q0 39 -90 42q-38 2 -90 -71q-44 -64 -53 -105q-12 -56 -8 -64q11 2 27 3t37 2q40 -1 40 -19q0 -4 -1 -7q-1 -7 -26 -18q-27 -12 -30 -15q-27 6 -47 6q-32 0 -46 -20q-4 -6 -15 -44
q-9 -31 -28 -44q-7 -10 -19 -37.5t-31 -73.5q-3 -7 13 -14l21 -10q47 0 52 -1q25 -4 36 -28l39 -14q8 -4 19 -4q28 0 65 31q9 8 24 23.5t35 38.5q7 2 13 3l12 2q8 -13 4 -32q-11 -53 -59 -83q-43 -26 -95 -26q-8 0 -21.5 4t-21.5 4q-3 1 -23 15q-19 14 -24 14q-1 -1 -3 -1
q-26 27 -57 27q-48 0 -87 -50l-27 -4q-17 -5 -27 -3q-24 0 -24 21q0 12 10 35q10 2 23.5 8t30.5 14q13 24 51 71q23 54 41.5 97t32.5 78q-8 3 -31 3q-32 -2 -33 0q-17 2 -16 10q4 22 36 37h54q10 7 14 12q52 128 81 169q58 81 149 91q19 3 39 -1q14 -2 24 -3t15 -1
q39 0 55 -22q9 -9 26 -54z" />
    <glyph glyph-name="section" unicode="&#xa7;" horiz-adv-x="568" 
d="M528 655q-5 -17 -9.5 -28.5t-6.5 -16.5q-13 -24 -37 -35q-9 -4 -19 -4q-20 0 -39 18q-11 29 6 64q16 32 16 38q0 13 -23 19q-10 2 -15 2q-38 0 -79 -38q-45 -42 -63 -103q-8 -30 -8 -52q0 -49 37 -98l69 -84q37 -52 37 -111q0 -35 -12 -75t-25 -60q-32 -108 -119 -166
q-72 -48 -145 -45q-22 2 -42 22l-32 38l-9 49q-1 3 -1 11q0 65 59 86q24 11 38 11q3 0 38 -9q5 -51 -44 -89q-5 -4 -12 -9t-15 -13q-9 -11 -2 -22q14 -23 52 -23q7 0 17 0.5t23 1.5q38 1 83 46q50 50 61 115q1 4 1 8v9q0 45 -54 105q-25 28 -41.5 48.5t-24.5 34.5
q-27 46 -27 103q0 47 19 101q14 40 33.5 77t45.5 71q56 75 106 86q29 20 88 18q27 -2 50 -22q28 -22 28 -57q0 -12 -3 -22zM360 213q0 36 -68 118q-70 84 -75 137q-10 -10 -9 -52q2 -45 64 -130q17 -23 28 -38t16 -23q24 -39 29 -71l1 -1q6 0 12 17q2 4 2 43z" />
    <glyph glyph-name="dieresis" unicode="&#xa8;" horiz-adv-x="295" 
d="M303 519q0 5 3.5 13.5t8.5 16.5t11 13.5t12 5.5h34q5 0 11 -6t11 -14.5t8 -17t3 -13.5q0 -14 -9.5 -27.5t-21.5 -19.5q-5 -2 -10 -2h-8q-23 0 -38 14t-15 37zM189 518q2 12 13.5 25.5t24.5 13.5q19 0 32.5 -15.5t13.5 -34.5t-9.5 -36t-30.5 -17q-26 0 -35 12.5t-9 35.5
v16z" />
    </font>
</defs>
</svg>
